<svg xmlns="http://www.w3.org/2000/svg" width="24" height="24" viewBox="0 0 24 24" fill="currentColor">
  <g fill-rule="nonzero">
    <path d="M18 14.9995V19.9995H6V14.9995H18ZM18 12.9995H6C5.46957 12.9995 4.96086 13.2102 4.58579 13.5853C4.21071 13.9604 4 14.4691 4 14.9995V19.9995C4 20.5299 4.21071 21.0387 4.58579 21.4137C4.96086 21.7888 5.46957 21.9995 6 21.9995H18C18.5304 21.9995 19.0391 21.7888 19.4142 21.4137C19.7893 21.0387 20 20.5299 20 19.9995V14.9995C20 14.4691 19.7893 13.9604 19.4142 13.5853C19.0391 13.2102 18.5304 12.9995 18 12.9995ZM18 3.99951V8.99951H6V3.99951H18ZM18 1.99951H6C5.46957 1.99951 4.96086 2.21023 4.58579 2.5853C4.21071 2.96037 4 3.46908 4 3.99951V8.99951C4 9.52994 4.21071 10.0387 4.58579 10.4137C4.96086 10.7888 5.46957 10.9995 6 10.9995H18C18.5304 10.9995 19.0391 10.7888 19.4142 10.4137C19.7893 10.0387 20 9.52994 20 8.99951V3.99951C20 3.46908 19.7893 2.96037 19.4142 2.5853C19.0391 2.21023 18.5304 1.99951 18 1.99951Z" fill-rule="evenodd"/>
  </g>
</svg>
