<svg xmlns="http://www.w3.org/2000/svg" width="24" height="24" viewBox="0 0 24 24" fill="currentColor">
  <g fill-rule="nonzero">
    <path d="M8 4.5V7.5C8 7.63261 7.94732 7.75979 7.85355 7.85355C7.75979 7.94732 7.63261 8 7.5 8H4.5C4.36739 8 4.24021 7.94732 4.14645 7.85355C4.05268 7.75979 4 7.63261 4 7.5V4.5C4 4.36739 4.05268 4.24021 4.14645 4.14645C4.24021 4.05268 4.36739 4 4.5 4H7.5C7.63261 4 7.75979 4.05268 7.85355 4.14645C7.94732 4.24021 8 4.36739 8 4.5ZM13.5 4H10.5C10.3674 4 10.2402 4.05268 10.1464 4.14645C10.0527 4.24021 10 4.36739 10 4.5V7.5C10 7.63261 10.0527 7.75979 10.1464 7.85355C10.2402 7.94732 10.3674 8 10.5 8H13.5C13.6326 8 13.7598 7.94732 13.8536 7.85355C13.9473 7.75979 14 7.63261 14 7.5V4.5C14 4.36739 13.9473 4.24021 13.8536 4.14645C13.7598 4.05268 13.6326 4 13.5 4ZM19.5 4H16.5C16.3674 4 16.2402 4.05268 16.1464 4.14645C16.0527 4.24021 16 4.36739 16 4.5V7.5C16 7.63261 16.0527 7.75979 16.1464 7.85355C16.2402 7.94732 16.3674 8 16.5 8H19.5C19.6326 8 19.7598 7.94732 19.8536 7.85355C19.9473 7.75979 20 7.63261 20 7.5V4.5C20 4.36739 19.9473 4.24021 19.8536 4.14645C19.7598 4.05268 19.6326 4 19.5 4ZM7.5 10H4.5C4.36739 10 4.24021 10.0527 4.14645 10.1464C4.05268 10.2402 4 10.3674 4 10.5V13.5C4 13.6326 4.05268 13.7598 4.14645 13.8536C4.24021 13.9473 4.36739 14 4.5 14H7.5C7.63261 14 7.75979 13.9473 7.85355 13.8536C7.94732 13.7598 8 13.6326 8 13.5V10.5C8 10.3674 7.94732 10.2402 7.85355 10.1464C7.75979 10.0527 7.63261 10 7.5 10ZM13.5 10H10.5C10.3674 10 10.2402 10.0527 10.1464 10.1464C10.0527 10.2402 10 10.3674 10 10.5V13.5C10 13.6326 10.0527 13.7598 10.1464 13.8536C10.2402 13.9473 10.3674 14 10.5 14H13.5C13.6326 14 13.7598 13.9473 13.8536 13.8536C13.9473 13.7598 14 13.6326 14 13.5V10.5C14 10.3674 13.9473 10.2402 13.8536 10.1464C13.7598 10.0527 13.6326 10 13.5 10ZM19.5 10H16.5C16.3674 10 16.2402 10.0527 16.1464 10.1464C16.0527 10.2402 16 10.3674 16 10.5V13.5C16 13.6326 16.0527 13.7598 16.1464 13.8536C16.2402 13.9473 16.3674 14 16.5 14H19.5C19.6326 14 19.7598 13.9473 19.8536 13.8536C19.9473 13.7598 20 13.6326 20 13.5V10.5C20 10.3674 19.9473 10.2402 19.8536 10.1464C19.7598 10.0527 19.6326 10 19.5 10ZM7.5 16H4.5C4.36739 16 4.24021 16.0527 4.14645 16.1464C4.05268 16.2402 4 16.3674 4 16.5V19.5C4 19.6326 4.05268 19.7598 4.14645 19.8536C4.24021 19.9473 4.36739 20 4.5 20H7.5C7.63261 20 7.75979 19.9473 7.85355 19.8536C7.94732 19.7598 8 19.6326 8 19.5V16.5C8 16.3674 7.94732 16.2402 7.85355 16.1464C7.75979 16.0527 7.63261 16 7.5 16ZM13.5 16H10.5C10.3674 16 10.2402 16.0527 10.1464 16.1464C10.0527 16.2402 10 16.3674 10 16.5V19.5C10 19.6326 10.0527 19.7598 10.1464 19.8536C10.2402 19.9473 10.3674 20 10.5 20H13.5C13.6326 20 13.7598 19.9473 13.8536 19.8536C13.9473 19.7598 14 19.6326 14 19.5V16.5C14 16.3674 13.9473 16.2402 13.8536 16.1464C13.7598 16.0527 13.6326 16 13.5 16ZM19.5 16H16.5C16.3674 16 16.2402 16.0527 16.1464 16.1464C16.0527 16.2402 16 16.3674 16 16.5V19.5C16 19.6326 16.0527 19.7598 16.1464 19.8536C16.2402 19.9473 16.3674 20 16.5 20H19.5C19.6326 20 19.7598 19.9473 19.8536 19.8536C19.9473 19.7598 20 19.6326 20 19.5V16.5C20 16.3674 19.9473 16.2402 19.8536 16.1464C19.7598 16.0527 19.6326 16 19.5 16Z" fill-rule="evenodd"/>
  </g>
</svg>
