<svg xmlns="http://www.w3.org/2000/svg" width="24" height="24" viewBox="0 0 24 24" fill="currentColor">
  <g fill-rule="nonzero">
    <path d="M2 12.4999V11.4999C2 11.3672 2.05268 11.2401 2.14645 11.1463C2.24021 11.0525 2.36739 10.9999 2.5 10.9999H18.67L14.22 6.55985C14.1731 6.51337 14.1359 6.45807 14.1106 6.39714C14.0852 6.33621 14.0721 6.27086 14.0721 6.20485C14.0721 6.13885 14.0852 6.07349 14.1106 6.01256C14.1359 5.95163 14.1731 5.89633 14.22 5.84985L14.93 5.14985C14.9765 5.10299 15.0318 5.06579 15.0927 5.04041C15.1536 5.01502 15.219 5.00195 15.285 5.00195C15.351 5.00195 15.4164 5.01502 15.4773 5.04041C15.5382 5.06579 15.5935 5.10299 15.64 5.14985L21.78 11.2799C21.9207 11.4204 21.9998 11.611 22 11.8099V12.1899C21.9977 12.3883 21.9189 12.5781 21.78 12.7199L15.64 18.8499C15.5935 18.8967 15.5382 18.9339 15.4773 18.9593C15.4164 18.9847 15.351 18.9978 15.285 18.9978C15.219 18.9978 15.1536 18.9847 15.0927 18.9593C15.0318 18.9339 14.9765 18.8967 14.93 18.8499L14.22 18.1399C14.1734 18.0942 14.1364 18.0398 14.1112 17.9797C14.0859 17.9196 14.0729 17.855 14.0729 17.7899C14.0729 17.7247 14.0859 17.6601 14.1112 17.6C14.1364 17.5399 14.1734 17.4855 14.22 17.4399L18.67 12.9999H2.5C2.36739 12.9999 2.24021 12.9472 2.14645 12.8534C2.05268 12.7596 2 12.6325 2 12.4999Z" fill-rule="evenodd"/>
  </g>
</svg>
