<svg xmlns="http://www.w3.org/2000/svg" width="24" height="24" viewBox="0 0 24 24" fill="currentColor">
  <g fill-rule="nonzero">
    <path d="M17.9997 11V9.00001C17.9991 8.90129 18.0278 8.80462 18.082 8.72216C18.1363 8.6397 18.2138 8.57516 18.3047 8.53666C18.3956 8.49816 18.4959 8.48743 18.5928 8.50582C18.6898 8.52422 18.7792 8.57091 18.8497 8.64001L21.8497 11.64C21.9419 11.7352 21.9935 11.8625 21.9935 11.995C21.9935 12.1275 21.9419 12.2549 21.8497 12.35L18.8497 15.35C18.7798 15.4185 18.6914 15.465 18.5953 15.4838C18.4992 15.5025 18.3998 15.4926 18.3093 15.4553C18.2188 15.4181 18.1412 15.3551 18.0862 15.2741C18.0311 15.1932 18.0011 15.0979 17.9997 15V13H5.9997V15C5.99832 15.0979 5.96826 15.1932 5.91323 15.2741C5.8582 15.3551 5.78062 15.4181 5.69012 15.4553C5.59962 15.4926 5.50017 15.5025 5.40411 15.4838C5.30804 15.465 5.21958 15.4185 5.1497 15.35L2.1497 12.35C2.05745 12.2549 2.00586 12.1275 2.00586 11.995C2.00586 11.8625 2.05745 11.7352 2.1497 11.64L5.1497 8.64001C5.22019 8.57091 5.30957 8.52422 5.40655 8.50582C5.50354 8.48743 5.6038 8.49816 5.6947 8.53666C5.7856 8.57516 5.86307 8.6397 5.91735 8.72216C5.97162 8.80462 6.00028 8.90129 5.9997 9.00001V11H17.9997Z" fill-rule="evenodd"/>
  </g>
</svg>
