<svg xmlns="http://www.w3.org/2000/svg" width="24" height="24" viewBox="0 0 24 24" fill="currentColor">
  <g fill-rule="nonzero">
    <path d="M13.3103 20.2404C12.1764 21.3701 10.641 22.0044 9.04035 22.0044C7.4397 22.0044 5.90428 21.3701 4.77035 20.2404C3.64674 19.1154 3.01563 17.5904 3.01562 16.0004C3.01562 14.4104 3.64674 12.8854 4.77035 11.7604L13.2603 3.32038C14.1126 2.47461 15.2646 2 16.4653 2C17.666 2 18.8181 2.47461 19.6703 3.32038C20.0912 3.73614 20.4254 4.23131 20.6534 4.77719C20.8815 5.32306 20.9989 5.90877 20.9989 6.50038C20.9989 7.09198 20.8815 7.67769 20.6534 8.22357C20.4254 8.76944 20.0912 9.26461 19.6703 9.68038L11.8803 17.4204C11.6013 17.7031 11.2689 17.9275 10.9024 18.0807C10.5359 18.2339 10.1426 18.3128 9.74535 18.3128C9.34811 18.3128 8.95484 18.2339 8.58834 18.0807C8.22183 17.9275 7.88941 17.7031 7.61035 17.4204C7.33067 17.1417 7.10875 16.8105 6.95734 16.4458C6.80592 16.0812 6.72798 15.6902 6.72798 15.2954C6.72798 14.9005 6.80592 14.5096 6.95734 14.1449C7.10875 13.7803 7.33067 13.4491 7.61035 13.1704L12.5503 8.27038C12.5968 8.22351 12.6521 8.18631 12.7131 8.16093C12.774 8.13554 12.8393 8.12248 12.9053 8.12248C12.9714 8.12248 13.0367 8.13554 13.0976 8.16093C13.1586 8.18631 13.2139 8.22351 13.2603 8.27038L13.8003 8.80038C13.8472 8.84686 13.8844 8.90216 13.9098 8.96309C13.9352 9.02402 13.9482 9.08937 13.9482 9.15538C13.9482 9.22138 13.9352 9.28673 13.9098 9.34766C13.8844 9.40859 13.8472 9.46389 13.8003 9.51038L8.86034 14.4104C8.65874 14.6524 8.5551 14.9612 8.56985 15.2758C8.5846 15.5905 8.71666 15.8882 8.94003 16.1103C9.16339 16.3324 9.46184 16.4628 9.77656 16.4757C10.0913 16.4887 10.3995 16.3833 10.6403 16.1804L18.4303 8.45038C18.687 8.19567 18.8908 7.89267 19.0298 7.55885C19.1688 7.22503 19.2404 6.86699 19.2404 6.50538C19.2404 6.14376 19.1688 5.78572 19.0298 5.4519C18.8908 5.11808 18.687 4.81508 18.4303 4.56038C17.9095 4.04254 17.2048 3.75187 16.4703 3.75187C15.7359 3.75187 15.0312 4.04254 14.5103 4.56038L6.00035 13.0004C5.20649 13.797 4.76074 14.8758 4.76074 16.0004C4.76074 17.125 5.20649 18.2038 6.00035 19.0004C6.80797 19.7925 7.89409 20.2363 9.02534 20.2363C10.1566 20.2363 11.2427 19.7925 12.0503 19.0004L17.7003 13.3904C17.7959 13.2951 17.9254 13.2416 18.0603 13.2416C18.1953 13.2416 18.3248 13.2951 18.4203 13.3904L18.9503 13.9204C18.9982 13.9653 19.0363 14.0195 19.0624 14.0797C19.0884 14.1399 19.1019 14.2048 19.1019 14.2704C19.1019 14.336 19.0884 14.4009 19.0624 14.4611C19.0363 14.5213 18.9982 14.5755 18.9503 14.6204L13.3103 20.2404Z" fill-rule="evenodd"/>
  </g>
</svg>
