<svg xmlns="http://www.w3.org/2000/svg" width="24" height="24" viewBox="0 0 24 24" fill="currentColor">
  <g fill-rule="nonzero">
    <path d="M13.06 1.1501L16.6 4.6801C16.6923 4.77525 16.7438 4.90257 16.7438 5.0351C16.7438 5.16762 16.6923 5.29495 16.6 5.3901L13.06 8.9201C13.0135 8.96696 12.9582 9.00416 12.8973 9.02954C12.8364 9.05493 12.771 9.068 12.705 9.068C12.639 9.068 12.5736 9.05493 12.5127 9.02954C12.4518 9.00416 12.3965 8.96696 12.35 8.9201L12.15 8.7201C12.1017 8.67355 12.0634 8.61759 12.0376 8.55566C12.0118 8.49374 11.999 8.42717 12 8.3601V6.0001C10.4087 6.0001 8.88258 6.63224 7.75736 7.75746C6.63214 8.88267 6 10.4088 6 12.0001C5.99815 12.9726 6.23509 13.9306 6.69 14.7901C6.74042 14.885 6.7589 14.9937 6.74269 15.1C6.72647 15.2063 6.67644 15.3045 6.6 15.3801L5.87 16.1101C5.81544 16.1641 5.74918 16.2048 5.67634 16.2291C5.60351 16.2534 5.52606 16.2606 5.45 16.2501C5.37363 16.2385 5.3008 16.2101 5.2368 16.1668C5.1728 16.1236 5.11923 16.0666 5.08 16.0001C4.3782 14.7845 4.00856 13.4057 4.0082 12.0021C4.00784 10.5985 4.37677 9.21956 5.07795 8.00365C5.77912 6.78773 6.78786 5.7777 8.00288 5.07497C9.21789 4.37223 10.5964 4.00154 12 4.0001V1.7101C11.999 1.64302 12.0118 1.57645 12.0376 1.51453C12.0634 1.45261 12.1017 1.39664 12.15 1.3501L12.35 1.1501C12.3965 1.10323 12.4518 1.06604 12.5127 1.04065C12.5736 1.01527 12.639 1.0022 12.705 1.0022C12.771 1.0022 12.8364 1.01527 12.8973 1.04065C12.9582 1.06604 13.0135 1.10323 13.06 1.1501ZM10.94 15.0801L7.4 18.6101C7.30775 18.7052 7.25616 18.8326 7.25616 18.9651C7.25616 19.0976 7.30775 19.2249 7.4 19.3201L10.94 22.8501C10.9865 22.897 11.0418 22.9342 11.1027 22.9595C11.1636 22.9849 11.229 22.998 11.295 22.998C11.361 22.998 11.4264 22.9849 11.4873 22.9595C11.5482 22.9342 11.6035 22.897 11.65 22.8501L11.85 22.6501C11.8983 22.6036 11.9366 22.5476 11.9624 22.4857C11.9882 22.4237 12.001 22.3572 12 22.2901V20.0001C13.4036 19.9987 14.7821 19.628 15.9971 18.9252C17.2121 18.2225 18.2209 17.2125 18.9221 15.9965C19.6232 14.7806 19.9922 13.4016 19.9918 11.998C19.9914 10.5944 19.6218 9.21565 18.92 8.0001C18.8797 7.93542 18.8256 7.8804 18.7617 7.83893C18.6978 7.79745 18.6255 7.77054 18.55 7.7601C18.4739 7.74962 18.3965 7.7568 18.3237 7.78108C18.2508 7.80536 18.1846 7.84608 18.13 7.9001L17.39 8.6401C17.3149 8.71653 17.2658 8.81465 17.2497 8.92056C17.2335 9.02646 17.2511 9.13476 17.3 9.2301C17.7595 10.0811 18 11.033 18 12.0001C18 13.5914 17.3679 15.1175 16.2426 16.2427C15.1174 17.368 13.5913 18.0001 12 18.0001V15.6401C12.001 15.573 11.9882 15.5065 11.9624 15.4445C11.9366 15.3826 11.8983 15.3266 11.85 15.2801L11.65 15.0801C11.6035 15.0332 11.5482 14.996 11.4873 14.9707C11.4264 14.9453 11.361 14.9322 11.295 14.9322C11.229 14.9322 11.1636 14.9453 11.1027 14.9707C11.0418 14.996 10.9865 15.0332 10.94 15.0801Z" fill-rule="evenodd"/>
  </g>
</svg>
