<svg xmlns="http://www.w3.org/2000/svg" width="24" height="24" viewBox="0 0 24 24" fill="currentColor">
  <g fill-rule="nonzero">
    <path d="M7.45 21V19.5H11.25V15.8C10.35 15.6167 9.55 15.2292 8.85 14.6375C8.15 14.0458 7.66667 13.3083 7.4 12.425C6.16667 12.2917 5.125 11.7917 4.275 10.925C3.425 10.0583 3 9.01667 3 7.8V6.7C3 6.28333 3.14583 5.92917 3.4375 5.6375C3.72917 5.34583 4.08333 5.2 4.5 5.2H7.1V3H16.9V5.2H19.5C19.9167 5.2 20.2708 5.34583 20.5625 5.6375C20.8542 5.92917 21 6.28333 21 6.7V7.8C21 9.01667 20.575 10.0583 19.725 10.925C18.875 11.7917 17.8333 12.2917 16.6 12.425C16.3333 13.3083 15.85 14.0458 15.15 14.6375C14.45 15.2292 13.65 15.6167 12.75 15.8V19.5H16.55V21H7.45ZM7.1 10.85V6.7H4.5V7.8C4.5 8.55 4.74583 9.20417 5.2375 9.7625C5.72917 10.3208 6.35 10.6833 7.1 10.85ZM12 14.375C12.95 14.375 13.7542 14.0417 14.4125 13.375C15.0708 12.7083 15.4 11.9 15.4 10.95V4.5H8.6V10.95C8.6 11.9 8.92917 12.7083 9.5875 13.375C10.2458 14.0417 11.05 14.375 12 14.375ZM16.9 10.85C17.65 10.6833 18.2708 10.3208 18.7625 9.7625C19.2542 9.20417 19.5 8.55 19.5 7.8V6.7H16.9V10.85Z" fill-rule="evenodd"/>
  </g>
</svg>
