<svg xmlns="http://www.w3.org/2000/svg" width="24" height="24" viewBox="0 0 24 24" fill="currentColor">
  <g fill-rule="nonzero">
    <path d="M17.17 20.0801C17.2169 20.1265 17.2541 20.1818 17.2794 20.2428C17.3048 20.3037 17.3179 20.369 17.3179 20.4351C17.3179 20.5011 17.3048 20.5664 17.2794 20.6273C17.2541 20.6883 17.2169 20.7436 17.17 20.7901L16.11 21.8501C16.0651 21.8979 16.0109 21.936 15.9507 21.9621C15.8905 21.9881 15.8256 22.0016 15.76 22.0016C15.6944 22.0016 15.6295 21.9881 15.5693 21.9621C15.5091 21.936 15.4549 21.8979 15.41 21.8501L6.22 12.6601C6.07931 12.5195 6.00018 12.3289 6 12.1301V11.8701C6.00018 11.6712 6.07931 11.4806 6.22 11.3401L15.41 2.15005C15.4549 2.10222 15.5091 2.0641 15.5693 2.03804C15.6295 2.01198 15.6944 1.99854 15.76 1.99854C15.8256 1.99854 15.8905 2.01198 15.9507 2.03804C16.0109 2.0641 16.0651 2.10222 16.11 2.15005L17.17 3.21005C17.2169 3.25654 17.2541 3.31184 17.2794 3.37277C17.3048 3.4337 17.3179 3.49905 17.3179 3.56505C17.3179 3.63106 17.3048 3.69641 17.2794 3.75734C17.2541 3.81827 17.2169 3.87357 17.17 3.92005L9.09 12.0001L17.17 20.0801Z" fill-rule="evenodd"/>
  </g>
</svg>
