<svg xmlns="http://www.w3.org/2000/svg" width="24" height="24" viewBox="0 0 24 24" fill="currentColor">
  <g fill-rule="nonzero">
    <path d="M9.25 21V18.75H6V17.25H8.25V6.75H6V5.25H9.25V3H10.75V5.25H13.5V3H15V5.325C15.9 5.50833 16.625 5.95 17.175 6.65C17.725 7.35 18 8.13333 18 9C18 9.46667 17.9083 9.92917 17.725 10.3875C17.5417 10.8458 17.275 11.2583 16.925 11.625C17.575 11.9583 18.0833 12.4292 18.45 13.0375C18.8167 13.6458 19 14.3 19 15C19 16.0333 18.6375 16.9167 17.9125 17.65C17.1875 18.3833 16.3 18.75 15.25 18.75H15V21H13.5V18.75H10.75V21H9.25ZM9.75 11.25H14.25C14.8833 11.25 15.4167 11.0292 15.85 10.5875C16.2833 10.1458 16.5 9.61667 16.5 9C16.5 8.36667 16.2833 7.83333 15.85 7.4C15.4167 6.96667 14.8833 6.75 14.25 6.75H9.75V11.25ZM9.75 17.25H15.25C15.8833 17.25 16.4167 17.0292 16.85 16.5875C17.2833 16.1458 17.5 15.6167 17.5 15C17.5 14.3667 17.2833 13.8333 16.85 13.4C16.4167 12.9667 15.8833 12.75 15.25 12.75H9.75V17.25Z" fill-rule="evenodd"/>
  </g>
</svg>
