<svg xmlns="http://www.w3.org/2000/svg" width="24" height="24" viewBox="0 0 24 24" fill="currentColor">
  <g fill-rule="nonzero">
    <path d="M20.12,7.39,16.61,3.88A3,3,0,0,0,14.49,3h-5a3,3,0,0,0-2.12.88L3.88,7.39A3,3,0,0,0,3,9.51v5a3,3,0,0,0,.88,2.12l3.51,3.51A3,3,0,0,0,9.51,21h5a3,3,0,0,0,2.12-.88l3.51-3.51A3,3,0,0,0,21,14.49v-5A3,3,0,0,0,20.12,7.39ZM5,14.49v-5a1,1,0,0,1,.29-.7L8.81,5.29A1,1,0,0,1,9.51,5h5a1,1,0,0,1,.7.29l1.14,1.14-9.9,9.9L5.29,15.19A1,1,0,0,1,5,14.49Zm14,0a1,1,0,0,1-.29.7l-3.52,3.52a1,1,0,0,1-.7.29h-5a1,1,0,0,1-.7-.29L7.67,17.57l9.9-9.9,1.14,1.14a1,1,0,0,1,.29.7Z" fill-rule="evenodd"/>
  </g>
</svg>
