<svg xmlns="http://www.w3.org/2000/svg" width="24" height="24" viewBox="0 0 24 24" fill="currentColor">
  <g fill-rule="nonzero">
    <path d="M19.5,24c-.41,0-.82-.12-1.17-.36l-6.16-4.15c-.1-.07-.23-.07-.33,0l-6.16,4.15c-.65.43-1.47.48-2.16.11-.69-.37-1.11-1.08-1.11-1.85V2.1c0-1.16.94-2.1,2.1-2.1h15c1.16,0,2.1.94,2.1,2.1v19.8c0,.78-.43,1.49-1.11,1.85-.31.17-.65.25-.99.25ZM12,17.64c.41,0,.82.12,1.17.36l6.16,4.15c.13.09.25.05.31.02.06-.03.16-.11.16-.26V2.1c0-.17-.13-.3-.3-.3H4.5c-.17,0-.3.13-.3.3v19.8c0,.16.1.23.16.26.06.03.18.07.31-.02l6.16-4.15c.36-.24.76-.36,1.17-.36Z" fill-rule="evenodd"/>
  </g>
</svg>
