<svg xmlns="http://www.w3.org/2000/svg" width="24" height="24" viewBox="0 0 24 24" fill="currentColor">
  <g fill-rule="nonzero">
    <path d="M3.9,10.67c0-.49.4-.89.9-.89h4.8c.5,0,.9.4.9.89s-.4.89-.9.89h-4.8c-.5,0-.9-.4-.9-.89Z" fill-rule="evenodd"/>
    <path d="M0,1.97C0,.88.89,0,2,0h18.85c1.1,0,2,.88,2,1.97v2.83c0,.47-.38.85-.86.85s-.86-.38-.86-.85V1.97c0-.16-.13-.28-.29-.28H2c-.16,0-.29.13-.29.28v14.11c0,.16.13.28.29.28h7.43c.47,0,.86.38.86.85s-.38.85-.86.85H2c-1.1,0-2-.88-2-1.97V1.97ZM18.28,7.91c.47,0,.86.38.86.85,0,1.57.35,2.5.91,3.05s1.51.9,3.09.9c.47,0,.86.38.86.85s-.38.85-.86.85c-1.58,0-2.53.35-3.09.9-.56.56-.91,1.49-.91,3.05,0,.47-.38.85-.86.85s-.86-.38-.86-.85c0-1.57-.35-2.5-.91-3.05-.56-.56-1.51-.9-3.09-.9-.47,0-.86-.38-.86-.85s.38-.85.86-.85c1.58,0,2.53-.35,3.09-.9.56-.56.91-1.49.91-3.05,0-.47.38-.85.86-.85Z" fill-rule="evenodd"/>
    <path d="M3.9,5.93c0-.49.4-.89.9-.89h12c.5,0,.9.4.9.89s-.4.89-.9.89H4.8c-.5,0-.9-.4-.9-.89Z" fill-rule="evenodd"/>
  </g>
</svg>
