<svg xmlns="http://www.w3.org/2000/svg" width="24" height="24" viewBox="0 0 24 24" fill="currentColor">
  <g fill-rule="nonzero">
    <path d="M12.0001 19.2L6 19.2L6 4.8L12.0001 4.8L12.0001 19.2ZM20 19.2L20 4.8C20 4.32261 19.7893 3.86477 19.4142 3.52721C19.0391 3.18964 18.5304 3 18 3L6 3C5.46957 3 4.96086 3.18964 4.58579 3.52721C4.21072 3.86477 4 4.32261 4 4.8L4 19.2C4 19.6774 4.21071 20.1352 4.58579 20.4728C4.96086 20.8104 5.46957 21 6 21L18 21C18.5304 21 19.0391 20.8104 19.4142 20.4728C19.7893 20.1352 20 19.6774 20 19.2Z" fill-rule="evenodd"/>
  </g>
</svg>
