<svg xmlns="http://www.w3.org/2000/svg" width="24" height="24" viewBox="0 0 24 24" fill="currentColor">
  <g fill-rule="nonzero">
    <path d="M20 4C20 3.46957 19.7893 2.96086 19.4142 2.58579C19.0391 2.21071 18.5304 2 18 2H6C5.46957 2 4.96086 2.21071 4.58579 2.58579C4.21071 2.96086 4 3.46957 4 4V20C4 20.5304 4.21071 21.0391 4.58579 21.4142C4.96086 21.7893 5.46957 22 6 22H18C18.5304 22 19.0391 21.7893 19.4142 21.4142C19.7893 21.0391 20 20.5304 20 20V4ZM9 18.5C9 18.6326 8.94732 18.7598 8.85355 18.8536C8.75979 18.9473 8.63261 19 8.5 19H7.5C7.36739 19 7.24021 18.9473 7.14645 18.8536C7.05268 18.7598 7 18.6326 7 18.5V17.5C7 17.3674 7.05268 17.2402 7.14645 17.1464C7.24021 17.0527 7.36739 17 7.5 17H8.5C8.63261 17 8.75979 17.0527 8.85355 17.1464C8.94732 17.2402 9 17.3674 9 17.5V18.5ZM9 14.5C9 14.6326 8.94732 14.7598 8.85355 14.8536C8.75979 14.9473 8.63261 15 8.5 15H7.5C7.36739 15 7.24021 14.9473 7.14645 14.8536C7.05268 14.7598 7 14.6326 7 14.5V13.5C7 13.3674 7.05268 13.2402 7.14645 13.1464C7.24021 13.0527 7.36739 13 7.5 13H8.5C8.63261 13 8.75979 13.0527 8.85355 13.1464C8.94732 13.2402 9 13.3674 9 13.5V14.5ZM9 10.5C9 10.6326 8.94732 10.7598 8.85355 10.8536C8.75979 10.9473 8.63261 11 8.5 11H7.5C7.36739 11 7.24021 10.9473 7.14645 10.8536C7.05268 10.7598 7 10.6326 7 10.5V9.5C7 9.36739 7.05268 9.24021 7.14645 9.14645C7.24021 9.05268 7.36739 9 7.5 9H8.5C8.63261 9 8.75979 9.05268 8.85355 9.14645C8.94732 9.24021 9 9.36739 9 9.5V10.5ZM13 18.5C13 18.6326 12.9473 18.7598 12.8536 18.8536C12.7598 18.9473 12.6326 19 12.5 19H11.5C11.3674 19 11.2402 18.9473 11.1464 18.8536C11.0527 18.7598 11 18.6326 11 18.5V17.5C11 17.3674 11.0527 17.2402 11.1464 17.1464C11.2402 17.0527 11.3674 17 11.5 17H12.5C12.6326 17 12.7598 17.0527 12.8536 17.1464C12.9473 17.2402 13 17.3674 13 17.5V18.5ZM13 14.5C13 14.6326 12.9473 14.7598 12.8536 14.8536C12.7598 14.9473 12.6326 15 12.5 15H11.5C11.3674 15 11.2402 14.9473 11.1464 14.8536C11.0527 14.7598 11 14.6326 11 14.5V13.5C11 13.3674 11.0527 13.2402 11.1464 13.1464C11.2402 13.0527 11.3674 13 11.5 13H12.5C12.6326 13 12.7598 13.0527 12.8536 13.1464C12.9473 13.2402 13 13.3674 13 13.5V14.5ZM13 10.5C13 10.6326 12.9473 10.7598 12.8536 10.8536C12.7598 10.9473 12.6326 11 12.5 11H11.5C11.3674 11 11.2402 10.9473 11.1464 10.8536C11.0527 10.7598 11 10.6326 11 10.5V9.5C11 9.36739 11.0527 9.24021 11.1464 9.14645C11.2402 9.05268 11.3674 9 11.5 9H12.5C12.6326 9 12.7598 9.05268 12.8536 9.14645C12.9473 9.24021 13 9.36739 13 9.5V10.5ZM17 18.5C17 18.6326 16.9473 18.7598 16.8536 18.8536C16.7598 18.9473 16.6326 19 16.5 19H15.5C15.3674 19 15.2402 18.9473 15.1464 18.8536C15.0527 18.7598 15 18.6326 15 18.5V13.5C15 13.3674 15.0527 13.2402 15.1464 13.1464C15.2402 13.0527 15.3674 13 15.5 13H16.5C16.6326 13 16.7598 13.0527 16.8536 13.1464C16.9473 13.2402 17 13.3674 17 13.5V18.5ZM17 10.5C17 10.6326 16.9473 10.7598 16.8536 10.8536C16.7598 10.9473 16.6326 11 16.5 11H15.5C15.3674 11 15.2402 10.9473 15.1464 10.8536C15.0527 10.7598 15 10.6326 15 10.5V9.5C15 9.36739 15.0527 9.24021 15.1464 9.14645C15.2402 9.05268 15.3674 9 15.5 9H16.5C16.6326 9 16.7598 9.05268 16.8536 9.14645C16.9473 9.24021 17 9.36739 17 9.5V10.5ZM17 6.5C17 6.63261 16.9473 6.75979 16.8536 6.85355C16.7598 6.94732 16.6326 7 16.5 7H7.5C7.36739 7 7.24021 6.94732 7.14645 6.85355C7.05268 6.75979 7 6.63261 7 6.5V4.5C7 4.36739 7.05268 4.24021 7.14645 4.14645C7.24021 4.05268 7.36739 4 7.5 4H16.5C16.6326 4 16.7598 4.05268 16.8536 4.14645C16.9473 4.24021 17 4.36739 17 4.5V6.5Z" fill-rule="evenodd"/>
  </g>
</svg>
