<svg xmlns="http://www.w3.org/2000/svg" width="24" height="24" viewBox="0 0 24 24" fill="currentColor">
  <g fill-rule="nonzero">
    <path d="M3.5 17.075V19.5H20.5V17.075H3.5ZM7.325 6V3.5C7.325 3.1 7.475 2.75 7.775 2.45C8.075 2.15 8.425 2 8.825 2H15.15C15.55 2 15.9 2.15 16.2 2.45C16.5 2.75 16.65 3.1 16.65 3.5V6H20.5C20.9 6 21.25 6.15 21.55 6.45C21.85 6.75 22 7.1 22 7.5V19.5C22 19.9 21.85 20.25 21.55 20.55C21.25 20.85 20.9 21 20.5 21H3.5C3.1 21 2.75 20.85 2.45 20.55C2.15 20.25 2 19.9 2 19.5V7.5C2 7.1 2.15 6.75 2.45 6.45C2.75 6.15 3.1 6 3.5 6H7.325ZM3.5 14.375H20.5V7.5H16.65V9.375H15.15V7.5H8.825V9.375H7.325V7.5H3.5V14.375ZM8.825 6H15.15V3.5H8.825V6Z" fill-rule="evenodd"/>
  </g>
</svg>
