<svg xmlns="http://www.w3.org/2000/svg" width="24" height="24" viewBox="0 0 24 24" fill="currentColor">
  <g fill-rule="nonzero">
    <path d="M15 16C16.0609 16 17.0783 15.5786 17.8284 14.8284C18.5786 14.0783 19 13.0609 19 12V6C19 4.93913 18.5786 3.92172 17.8284 3.17157C17.0783 2.42143 16.0609 2 15 2H5.00001C3.93914 2 2.92173 2.42143 2.17158 3.17157C1.42144 3.92172 1.00001 4.93913 1.00001 6V18.5C1.00001 18.6326 1.05269 18.7598 1.14645 18.8536C1.24022 18.9473 1.3674 19 1.50001 19C1.5654 18.9996 1.63006 18.9862 1.69017 18.9604C1.75028 18.9346 1.80463 18.8971 1.85001 18.85L3.85001 16.85C4.13434 16.5732 4.47078 16.3555 4.83984 16.2096C5.20889 16.0637 5.60323 15.9924 6.00001 16H15ZM21 6V14C21 15.0609 20.5786 16.0783 19.8284 16.8284C19.0783 17.5786 18.0609 18 17 18H5.00001C5.00001 18.5304 5.21072 19.0391 5.58579 19.4142C5.96087 19.7893 6.46957 20 7.00001 20H18C18.3955 19.999 18.7873 20.0763 19.1529 20.2273C19.5184 20.3783 19.8505 20.6001 20.13 20.88L22.13 22.88C22.1754 22.9271 22.2297 22.9646 22.2898 22.9904C22.35 23.0162 22.4146 23.0296 22.48 23.03C22.6126 23.03 22.7398 22.9773 22.8336 22.8836C22.9273 22.7898 22.98 22.6626 22.98 22.53V8C22.98 7.47301 22.7721 6.96731 22.4013 6.59281C22.0306 6.21831 21.527 6.00527 21 6Z" fill-rule="evenodd"/>
  </g>
</svg>
