<svg xmlns="http://www.w3.org/2000/svg" width="24" height="24" viewBox="0 0 24 24" fill="currentColor">
  <g fill-rule="nonzero">
    <path d="M15.78 11.28C15.9207 11.4205 15.9999 11.6112 16 11.81V12.19C15.9978 12.3884 15.9189 12.5783 15.78 12.72L10.64 17.85C10.5935 17.8968 10.5383 17.934 10.4773 17.9595C10.4164 17.9848 10.351 17.9979 10.285 17.9979C10.219 17.9979 10.1537 17.9848 10.0927 17.9595C10.0318 17.934 9.97652 17.8968 9.93004 17.85L9.22004 17.14C9.17347 17.0944 9.13648 17.04 9.11123 16.9798C9.08597 16.9197 9.07297 16.8552 9.07297 16.79C9.07297 16.7249 9.08597 16.6604 9.11123 16.6002C9.13648 16.5401 9.17347 16.4856 9.22004 16.44L13.67 12L9.22004 7.56C9.17317 7.51353 9.13597 7.45822 9.11059 7.39729C9.08521 7.33636 9.07214 7.27101 9.07214 7.20501C9.07214 7.13899 9.08521 7.07364 9.11059 7.01271C9.13597 6.95178 9.17317 6.89649 9.22004 6.85L9.93004 6.15C9.97652 6.10314 10.0318 6.06594 10.0927 6.04056C10.1537 6.01518 10.219 6.0021 10.285 6.0021C10.351 6.0021 10.4164 6.01518 10.4773 6.04056C10.5383 6.06594 10.5935 6.10314 10.64 6.15L15.78 11.28Z" fill-rule="evenodd"/>
  </g>
</svg>
