<svg xmlns="http://www.w3.org/2000/svg" width="24" height="24" viewBox="0 0 24 24" fill="currentColor">
  <g fill-rule="nonzero">
    <path d="M12 2a10 10 0 1 0 10 10A10 10 0 0 0 12 2Zm0 18a8 8 0 1 1 8-8 8 8 0 0 1-8 8Zm3.09-10.56-.53-.53a.48.48 0 0 0-.7 0L12 10.76l-1.86-1.85a.48.48 0 0 0-.7 0l-.53.53a.48.48 0 0 0 0 .7L10.76 12l-1.85 1.86a.48.48 0 0 0 0 .7l.53.53a.48.48 0 0 0 .7 0L12 13.24l1.86 1.85a.48.48 0 0 0 .7 0l.53-.53a.48.48 0 0 0 0-.7L13.24 12l1.85-1.86a.48.48 0 0 0 0-.7Z" fill-rule="evenodd"/>
  </g>
</svg>
