<svg xmlns="http://www.w3.org/2000/svg" width="24" height="24" viewBox="0 0 24 24" fill="currentColor">
  <g fill-rule="nonzero">
    <path d="M5.49931 18.6493C5.57685 18.7535 5.61082 18.8837 5.59403 19.0125C5.57723 19.1413 5.51098 19.2585 5.40931 19.3393L4.83931 19.7993C4.67802 19.9296 4.47667 20.0003 4.26931 19.9993C4.18928 19.9989 4.11047 19.9797 4.03924 19.9432C3.96802 19.9068 3.90638 19.854 3.85931 19.7893C2.96858 18.5366 2.37676 17.0964 2.12931 15.5793C2.11788 15.5079 2.12275 15.4348 2.14352 15.3656C2.1643 15.2963 2.20046 15.2326 2.24931 15.1793C2.29378 15.1213 2.35145 15.0747 2.41754 15.0433C2.48362 15.012 2.55622 14.9969 2.62931 14.9993H3.62931C3.74599 14.9997 3.85884 15.041 3.94833 15.1158C4.03782 15.1907 4.0983 15.2945 4.11931 15.4093C4.32698 16.5802 4.79894 17.6883 5.49931 18.6493ZM2.61931 12.9993H3.61931C3.73652 13.0009 3.85041 12.9604 3.94032 12.8851C4.03022 12.8099 4.09018 12.705 4.10931 12.5893C4.40605 10.9827 5.18346 9.50399 6.33872 8.34872C7.49399 7.19346 8.97269 6.41605 10.5793 6.11931C10.6968 6.10235 10.8041 6.04334 10.8814 5.95322C10.9586 5.86309 11.0005 5.748 10.9993 5.62931V4.62931C11.0017 4.55622 10.9866 4.48362 10.9553 4.41754C10.924 4.35145 10.8774 4.29378 10.8193 4.24931C10.766 4.20046 10.7023 4.1643 10.633 4.14352C10.5638 4.12275 10.4907 4.11788 10.4193 4.12931C8.33757 4.46136 6.41402 5.44279 4.9234 6.9334C3.43279 8.42402 2.45136 10.3476 2.11931 12.4293C2.10788 12.5007 2.11275 12.5738 2.13352 12.643C2.1543 12.7123 2.19046 12.776 2.23931 12.8293C2.28482 12.8855 2.34295 12.9302 2.40897 12.9598C2.475 12.9893 2.54706 13.0028 2.61931 12.9993ZM10.9993 9.49931C10.9993 9.63191 11.052 9.75909 11.1458 9.85286C11.2395 9.94663 11.3667 9.99931 11.4993 9.99931H12.4993C12.6319 9.99931 12.7591 9.94663 12.8529 9.85286C12.9466 9.75909 12.9993 9.63191 12.9993 9.49931V8.49931C12.9993 8.3667 12.9466 8.23952 12.8529 8.14575C12.7591 8.05198 12.6319 7.99931 12.4993 7.99931H11.4993C11.3667 7.99931 11.2395 8.05198 11.1458 8.14575C11.052 8.23952 10.9993 8.3667 10.9993 8.49931V9.49931ZM7.49931 12.9993H6.49931C6.3667 12.9993 6.23952 13.052 6.14575 13.1458C6.05198 13.2395 5.99931 13.3667 5.99931 13.4993V14.4993C5.99931 14.6319 6.05198 14.7591 6.14575 14.8529C6.23952 14.9466 6.3667 14.9993 6.49931 14.9993H7.49931C7.63191 14.9993 7.75909 14.9466 7.85286 14.8529C7.94663 14.7591 7.99931 14.6319 7.99931 14.4993V13.4993C7.99931 13.3667 7.94663 13.2395 7.85286 13.1458C7.75909 13.052 7.63191 12.9993 7.49931 12.9993ZM13.5793 4.11931C13.5079 4.10788 13.4348 4.11275 13.3656 4.13352C13.2963 4.1543 13.2326 4.19046 13.1793 4.23931C13.1213 4.28378 13.0747 4.34145 13.0433 4.40754C13.012 4.47362 12.9969 4.54622 12.9993 4.61931V5.61931C12.9977 5.73652 13.0382 5.85041 13.1135 5.94032C13.1887 6.03022 13.2937 6.09018 13.4093 6.10931C14.7396 6.34732 15.9878 6.91843 17.0377 7.76936C18.0875 8.62029 18.9047 9.72329 19.4129 10.9754C19.9212 12.2276 20.1039 13.5881 19.9442 14.93C19.7844 16.2719 19.2873 17.5515 18.4993 18.6493C18.4218 18.7535 18.3878 18.8837 18.4046 19.0125C18.4214 19.1413 18.4876 19.2585 18.5893 19.3393L19.1593 19.7993C19.3206 19.9296 19.5219 20.0003 19.7293 19.9993C19.8093 19.9989 19.8881 19.9797 19.9594 19.9432C20.0306 19.9068 20.0922 19.854 20.1393 19.7893C21.1251 18.4037 21.7412 16.7896 21.9295 15.0995C22.1178 13.4095 21.8719 11.6993 21.2153 10.1307C20.5586 8.56215 19.5128 7.18693 18.1767 6.13505C16.8405 5.08318 15.2582 4.3894 13.5793 4.11931ZM17.4993 12.9993H16.4993C16.3667 12.9993 16.2395 13.052 16.1458 13.1458C16.052 13.2395 15.9993 13.3667 15.9993 13.4993V14.4993C15.9993 14.6319 16.052 14.7591 16.1458 14.8529C16.2395 14.9466 16.3667 14.9993 16.4993 14.9993H17.4993C17.6319 14.9993 17.7591 14.9466 17.8529 14.8529C17.9466 14.7591 17.9993 14.6319 17.9993 14.4993V13.4993C17.9993 13.3667 17.9466 13.2395 17.8529 13.1458C17.7591 13.052 17.6319 12.9993 17.4993 12.9993ZM16.4493 9.99931L15.9993 9.54931C15.9085 9.46424 15.7887 9.4169 15.6643 9.4169C15.5399 9.4169 15.4201 9.46424 15.3293 9.54931L10.3293 13.6793C10.2216 13.7681 10.1337 13.8784 10.0712 14.0031C10.0087 14.1279 9.97296 14.2644 9.96637 14.4038C9.95977 14.5432 9.98243 14.6824 10.0329 14.8126C10.0833 14.9427 10.1605 15.0608 10.2593 15.1593L10.8293 15.7293C10.9278 15.8281 11.0459 15.9053 11.1761 15.9557C11.3062 16.0062 11.4454 16.0288 11.5848 16.0222C11.7242 16.0156 11.8607 15.98 11.9855 15.9174C12.1102 15.8549 12.2206 15.767 12.3093 15.6593L16.4393 10.6593C16.5229 10.5703 16.5703 10.4533 16.5721 10.3312C16.574 10.2092 16.5302 10.0908 16.4493 9.99931Z" fill-rule="evenodd"/>
  </g>
</svg>
