<svg xmlns="http://www.w3.org/2000/svg" width="24" height="24" viewBox="0 0 24 24" fill="currentColor">
  <g fill-rule="nonzero">
    <path d="M22 11.8102V12.1902C21.9977 12.3886 21.9189 12.5785 21.78 12.7202L17.64 16.8502C17.5935 16.897 17.5382 16.9342 17.4773 16.9596C17.4164 16.985 17.351 16.9981 17.285 16.9981C17.219 16.9981 17.1536 16.985 17.0927 16.9596C17.0318 16.9342 16.9765 16.897 16.93 16.8502L16.22 16.1402C16.1734 16.0946 16.1364 16.0401 16.1112 15.98C16.0859 15.9199 16.0729 15.8554 16.0729 15.7902C16.0729 15.725 16.0859 15.6605 16.1112 15.6004C16.1364 15.5403 16.1734 15.4858 16.22 15.4402L19.67 12.0002L16.22 8.56018C16.1731 8.5137 16.1359 8.4584 16.1106 8.39747C16.0852 8.33654 16.0721 8.27119 16.0721 8.20518C16.0721 8.13917 16.0852 8.07382 16.1106 8.01289C16.1359 7.95196 16.1731 7.89666 16.22 7.85018L16.93 7.15018C16.9765 7.10332 17.0318 7.06612 17.0927 7.04073C17.1536 7.01535 17.219 7.00228 17.285 7.00228C17.351 7.00228 17.4164 7.01535 17.4773 7.04073C17.5382 7.06612 17.5935 7.10332 17.64 7.15018L21.78 11.2802C21.9207 11.4207 21.9998 11.6113 22 11.8102ZM4.33 12.0002L7.77 8.56018C7.81656 8.51456 7.85356 8.4601 7.87881 8.4C7.90406 8.3399 7.91707 8.27537 7.91707 8.21018C7.91707 8.14499 7.90406 8.08046 7.87881 8.02036C7.85356 7.96026 7.81656 7.9058 7.77 7.86018L7.06 7.15018C7.01352 7.10332 6.95822 7.06612 6.89729 7.04073C6.83636 7.01535 6.77101 7.00228 6.705 7.00228C6.63899 7.00228 6.57364 7.01535 6.51271 7.04073C6.45178 7.06612 6.39648 7.10332 6.35 7.15018L2.22 11.2802C2.08112 11.4219 2.0023 11.6118 2 11.8102V12.1902C2.00018 12.389 2.07931 12.5797 2.22 12.7202L6.36 16.8502C6.40648 16.897 6.46178 16.9342 6.52271 16.9596C6.58364 16.985 6.64899 16.9981 6.715 16.9981C6.78101 16.9981 6.84636 16.985 6.90729 16.9596C6.96822 16.9342 7.02352 16.897 7.07 16.8502L7.78 16.1502C7.82686 16.1037 7.86406 16.0484 7.88945 15.9875C7.91483 15.9265 7.9279 15.8612 7.9279 15.7952C7.9279 15.7292 7.91483 15.6638 7.88945 15.6029C7.86406 15.542 7.82686 15.4867 7.78 15.4402L4.33 12.0002ZM15.33 4.37018L14.36 4.00018C14.2338 3.95742 14.0961 3.9647 13.9752 4.02052C13.8542 4.07634 13.7593 4.17644 13.71 4.30018L8.4 19.0002C8.35497 19.1248 8.36127 19.2623 8.41753 19.3823C8.47378 19.5023 8.57538 19.595 8.7 19.6402L9.64 19.9802C9.76477 20.0225 9.90109 20.015 10.0204 19.959C10.1397 19.9031 10.2327 19.8032 10.28 19.6802L15.59 5.00018C15.632 4.87678 15.6241 4.74187 15.5681 4.6242C15.512 4.50652 15.4123 4.41537 15.29 4.37018H15.33Z" fill-rule="evenodd"/>
  </g>
</svg>
