<svg xmlns="http://www.w3.org/2000/svg" width="24" height="24" viewBox="0 0 24 24" fill="currentColor">
  <g fill-rule="nonzero">
    <path d="M20 6V18H15V6H20ZM20 4H15C14.4696 4 13.9609 4.21071 13.5858 4.58579C13.2107 4.96086 13 5.46957 13 6V18C13 18.5304 13.2107 19.0391 13.5858 19.4142C13.9609 19.7893 14.4696 20 15 20H20C20.5304 20 21.0391 19.7893 21.4142 19.4142C21.7893 19.0391 22 18.5304 22 18V6C22 5.46957 21.7893 4.96086 21.4142 4.58579C21.0391 4.21071 20.5304 4 20 4ZM9 6V18H4V6H9ZM9 4H4C3.46957 4 2.96086 4.21071 2.58579 4.58579C2.21071 4.96086 2 5.46957 2 6V18C2 18.5304 2.21071 19.0391 2.58579 19.4142C2.96086 19.7893 3.46957 20 4 20H9C9.53043 20 10.0391 19.7893 10.4142 19.4142C10.7893 19.0391 11 18.5304 11 18V6C11 5.46957 10.7893 4.96086 10.4142 4.58579C10.0391 4.21071 9.53043 4 9 4Z" fill-rule="evenodd"/>
  </g>
</svg>
