<svg xmlns="http://www.w3.org/2000/svg" width="24" height="24" viewBox="0 0 24 24" fill="currentColor">
  <g fill-rule="nonzero">
    <path d="M22.5 19H19V4C19 3.73478 18.8946 3.48043 18.7071 3.29289C18.5196 3.10536 18.2652 3 18 3H6C5.73478 3 5.48043 3.10536 5.29289 3.29289C5.10536 3.48043 5 3.73478 5 4V19H1.5C1.36739 19 1.24021 19.0527 1.14645 19.1464C1.05268 19.2402 1 19.3674 1 19.5V20.5C1 20.6326 1.05268 20.7598 1.14645 20.8536C1.24021 20.9473 1.36739 21 1.5 21H22.5C22.6326 21 22.7598 20.9473 22.8536 20.8536C22.9473 20.7598 23 20.6326 23 20.5V19.5C23 19.3674 22.9473 19.2402 22.8536 19.1464C22.7598 19.0527 22.6326 19 22.5 19ZM16.5 11H15.5C15.3674 11 15.2402 10.9473 15.1464 10.8536C15.0527 10.7598 15 10.6326 15 10.5V9.5C15 9.36739 15.0527 9.24021 15.1464 9.14645C15.2402 9.05268 15.3674 9 15.5 9H16.5C16.6326 9 16.7598 9.05268 16.8536 9.14645C16.9473 9.24021 17 9.36739 17 9.5V10.5C17 10.6326 16.9473 10.7598 16.8536 10.8536C16.7598 10.9473 16.6326 11 16.5 11ZM8.5 11H7.5C7.36739 11 7.24021 10.9473 7.14645 10.8536C7.05268 10.7598 7 10.6326 7 10.5V9.5C7 9.36739 7.05268 9.24021 7.14645 9.14645C7.24021 9.05268 7.36739 9 7.5 9H8.5C8.63261 9 8.75979 9.05268 8.85355 9.14645C8.94732 9.24021 9 9.36739 9 9.5V10.5C9 10.6326 8.94732 10.7598 8.85355 10.8536C8.75979 10.9473 8.63261 11 8.5 11ZM9 13.5V14.5C9 14.6326 8.94732 14.7598 8.85355 14.8536C8.75979 14.9473 8.63261 15 8.5 15H7.5C7.36739 15 7.24021 14.9473 7.14645 14.8536C7.05268 14.7598 7 14.6326 7 14.5V13.5C7 13.3674 7.05268 13.2402 7.14645 13.1464C7.24021 13.0527 7.36739 13 7.5 13H8.5C8.63261 13 8.75979 13.0527 8.85355 13.1464C8.94732 13.2402 9 13.3674 9 13.5ZM15.5 13H16.5C16.6326 13 16.7598 13.0527 16.8536 13.1464C16.9473 13.2402 17 13.3674 17 13.5V14.5C17 14.6326 16.9473 14.7598 16.8536 14.8536C16.7598 14.9473 16.6326 15 16.5 15H15.5C15.3674 15 15.2402 14.9473 15.1464 14.8536C15.0527 14.7598 15 14.6326 15 14.5V13.5C15 13.3674 15.0527 13.2402 15.1464 13.1464C15.2402 13.0527 15.3674 13 15.5 13ZM16.5 7H15.5C15.3674 7 15.2402 6.94732 15.1464 6.85355C15.0527 6.75979 15 6.63261 15 6.5V5.5C15 5.36739 15.0527 5.24021 15.1464 5.14645C15.2402 5.05268 15.3674 5 15.5 5H16.5C16.6326 5 16.7598 5.05268 16.8536 5.14645C16.9473 5.24021 17 5.36739 17 5.5V6.5C17 6.63261 16.9473 6.75979 16.8536 6.85355C16.7598 6.94732 16.6326 7 16.5 7ZM9 5.5V6.5C9 6.63261 8.94732 6.75979 8.85355 6.85355C8.75979 6.94732 8.63261 7 8.5 7H7.5C7.36739 7 7.24021 6.94732 7.14645 6.85355C7.05268 6.75979 7 6.63261 7 6.5V5.5C7 5.36739 7.05268 5.24021 7.14645 5.14645C7.24021 5.05268 7.36739 5 7.5 5H8.5C8.63261 5 8.75979 5.05268 8.85355 5.14645C8.94732 5.24021 9 5.36739 9 5.5ZM7.5 17H16.5C16.6326 17 16.7598 17.0527 16.8536 17.1464C16.9473 17.2402 17 17.3674 17 17.5V19H7V17.5C7 17.3674 7.05268 17.2402 7.14645 17.1464C7.24021 17.0527 7.36739 17 7.5 17ZM12.5 11H11.5C11.3674 11 11.2402 10.9473 11.1464 10.8536C11.0527 10.7598 11 10.6326 11 10.5V9.5C11 9.36739 11.0527 9.24021 11.1464 9.14645C11.2402 9.05268 11.3674 9 11.5 9H12.5C12.6326 9 12.7598 9.05268 12.8536 9.14645C12.9473 9.24021 13 9.36739 13 9.5V10.5C13 10.6326 12.9473 10.7598 12.8536 10.8536C12.7598 10.9473 12.6326 11 12.5 11ZM11.5 13H12.5C12.6326 13 12.7598 13.0527 12.8536 13.1464C12.9473 13.2402 13 13.3674 13 13.5V14.5C13 14.6326 12.9473 14.7598 12.8536 14.8536C12.7598 14.9473 12.6326 15 12.5 15H11.5C11.3674 15 11.2402 14.9473 11.1464 14.8536C11.0527 14.7598 11 14.6326 11 14.5V13.5C11 13.3674 11.0527 13.2402 11.1464 13.1464C11.2402 13.0527 11.3674 13 11.5 13ZM12.5 7H11.5C11.3674 7 11.2402 6.94732 11.1464 6.85355C11.0527 6.75979 11 6.63261 11 6.5V5.5C11 5.36739 11.0527 5.24021 11.1464 5.14645C11.2402 5.05268 11.3674 5 11.5 5H12.5C12.6326 5 12.7598 5.05268 12.8536 5.14645C12.9473 5.24021 13 5.36739 13 5.5V6.5C13 6.63261 12.9473 6.75979 12.8536 6.85355C12.7598 6.94732 12.6326 7 12.5 7Z" fill-rule="evenodd"/>
  </g>
</svg>
