<svg xmlns="http://www.w3.org/2000/svg" width="24" height="24" viewBox="0 0 24 24" fill="currentColor">
  <g fill-rule="nonzero">
    <path d="M20 4H4C3.46957 4 2.96086 4.21071 2.58579 4.58579C2.21071 4.96086 2 5.46957 2 6V18C2 18.5304 2.21071 19.0391 2.58579 19.4142C2.96086 19.7893 3.46957 20 4 20H20C20.5304 20 21.0391 19.7893 21.4142 19.4142C21.7893 19.0391 22 18.5304 22 18V6C22 5.46957 21.7893 4.96086 21.4142 4.58579C21.0391 4.21071 20.5304 4 20 4ZM12 6.75C12.445 6.75 12.88 6.88196 13.25 7.12919C13.62 7.37643 13.9084 7.72783 14.0787 8.13896C14.249 8.5501 14.2936 9.0025 14.2068 9.43895C14.12 9.87541 13.9057 10.2763 13.591 10.591C13.2763 10.9057 12.8754 11.12 12.439 11.2068C12.0025 11.2936 11.5501 11.249 11.139 11.0787C10.7278 10.9084 10.3764 10.62 10.1292 10.25C9.88196 9.88002 9.75 9.44501 9.75 9C9.74868 8.70415 9.80597 8.41098 9.91858 8.1374C10.0312 7.86382 10.1969 7.61525 10.4061 7.40606C10.6153 7.19686 10.8638 7.03118 11.1374 6.91857C11.411 6.80597 11.7042 6.74868 12 6.75ZM16.25 17H7.75C7.6216 17.0003 7.49528 16.9675 7.38314 16.905C7.271 16.8424 7.1768 16.7521 7.10956 16.6427C7.04232 16.5334 7.00429 16.4085 6.99911 16.2802C6.99394 16.1519 7.02179 16.0245 7.08 15.91L8 14.1C8.16543 13.7717 8.41815 13.4953 8.73041 13.3012C9.04266 13.1072 9.40237 13.003 9.77 13H14.23C14.5976 13.003 14.9573 13.1072 15.2696 13.3012C15.5818 13.4953 15.8346 13.7717 16 14.1L16.9 15.91C16.9575 16.023 16.9854 16.1486 16.9812 16.2753C16.977 16.402 16.9407 16.5255 16.8758 16.6344C16.8109 16.7432 16.7194 16.8338 16.61 16.8978C16.5006 16.9617 16.3767 16.9969 16.25 17ZM20 1C20 0.734784 19.8946 0.48043 19.7071 0.292893C19.5196 0.105357 19.2652 0 19 0L5 0C4.73478 0 4.48043 0.105357 4.29289 0.292893C4.10536 0.48043 4 0.734784 4 1V2H20V1ZM4 23C4 23.2652 4.10536 23.5196 4.29289 23.7071C4.48043 23.8946 4.73478 24 5 24H19C19.2652 24 19.5196 23.8946 19.7071 23.7071C19.8946 23.5196 20 23.2652 20 23V22H4V23Z" fill-rule="evenodd"/>
  </g>
</svg>
