<svg xmlns="http://www.w3.org/2000/svg" width="24" height="24" viewBox="0 0 24 24" fill="currentColor">
  <g fill-rule="nonzero">
    <path d="M17 3H3C2.46957 3 1.96086 3.21071 1.58579 3.58579C1.21071 3.96086 1 4.46957 1 5V16C1 16.5304 1.21071 17.0391 1.58579 17.4142C1.96086 17.7893 2.46957 18 3 18H17C17.5304 18 18.0391 17.7893 18.4142 17.4142C18.7893 17.0391 19 16.5304 19 16V5C19 4.46957 18.7893 3.96086 18.4142 3.58579C18.0391 3.21071 17.5304 3 17 3ZM17 5V8H3V5H17ZM3 16V11H17V16H3ZM21 7V18C21 18.5304 20.7893 19.0391 20.4142 19.4142C20.0391 19.7893 19.5304 20 19 20H5C5 20.5304 5.21071 21.0391 5.58579 21.4142C5.96086 21.7893 6.46957 22 7 22H19C20.0609 22 21.0783 21.5786 21.8284 20.8284C22.5786 20.0783 23 19.0609 23 18V9C23 8.46957 22.7893 7.96086 22.4142 7.58579C22.0391 7.21071 21.5304 7 21 7Z" fill-rule="evenodd"/>
  </g>
</svg>
