<svg xmlns="http://www.w3.org/2000/svg" width="24" height="24" viewBox="0 0 24 24" fill="currentColor">
  <g fill-rule="nonzero">
    <path d="M18 2H6C5.46957 2 4.96086 2.21071 4.58579 2.58579C4.21071 2.96086 4 3.46957 4 4V20C4 20.5304 4.21071 21.0391 4.58579 21.4142C4.96086 21.7893 5.46957 22 6 22H12.76C13.5554 21.9993 14.3179 21.6828 14.88 21.12L19.12 16.88C19.6828 16.3179 19.9993 15.5554 20 14.76V4C20 3.46957 19.7893 2.96086 19.4142 2.58579C19.0391 2.21071 18.5304 2 18 2ZM18 14H13C12.7348 14 12.4804 14.1054 12.2929 14.2929C12.1054 14.4804 12 14.7348 12 15V20H6V4H18V14ZM8.5 8H15.5C15.6326 8 15.7598 7.94732 15.8536 7.85355C15.9473 7.75979 16 7.63261 16 7.5V6.5C16 6.36739 15.9473 6.24021 15.8536 6.14645C15.7598 6.05268 15.6326 6 15.5 6H8.5C8.36739 6 8.24021 6.05268 8.14645 6.14645C8.05268 6.24021 8 6.36739 8 6.5V7.5C8 7.63261 8.05268 7.75979 8.14645 7.85355C8.24021 7.94732 8.36739 8 8.5 8ZM8.5 12H12.5C12.6326 12 12.7598 11.9473 12.8536 11.8536C12.9473 11.7598 13 11.6326 13 11.5V10.5C13 10.3674 12.9473 10.2402 12.8536 10.1464C12.7598 10.0527 12.6326 10 12.5 10H8.5C8.36739 10 8.24021 10.0527 8.14645 10.1464C8.05268 10.2402 8 10.3674 8 10.5V11.5C8 11.6326 8.05268 11.7598 8.14645 11.8536C8.24021 11.9473 8.36739 12 8.5 12Z" fill-rule="evenodd"/>
  </g>
</svg>
