<svg xmlns="http://www.w3.org/2000/svg" width="24" height="24" viewBox="0 0 24 24" fill="currentColor">
  <g fill-rule="nonzero">
    <path d="M16.1403 8.94005C16.1872 8.98654 16.2244 9.04184 16.2497 9.10277C16.2751 9.1637 16.2882 9.22905 16.2882 9.29505C16.2882 9.36106 16.2751 9.42641 16.2497 9.48734C16.2244 9.54827 16.1872 9.60357 16.1403 9.65005L15.9403 9.85005C15.8938 9.89837 15.8378 9.93661 15.7759 9.96241C15.7139 9.98822 15.6474 10.001 15.5803 10.0001H8.4203C8.35322 10.001 8.28666 9.98822 8.22474 9.96241C8.16281 9.93661 8.10684 9.89837 8.0603 9.85005L7.8603 9.65005C7.81344 9.60357 7.77624 9.54827 7.75086 9.48734C7.72547 9.42641 7.7124 9.36106 7.7124 9.29505C7.7124 9.22905 7.72547 9.1637 7.75086 9.10277C7.77624 9.04184 7.81344 8.98654 7.8603 8.94005L11.6503 5.15005C11.6952 5.10222 11.7494 5.0641 11.8096 5.03804C11.8698 5.01198 11.9347 4.99854 12.0003 4.99854C12.0659 4.99854 12.1308 5.01198 12.191 5.03804C12.2512 5.0641 12.3054 5.10222 12.3503 5.15005L16.1403 8.94005ZM7.8603 15.0601C7.81344 15.0136 7.77624 14.9583 7.75086 14.8973C7.72547 14.8364 7.7124 14.7711 7.7124 14.7051C7.7124 14.639 7.72547 14.5737 7.75086 14.5128C7.77624 14.4518 7.81344 14.3965 7.8603 14.3501L8.0603 14.1501C8.10684 14.1017 8.16281 14.0635 8.22474 14.0377C8.28666 14.0119 8.35322 13.9991 8.4203 14.0001H15.5803C15.6474 13.9991 15.7139 14.0119 15.7759 14.0377C15.8378 14.0635 15.8938 14.1017 15.9403 14.1501L16.1403 14.3501C16.1872 14.3965 16.2244 14.4518 16.2497 14.5128C16.2751 14.5737 16.2882 14.639 16.2882 14.7051C16.2882 14.7711 16.2751 14.8364 16.2497 14.8973C16.2244 14.9583 16.1872 15.0136 16.1403 15.0601L12.3503 18.8501C12.3054 18.8979 12.2512 18.936 12.191 18.9621C12.1308 18.9881 12.0659 19.0016 12.0003 19.0016C11.9347 19.0016 11.8698 18.9881 11.8096 18.9621C11.7494 18.936 11.6952 18.8979 11.6503 18.8501L7.8603 15.0601Z" fill-rule="evenodd"/>
  </g>
</svg>
