<svg xmlns="http://www.w3.org/2000/svg" width="24" height="24" viewBox="0 0 24 24" fill="currentColor">
  <g fill-rule="nonzero">
    <path d="M11.6055 12.1617C11.6056 12.3309 11.6729 12.4931 11.7926 12.6126L16.166 16.9774C16.2055 17.0173 16.2526 17.049 16.3044 17.0706C16.3562 17.0922 16.4119 17.1033 16.468 17.1033C16.5242 17.1033 16.5798 17.0922 16.6316 17.0706C16.6835 17.049 16.7305 17.0173 16.7701 16.9774L17.3742 16.3818C17.414 16.3423 17.4457 16.2952 17.4673 16.2434C17.4889 16.1916 17.5 16.136 17.5 16.0798C17.5 16.0236 17.4889 15.968 17.4673 15.9162C17.4457 15.8643 17.414 15.8173 17.3742 15.7777L13.5879 12L17.3742 8.22228C17.4138 8.18346 17.4453 8.13713 17.4667 8.08599C17.4882 8.03485 17.4993 7.97995 17.4993 7.92448C17.4993 7.86901 17.4882 7.81411 17.4667 7.76297C17.4453 7.71184 17.4138 7.66551 17.3742 7.62669L16.7701 7.02259C16.7305 6.98272 16.6835 6.95107 16.6316 6.92947C16.5798 6.90787 16.5242 6.89675 16.468 6.89675C16.4119 6.89675 16.3563 6.90787 16.3044 6.92947C16.2526 6.95107 16.2055 6.98272 16.166 7.02259L11.7926 11.3874C11.6745 11.508 11.6074 11.6695 11.6055 11.8384L11.6055 12.1617ZM6.50023 12.1617C6.50038 12.3309 6.56771 12.4931 6.68742 12.6126L11.0607 16.9774C11.1003 17.0173 11.1473 17.049 11.1992 17.0706C11.251 17.0922 11.3066 17.1033 11.3628 17.1033C11.419 17.1033 11.4746 17.0922 11.5264 17.0706C11.5782 17.049 11.6253 17.0173 11.6648 16.9774L12.2689 16.3818C12.3088 16.3423 12.3405 16.2952 12.3621 16.2434C12.3837 16.1916 12.3948 16.136 12.3948 16.0798C12.3948 16.0236 12.3837 15.968 12.3621 15.9162C12.3405 15.8643 12.3088 15.8173 12.2689 15.7777L8.48269 12L12.2689 8.22228C12.3086 8.18346 12.34 8.13713 12.3615 8.08599C12.383 8.03486 12.3941 7.97995 12.3941 7.92448C12.3941 7.86902 12.383 7.81411 12.3615 7.76297C12.34 7.71184 12.3086 7.66551 12.2689 7.62669L11.6648 7.02259C11.6253 6.98272 11.5782 6.95107 11.5264 6.92947C11.4746 6.90787 11.419 6.89675 11.3628 6.89675C11.3066 6.89675 11.251 6.90787 11.1992 6.92947C11.1473 6.95107 11.1003 6.98272 11.0607 7.02259L6.68742 11.3874C6.56925 11.508 6.50219 11.6695 6.50023 11.8384L6.50023 12.1617" fill-rule="evenodd"/>
  </g>
</svg>
