<svg xmlns="http://www.w3.org/2000/svg" width="24" height="24" viewBox="0 0 24 24" fill="currentColor">
  <g fill-rule="nonzero">
    <path d="M12.3945 11.8383C12.3944 11.6691 12.3271 11.5069 12.2074 11.3874L7.83403 7.02257C7.79449 6.98269 7.74743 6.95105 7.69559 6.92945C7.64375 6.90785 7.58815 6.89673 7.53198 6.89673C7.47582 6.89673 7.42022 6.90785 7.36838 6.92945C7.31654 6.95105 7.26948 6.98269 7.22994 7.02257L6.62584 7.61816C6.58596 7.65771 6.55432 7.70476 6.53272 7.7566C6.51112 7.80844 6.5 7.86404 6.5 7.92021C6.5 7.97637 6.51112 8.03197 6.53272 8.08381C6.55432 8.13565 6.58596 8.18271 6.62584 8.22225L10.4121 12L6.62584 15.7777C6.58622 15.8165 6.55474 15.8629 6.53326 15.914C6.51177 15.9651 6.5007 16.0201 6.5007 16.0755C6.5007 16.131 6.51177 16.1859 6.53326 16.237C6.55474 16.2882 6.58622 16.3345 6.62584 16.3733L7.22993 16.9774C7.26948 17.0173 7.31653 17.0489 7.36838 17.0705C7.42022 17.0921 7.47582 17.1032 7.53198 17.1032C7.58814 17.1032 7.64375 17.0921 7.69559 17.0705C7.74743 17.0489 7.79448 17.0173 7.83403 16.9774L12.2074 12.6126C12.3255 12.492 12.3926 12.3305 12.3945 12.1616L12.3945 11.8383ZM17.4998 11.8383C17.4996 11.6691 17.4323 11.5069 17.3126 11.3874L12.9393 7.02257C12.8997 6.98269 12.8527 6.95105 12.8008 6.92945C12.749 6.90785 12.6934 6.89673 12.6372 6.89673C12.581 6.89673 12.5254 6.90785 12.4736 6.92945C12.4218 6.95105 12.3747 6.98269 12.3352 7.02257L11.7311 7.61816C11.6912 7.65771 11.6595 7.70476 11.6379 7.7566C11.6163 7.80844 11.6052 7.86404 11.6052 7.92021C11.6052 7.97637 11.6163 8.03197 11.6379 8.08381C11.6595 8.13565 11.6912 8.18271 11.7311 8.22225L15.5173 12L11.7311 15.7777C11.6914 15.8165 11.66 15.8629 11.6385 15.914C11.617 15.9651 11.6059 16.0201 11.6059 16.0755C11.6059 16.131 11.617 16.1859 11.6385 16.237C11.66 16.2882 11.6914 16.3345 11.7311 16.3733L12.3352 16.9774C12.3747 17.0173 12.4218 17.0489 12.4736 17.0705C12.5254 17.0921 12.581 17.1032 12.6372 17.1032C12.6934 17.1032 12.749 17.0921 12.8008 17.0705C12.8527 17.0489 12.8997 17.0173 12.9393 16.9774L17.3126 12.6126C17.4307 12.492 17.4978 12.3305 17.4998 12.1616L17.4998 11.8383" fill-rule="evenodd"/>
  </g>
</svg>
