<svg xmlns="http://www.w3.org/2000/svg" width="24" height="24" viewBox="0 0 24 24" fill="currentColor">
  <g fill-rule="nonzero">
    <path d="M12 22C13.9778 22 15.9112 21.4135 17.5557 20.3147C19.2002 19.2159 20.4819 17.6541 21.2388 15.8268C21.9957 13.9996 22.1937 11.9889 21.8079 10.0491C21.422 8.10929 20.4696 6.32746 19.0711 4.92894C17.6725 3.53041 15.8907 2.578 13.9509 2.19215C12.0111 1.8063 10.0004 2.00433 8.17317 2.76121C6.3459 3.51809 4.78412 4.79981 3.6853 6.4443C2.58649 8.08879 2 10.0222 2 12C2 14.6522 3.05357 17.1957 4.92893 19.0711C5.85752 19.9997 6.95991 20.7363 8.17317 21.2388C9.38642 21.7413 10.6868 22 12 22ZM12 4C13.5823 4 15.129 4.4692 16.4446 5.34825C17.7602 6.2273 18.7855 7.47673 19.391 8.93854C19.9965 10.4003 20.155 12.0089 19.8463 13.5607C19.5376 15.1126 18.7757 16.538 17.6569 17.6569C16.538 18.7757 15.1126 19.5376 13.5607 19.8463C12.0089 20.155 10.4003 19.9965 8.93853 19.391C7.47672 18.7855 6.22729 17.7602 5.34824 16.4446C4.46919 15.129 4 13.5823 4 12C4 9.87827 4.84285 7.84344 6.34315 6.34315C7.84344 4.84286 9.87827 4 12 4ZM11.28 17.78C11.4217 17.9189 11.6116 17.9977 11.81 18H12.19C12.3888 17.9998 12.5795 17.9207 12.72 17.78L15.85 14.64C15.8969 14.5935 15.9341 14.5382 15.9594 14.4773C15.9848 14.4164 15.9979 14.351 15.9979 14.285C15.9979 14.219 15.9848 14.1536 15.9594 14.0927C15.9341 14.0318 15.8969 13.9765 15.85 13.93L15.15 13.22C15.1035 13.1731 15.0482 13.1359 14.9873 13.1106C14.9264 13.0852 14.861 13.0721 14.795 13.0721C14.729 13.0721 14.6636 13.0852 14.6027 13.1106C14.5418 13.1359 14.4865 13.1731 14.44 13.22L13 14.67V6.5C13 6.3674 12.9473 6.24022 12.8536 6.14645C12.7598 6.05268 12.6326 6 12.5 6H11.5C11.3674 6 11.2402 6.05268 11.1464 6.14645C11.0527 6.24022 11 6.3674 11 6.5V14.67L9.56 13.23C9.51438 13.1834 9.45992 13.1464 9.39982 13.1212C9.33972 13.0959 9.27519 13.0829 9.21 13.0829C9.14481 13.0829 9.08028 13.0959 9.02018 13.1212C8.96008 13.1464 8.90562 13.1834 8.86 13.23L8.15 13.94C8.10314 13.9865 8.06594 14.0418 8.04055 14.1027C8.01517 14.1636 8.0021 14.229 8.0021 14.295C8.0021 14.361 8.01517 14.4264 8.04055 14.4873C8.06594 14.5482 8.10314 14.6035 8.15 14.65L11.28 17.78Z" fill-rule="evenodd"/>
  </g>
</svg>
