<svg xmlns="http://www.w3.org/2000/svg" width="24" height="24" viewBox="0 0 24 24" fill="currentColor">
  <g fill-rule="nonzero">
    <path d="M17 17V3C17 2.46957 16.7893 1.96086 16.4142 1.58579C16.0391 1.21071 15.5304 1 15 1H9.24C8.44462 1.0007 7.68207 1.31723 7.12 1.88L2.88 6.12C2.31723 6.68207 2.0007 7.44462 2 8.24V17C2 17.5304 2.21071 18.0391 2.58579 18.4142C2.96086 18.7893 3.46957 19 4 19H15C15.5304 19 16.0391 18.7893 16.4142 18.4142C16.7893 18.0391 17 17.5304 17 17ZM4 9H9C9.26522 9 9.51957 8.89464 9.70711 8.70711C9.89464 8.51957 10 8.26522 10 8V3H15V17H4V9ZM19 5V19C19 19.5304 18.7893 20.0391 18.4142 20.4142C18.0391 20.7893 17.5304 21 17 21H6C6 21.5304 6.21071 22.0391 6.58579 22.4142C6.96086 22.7893 7.46957 23 8 23H17C18.0609 23 19.0783 22.5786 19.8284 21.8284C20.5786 21.0783 21 20.0609 21 19V7C21 6.46957 20.7893 5.96086 20.4142 5.58579C20.0391 5.21071 19.5304 5 19 5Z" fill-rule="evenodd"/>
  </g>
</svg>
