<svg xmlns="http://www.w3.org/2000/svg" width="24" height="24" viewBox="0 0 24 24" fill="currentColor">
  <g fill-rule="nonzero">
    <path d="M5.75011 11.75C5.75011 16.58 8.00011 19.15 8.00011 19.6C8.00091 19.6778 7.98318 19.7546 7.94841 19.8242C7.91363 19.8937 7.8628 19.954 7.80011 20L7.38011 20.28C7.29881 20.3392 7.20067 20.3707 7.10011 20.37C6.72011 20.37 6.02011 19.29 5.40011 17.69C4.68265 15.8243 4.29357 13.8484 4.25011 11.85V10C4.23291 8.96563 4.4198 7.93802 4.80011 6.97595C5.18041 6.01388 5.74666 5.13622 6.46647 4.39319C7.18628 3.65017 8.04552 3.05634 8.99504 2.6457C9.94455 2.23505 10.9657 2.01563 12.0001 2C12.4051 1.99975 12.8096 2.02983 13.2101 2.09C13.2827 2.10121 13.3519 2.1286 13.4124 2.17014C13.473 2.21169 13.5235 2.26632 13.5601 2.33C13.5921 2.39716 13.6087 2.47061 13.6087 2.545C13.6087 2.61939 13.5921 2.69284 13.5601 2.76L13.3801 3.24C13.3436 3.34997 13.2694 3.44346 13.1705 3.50387C13.0717 3.56428 12.9546 3.58771 12.8401 3.57C12.5625 3.52371 12.2816 3.5003 12.0001 3.5C7.09011 3.5 5.79011 8.2 5.79011 9.93L5.75011 11.75ZM15.7001 3C15.6341 2.97018 15.5625 2.95476 15.4901 2.95476C15.4177 2.95476 15.3461 2.97018 15.2801 3C15.2134 3.02674 15.153 3.06728 15.103 3.11899C15.053 3.17069 15.0146 3.23238 14.9901 3.3L14.8101 3.79C14.771 3.89997 14.7716 4.02015 14.8117 4.12974C14.8519 4.23932 14.9292 4.33139 15.0301 4.39C15.9857 4.92873 16.7809 5.71172 17.3344 6.6588C17.8879 7.60589 18.1797 8.68304 18.1801 9.78V11.43C18.1801 11.5626 18.2328 11.6898 18.3266 11.7836C18.4203 11.8773 18.5475 11.93 18.6801 11.93H19.1801C19.3119 11.9274 19.4376 11.8739 19.5308 11.7807C19.6241 11.6875 19.6776 11.5618 19.6801 11.43V9.71C19.6703 8.33931 19.2966 6.99581 18.5974 5.81688C17.8981 4.63794 16.8983 3.66585 15.7001 3ZM12.2501 9.75H11.7501C11.6175 9.75 11.4903 9.80268 11.3966 9.89645C11.3028 9.99022 11.2501 10.1174 11.2501 10.25V11.75C11.2497 12.7964 11.4429 13.8339 11.8201 14.81C11.8446 14.8764 11.8832 14.9367 11.9333 14.9868C11.9834 15.0369 12.0437 15.0755 12.1101 15.1C12.1761 15.1298 12.2477 15.1452 12.3201 15.1452C12.3925 15.1452 12.4641 15.1298 12.5301 15.1L12.9601 14.86C13.0666 14.8042 13.1489 14.7113 13.1913 14.5988C13.2337 14.4863 13.2333 14.3622 13.1901 14.25C12.8972 13.4595 12.7481 12.623 12.7501 11.78V10.28C12.7542 10.2119 12.7443 10.1436 12.721 10.0794C12.6977 10.0153 12.6616 9.95654 12.6147 9.90689C12.5679 9.85724 12.5114 9.8177 12.4486 9.79072C12.3859 9.76374 12.3184 9.74988 12.2501 9.75ZM17.0701 18.39C15.9978 17.9169 15.0598 17.185 14.3401 16.26C14.2672 16.1677 14.164 16.104 14.0488 16.0802C13.9336 16.0565 13.8136 16.0741 13.7101 16.13L13.2601 16.38C13.197 16.4144 13.1421 16.462 13.099 16.5195C13.056 16.577 13.0259 16.6431 13.0107 16.7134C12.9955 16.7836 12.9956 16.8563 13.0111 16.9264C13.0265 16.9966 13.0569 17.0626 13.1001 17.12C13.9982 18.2803 15.1745 19.1952 16.5201 19.78C16.5823 19.8057 16.6491 19.8185 16.7164 19.8177C16.7838 19.817 16.8502 19.8026 16.9119 19.7755C16.9735 19.7484 17.029 19.7092 17.0751 19.6601C17.1212 19.6111 17.1569 19.5532 17.1801 19.49L17.3601 19.01C17.4022 18.8893 17.3955 18.7568 17.3413 18.641C17.2871 18.5251 17.1898 18.4351 17.0701 18.39ZM9.25011 11.93C9.23989 11.807 9.18173 11.693 9.08819 11.6126C8.99464 11.5321 8.87321 11.4917 8.75011 11.5H8.25011C8.12415 11.4996 8.00268 11.5468 7.90998 11.632C7.81728 11.7173 7.76019 11.8344 7.75011 11.96C7.88011 17.96 12.4901 21.85 13.2801 21.85C13.3664 21.8505 13.4514 21.8287 13.5267 21.7866C13.6021 21.7446 13.6652 21.6837 13.7101 21.61L13.9801 21.19C14.0278 21.1118 14.0521 21.0216 14.0501 20.93C14.0501 20.35 9.34011 18.14 9.25011 11.93ZM18.5601 15.21C17.8773 14.9246 17.2939 14.4441 16.883 13.8286C16.4721 13.2131 16.2519 12.49 16.2501 11.75V9.94C16.269 8.78944 15.8333 7.67787 15.0376 6.8466C14.2419 6.01532 13.1504 5.53145 12.0001 5.5C10.9174 5.50307 9.87645 5.91829 9.08887 6.66129C8.3013 7.40428 7.82619 8.41929 7.76011 9.5C7.76141 9.56435 7.77538 9.62782 7.80121 9.68677C7.82704 9.74573 7.86424 9.79901 7.91067 9.84359C7.9571 9.88816 8.01186 9.92315 8.07182 9.94656C8.13178 9.96996 8.19576 9.98133 8.26011 9.98H8.77011C8.89933 9.9801 9.02356 9.93018 9.11678 9.84069C9.20999 9.75121 9.26494 9.62911 9.27011 9.5C9.30061 8.77331 9.61854 8.08849 10.154 7.59621C10.6894 7.10393 11.3984 6.8445 12.1251 6.875C12.8518 6.9055 13.5366 7.22343 14.0289 7.75885C14.5212 8.29426 14.7806 9.00331 14.7501 9.73V11.73C14.739 12.816 15.0729 13.8776 15.7037 14.7618C16.3344 15.6459 17.2296 16.3071 18.2601 16.65C18.3696 16.6494 18.4758 16.6129 18.5626 16.546C18.6493 16.4792 18.7116 16.3857 18.7401 16.28L18.8701 15.8C18.879 15.7571 18.879 15.7129 18.8701 15.67C18.866 15.5722 18.8348 15.4774 18.7801 15.3962C18.7254 15.315 18.6492 15.2506 18.5601 15.21Z" fill-rule="evenodd"/>
  </g>
</svg>
