<svg xmlns="http://www.w3.org/2000/svg" width="24" height="24" viewBox="0 0 24 24" fill="currentColor">
  <g fill-rule="nonzero">
    <path d="M16.27 8.37L15.63 7.73C15.5784 7.68314 15.5373 7.62602 15.5091 7.5623C15.4809 7.49858 15.4663 7.42968 15.4663 7.36C15.4663 7.29033 15.4809 7.22142 15.5091 7.15771C15.5373 7.09399 15.5784 7.03687 15.63 6.99L17.19 5.7C17.2835 5.61637 17.4046 5.57013 17.53 5.57013C17.6555 5.57013 17.7765 5.61637 17.87 5.7L18.28 6.11C18.3636 6.20351 18.4099 6.32455 18.4099 6.45C18.4099 6.57545 18.3636 6.6965 18.28 6.79L17 8.34C16.9553 8.39193 16.9004 8.43413 16.8388 8.46397C16.7771 8.49381 16.71 8.51066 16.6415 8.51347C16.5731 8.51629 16.5048 8.505 16.4409 8.48032C16.377 8.45564 16.3188 8.41809 16.27 8.37ZM7.00001 15.66L5.70001 17.19C5.61637 17.2835 5.57014 17.4046 5.57014 17.53C5.57014 17.6555 5.61637 17.7765 5.70001 17.87L6.11001 18.28C6.20351 18.3636 6.32456 18.4099 6.45001 18.4099C6.57545 18.4099 6.6965 18.3636 6.79001 18.28L8.34001 17C8.39157 16.9531 8.43276 16.896 8.46095 16.8323C8.48914 16.7686 8.5037 16.6997 8.5037 16.63C8.5037 16.5603 8.48914 16.4914 8.46095 16.4277C8.43276 16.364 8.39157 16.3069 8.34001 16.26L7.70001 15.62C7.6014 15.5335 7.47276 15.4893 7.34182 15.4967C7.21088 15.5042 7.08812 15.5629 7.00001 15.66ZM15.66 17L17.19 18.29C17.2835 18.3736 17.4046 18.4199 17.53 18.4199C17.6555 18.4199 17.7765 18.3736 17.87 18.29L18.28 17.88C18.3636 17.7865 18.4099 17.6655 18.4099 17.54C18.4099 17.4146 18.3636 17.2935 18.28 17.2L17 15.66C16.9531 15.6084 16.896 15.5672 16.8323 15.5391C16.7686 15.5109 16.6997 15.4963 16.63 15.4963C16.5603 15.4963 16.4914 15.5109 16.4277 15.5391C16.364 15.5672 16.3069 15.6084 16.26 15.66L15.62 16.3C15.5335 16.3986 15.4893 16.5272 15.4968 16.6582C15.5042 16.7891 15.5629 16.9119 15.66 17ZM8.34001 7L6.81001 5.7C6.7165 5.61637 6.59545 5.57013 6.47001 5.57013C6.34456 5.57013 6.22351 5.61637 6.13001 5.7L5.72001 6.11C5.63637 6.20351 5.59014 6.32455 5.59014 6.45C5.59014 6.57545 5.63637 6.6965 5.72001 6.79L7.00001 8.34C7.04687 8.39156 7.10399 8.43276 7.16771 8.46095C7.23143 8.48914 7.30033 8.5037 7.37001 8.5037C7.43968 8.5037 7.50859 8.48914 7.5723 8.46095C7.63602 8.43276 7.69314 8.39156 7.74001 8.34L8.38001 7.7C8.46648 7.60139 8.51074 7.47276 8.50326 7.34182C8.49578 7.21088 8.43715 7.08812 8.34001 7ZM19.55 11.2L14.64 10.66C14.4092 10.637 14.1936 10.5345 14.03 10.37L13.65 9.97C13.4892 9.805 13.3903 9.58952 13.37 9.36L12.79 2.46C12.7799 2.33445 12.7228 2.21732 12.6301 2.13203C12.5374 2.04675 12.416 1.9996 12.29 2H11.71C11.584 1.9996 11.4626 2.04675 11.3699 2.13203C11.2772 2.21732 11.2201 2.33445 11.21 2.46L10.63 9.36C10.6097 9.58952 10.5108 9.805 10.35 9.97L9.97001 10.37C9.80646 10.5345 9.59082 10.637 9.36001 10.66L4.45001 11.2C4.32624 11.2124 4.21156 11.2706 4.12835 11.363C4.04514 11.4555 3.99938 11.5756 4.00001 11.7V12.3C3.99938 12.4244 4.04514 12.5445 4.12835 12.637C4.21156 12.7294 4.32624 12.7876 4.45001 12.8L9.36001 13.34C9.59082 13.363 9.80646 13.4655 9.97001 13.63L10.35 14.03C10.5108 14.195 10.6097 14.4105 10.63 14.64L11.21 21.54C11.2201 21.6656 11.2772 21.7827 11.3699 21.868C11.4626 21.9533 11.584 22.0004 11.71 22H12.29C12.416 22.0004 12.5374 21.9533 12.6301 21.868C12.7228 21.7827 12.7799 21.6656 12.79 21.54L13.37 14.64C13.3903 14.4105 13.4892 14.195 13.65 14.03L14.03 13.63C14.1936 13.4655 14.4092 13.363 14.64 13.34L19.55 12.8C19.6738 12.7876 19.7885 12.7294 19.8717 12.637C19.9549 12.5445 20.0006 12.4244 20 12.3V11.7C20.0006 11.5756 19.9549 11.4555 19.8717 11.363C19.7885 11.2706 19.6738 11.2124 19.55 11.2Z" fill-rule="evenodd"/>
  </g>
</svg>
