<svg xmlns="http://www.w3.org/2000/svg" width="24" height="24" viewBox="0 0 24 24" fill="currentColor">
  <g fill-rule="nonzero">
    <path d="M3.5 5H4.5C4.63261 5 4.75979 5.05268 4.85355 5.14645C4.94732 5.24021 5 5.36739 5 5.5V6.5C5 6.63261 4.94732 6.75979 4.85355 6.85355C4.75979 6.94732 4.63261 7 4.5 7H3.5C3.36739 7 3.24021 6.94732 3.14645 6.85355C3.05268 6.75979 3 6.63261 3 6.5V5.5C3 5.36739 3.05268 5.24021 3.14645 5.14645C3.24021 5.05268 3.36739 5 3.5 5ZM20.5 5H7.5C7.36739 5 7.24021 5.05268 7.14645 5.14645C7.05268 5.24021 7 5.36739 7 5.5V6.5C7 6.63261 7.05268 6.75979 7.14645 6.85355C7.24021 6.94732 7.36739 7 7.5 7H20.5C20.6326 7 20.7598 6.94732 20.8536 6.85355C20.9473 6.75979 21 6.63261 21 6.5V5.5C21 5.36739 20.9473 5.24021 20.8536 5.14645C20.7598 5.05268 20.6326 5 20.5 5ZM3 11.5V12.5C3 12.6326 3.05268 12.7598 3.14645 12.8536C3.24021 12.9473 3.36739 13 3.5 13H4.5C4.63261 13 4.75979 12.9473 4.85355 12.8536C4.94732 12.7598 5 12.6326 5 12.5V11.5C5 11.3674 4.94732 11.2402 4.85355 11.1464C4.75979 11.0527 4.63261 11 4.5 11H3.5C3.36739 11 3.24021 11.0527 3.14645 11.1464C3.05268 11.2402 3 11.3674 3 11.5ZM20.5 11H7.5C7.36739 11 7.24021 11.0527 7.14645 11.1464C7.05268 11.2402 7 11.3674 7 11.5V12.5C7 12.6326 7.05268 12.7598 7.14645 12.8536C7.24021 12.9473 7.36739 13 7.5 13H20.5C20.6326 13 20.7598 12.9473 20.8536 12.8536C20.9473 12.7598 21 12.6326 21 12.5V11.5C21 11.3674 20.9473 11.2402 20.8536 11.1464C20.7598 11.0527 20.6326 11 20.5 11ZM3 17.5V18.5C3 18.6326 3.05268 18.7598 3.14645 18.8536C3.24021 18.9473 3.36739 19 3.5 19H4.5C4.63261 19 4.75979 18.9473 4.85355 18.8536C4.94732 18.7598 5 18.6326 5 18.5V17.5C5 17.3674 4.94732 17.2402 4.85355 17.1464C4.75979 17.0527 4.63261 17 4.5 17H3.5C3.36739 17 3.24021 17.0527 3.14645 17.1464C3.05268 17.2402 3 17.3674 3 17.5ZM20.5 17H7.5C7.36739 17 7.24021 17.0527 7.14645 17.1464C7.05268 17.2402 7 17.3674 7 17.5V18.5C7 18.6326 7.05268 18.7598 7.14645 18.8536C7.24021 18.9473 7.36739 19 7.5 19H20.5C20.6326 19 20.7598 18.9473 20.8536 18.8536C20.9473 18.7598 21 18.6326 21 18.5V17.5C21 17.3674 20.9473 17.2402 20.8536 17.1464C20.7598 17.0527 20.6326 17 20.5 17Z" fill-rule="evenodd"/>
  </g>
</svg>
