<svg xmlns="http://www.w3.org/2000/svg" width="24" height="24" viewBox="0 0 24 24" fill="currentColor">
  <g fill-rule="nonzero">
    <path d="M13.4702 3.32177C13.3749 3.44944 13.3059 3.59482 13.2673 3.74942L8.87504 20.1417C8.7989 20.447 8.84571 20.77 9.0054 21.0411C9.16508 21.3122 9.42487 21.5098 9.72879 21.5912C10.0327 21.6727 10.3565 21.6315 10.6303 21.4765C10.9042 21.3216 11.1062 21.0653 11.1929 20.7628L15.5852 4.3705C15.6291 4.21732 15.6421 4.05694 15.6234 3.8987C15.6046 3.74047 15.5546 3.58755 15.4761 3.44887C15.3976 3.31019 15.2923 3.18852 15.1663 3.09098C15.0403 2.99343 14.8962 2.92195 14.7423 2.88071C14.5884 2.83947 14.4278 2.82929 14.2699 2.85077C14.112 2.87226 13.96 2.92497 13.8227 3.00584C13.6854 3.08671 13.5656 3.19411 13.4702 3.32177Z" fill-rule="evenodd"/>
  </g>
</svg>
