<svg xmlns="http://www.w3.org/2000/svg" width="24" height="24" viewBox="0 0 24 24" fill="currentColor">
  <g fill-rule="nonzero">
    <path d="M13.9994 9.5C13.9994 9.00555 14.146 8.5222 14.4207 8.11108C14.6954 7.69995 15.0859 7.37952 15.5427 7.1903C15.9995 7.00108 16.5022 6.95157 16.9871 7.04804C17.4721 7.1445 17.9176 7.3826 18.2672 7.73223C18.6168 8.08187 18.8549 8.52732 18.9514 9.01227C19.0478 9.49723 18.9983 9.99989 18.8091 10.4567C18.6199 10.9135 18.2995 11.304 17.8883 11.5787C17.4772 11.8534 16.9939 12 16.4994 12C15.8364 12 15.2005 11.7366 14.7316 11.2678C14.2628 10.7989 13.9994 10.163 13.9994 9.5ZM8.99942 11C9.59276 11 10.1728 10.8241 10.6661 10.4944C11.1595 10.1648 11.544 9.69623 11.7711 9.14805C11.9981 8.59987 12.0575 7.99667 11.9418 7.41473C11.826 6.83279 11.5403 6.29824 11.1207 5.87868C10.7012 5.45912 10.1666 5.1734 9.58469 5.05765C9.00274 4.94189 8.39954 5.0013 7.85137 5.22836C7.30319 5.45543 6.83465 5.83994 6.50501 6.33329C6.17536 6.82664 5.99942 7.40666 5.99942 8C5.99942 8.79565 6.31549 9.55871 6.8781 10.1213C7.4407 10.6839 8.20377 11 8.99942 11ZM14.4494 14.66C14.2 14.1604 13.816 13.7403 13.3408 13.447C12.8655 13.1537 12.3179 12.9989 11.7594 13H6.23942C5.68097 12.9989 5.1333 13.1537 4.65805 13.447C4.18281 13.7403 3.79886 14.1604 3.54942 14.66L2.10942 17.55C2.03271 17.7022 1.99618 17.8715 2.00332 18.0419C2.01045 18.2122 2.06101 18.3778 2.15018 18.5231C2.23935 18.6684 2.36418 18.7885 2.51281 18.8719C2.66145 18.9554 2.82895 18.9995 2.99942 19H14.9994C15.1699 18.9995 15.3374 18.9554 15.486 18.8719C15.6346 18.7885 15.7595 18.6684 15.8487 18.5231C15.9378 18.3778 15.9884 18.2122 15.9955 18.0419C16.0026 17.8715 15.9661 17.7022 15.8894 17.55L14.4494 14.66ZM21.8894 17.55L20.9394 15.65C20.6893 15.1537 20.3064 14.7367 19.8332 14.4454C19.3599 14.154 18.8151 13.9998 18.2594 14H16.3494L17.6794 16.66C17.8603 17.02 17.9667 17.4127 17.9925 17.8147C18.0183 18.2168 17.9628 18.6199 17.8294 19H20.9994C21.1699 18.9995 21.3374 18.9554 21.486 18.8719C21.6346 18.7885 21.7595 18.6684 21.8487 18.5231C21.9378 18.3778 21.9884 18.2122 21.9955 18.0419C22.0026 17.8715 21.9661 17.7022 21.8894 17.55Z" fill-rule="evenodd"/>
  </g>
</svg>
