<svg xmlns="http://www.w3.org/2000/svg" width="24" height="24" viewBox="0 0 24 24" fill="currentColor">
  <g fill-rule="nonzero">
    <path d="M20.5 7.99973H17.5L19 3.65973C19.0263 3.58236 19.0332 3.49974 19.0201 3.41909C19.007 3.33844 18.9744 3.26222 18.9251 3.19709C18.8757 3.13197 18.8112 3.07993 18.7371 3.04552C18.663 3.01112 18.5816 2.99539 18.5 2.99973H17.42C17.3147 2.9999 17.212 3.03268 17.126 3.09355C17.0401 3.15443 16.9751 3.24043 16.94 3.33973L15.34 7.99973H11.4L12.89 3.65973C12.9153 3.5848 12.9225 3.50495 12.9109 3.42671C12.8994 3.34848 12.8695 3.2741 12.8236 3.20968C12.7777 3.14526 12.7172 3.09264 12.647 3.05615C12.5769 3.01965 12.4991 3.00031 12.42 2.99973H11.34C11.2347 2.9999 11.132 3.03268 11.046 3.09355C10.9601 3.15443 10.8951 3.24043 10.86 3.33973L9.26 7.99973H5.5C5.36739 7.99973 5.24021 8.05241 5.14645 8.14617C5.05268 8.23994 5 8.36712 5 8.49973V9.49973C5 9.63234 5.05268 9.75951 5.14645 9.85328C5.24021 9.94705 5.36739 9.99973 5.5 9.99973H8.58L7.2 13.9997H3.5C3.36739 13.9997 3.24021 14.0524 3.14645 14.1462C3.05268 14.2399 3 14.3671 3 14.4997V15.4997C3 15.6323 3.05268 15.7595 3.14645 15.8533C3.24021 15.9471 3.36739 15.9997 3.5 15.9997H6.5L5 20.3397C4.97374 20.4171 4.96684 20.4997 4.9799 20.5804C4.99296 20.661 5.02559 20.7372 5.07492 20.8024C5.12426 20.8675 5.1888 20.9195 5.26291 20.9539C5.33701 20.9883 5.41841 21.0041 5.5 20.9997H6.57C6.67532 20.9996 6.77801 20.9668 6.86396 20.9059C6.9499 20.845 7.01489 20.759 7.05 20.6597L8.65 15.9997H12.6L11.11 20.3397C11.0847 20.4146 11.0775 20.4945 11.0891 20.5727C11.1006 20.651 11.1305 20.7254 11.1764 20.7898C11.2223 20.8542 11.2828 20.9068 11.353 20.9433C11.4231 20.9798 11.5009 20.9991 11.58 20.9997H12.65C12.7553 20.9996 12.858 20.9668 12.944 20.9059C13.0299 20.845 13.0949 20.759 13.13 20.6597L14.73 15.9997H18.5C18.6326 15.9997 18.7598 15.9471 18.8536 15.8533C18.9473 15.7595 19 15.6323 19 15.4997V14.4997C19 14.3671 18.9473 14.2399 18.8536 14.1462C18.7598 14.0524 18.6326 13.9997 18.5 13.9997H15.42L16.79 9.99973H20.5C20.6326 9.99973 20.7598 9.94705 20.8536 9.85328C20.9473 9.75951 21 9.63234 21 9.49973V8.49973C21 8.36712 20.9473 8.23994 20.8536 8.14617C20.7598 8.05241 20.6326 7.99973 20.5 7.99973ZM13.28 13.9997H9.34L10.71 9.99973H14.66L13.28 13.9997Z" fill-rule="evenodd"/>
  </g>
</svg>
