<svg xmlns="http://www.w3.org/2000/svg" width="24" height="24" viewBox="0 0 24 24" fill="currentColor">
  <g fill-rule="nonzero">
    <path d="M14.6398 22.3617L11.6398 19.3617C11.5672 19.2917 11.5174 19.2015 11.497 19.1027C11.4766 19.004 11.4865 18.9014 11.5254 18.8084C11.5643 18.7154 11.6305 18.6363 11.7151 18.5816C11.7998 18.5269 11.899 18.499 11.9998 18.5016H13.9998V11.0016C13.9998 10.869 14.0525 10.7419 14.1463 10.6481C14.24 10.5543 14.3672 10.5016 14.4998 10.5016H15.4998C15.6324 10.5016 15.7596 10.5543 15.8534 10.6481C15.9471 10.7419 15.9998 10.869 15.9998 11.0016V18.5016H17.9998C18.0985 18.5011 18.1952 18.5297 18.2777 18.584C18.3601 18.6383 18.4247 18.7157 18.4632 18.8066C18.5017 18.8975 18.5124 18.9978 18.494 19.0948C18.4756 19.1918 18.4289 19.2812 18.3598 19.3517L15.3598 22.3517C15.2656 22.4483 15.1368 22.5035 15.0019 22.5054C14.8669 22.5073 14.7367 22.4556 14.6398 22.3617ZM9.99981 14.0016V6.50165H11.9998C12.0985 6.50223 12.1952 6.47358 12.2777 6.4193C12.3601 6.36502 12.4247 6.28755 12.4632 6.19666C12.5017 6.10576 12.5124 6.00549 12.494 5.90851C12.4756 5.81152 12.4289 5.72215 12.3598 5.65165L9.35981 2.65165C9.26466 2.5594 9.13734 2.50781 9.00481 2.50781C8.87229 2.50781 8.74496 2.5594 8.64981 2.65165L5.64981 5.65165C5.58129 5.72154 5.53479 5.80999 5.51607 5.90606C5.49735 6.00213 5.50723 6.10157 5.5445 6.19207C5.58176 6.28258 5.64477 6.36015 5.72571 6.41518C5.80664 6.47021 5.90195 6.50028 5.99981 6.50165H7.99981V14.0016C7.99981 14.1343 8.05249 14.2614 8.14626 14.3552C8.24003 14.449 8.3672 14.5016 8.49981 14.5016H9.49981C9.63242 14.5016 9.7596 14.449 9.85337 14.3552C9.94714 14.2614 9.99981 14.1343 9.99981 14.0016Z" fill-rule="evenodd"/>
  </g>
</svg>
