<svg xmlns="http://www.w3.org/2000/svg" width="24" height="24" viewBox="0 0 24 24" fill="currentColor">
  <g fill-rule="nonzero">
    <path d="M20 4H4C3.46957 4 2.96086 4.21071 2.58579 4.58579C2.21071 4.96086 2 5.46957 2 6V18C2 18.5304 2.21071 19.0391 2.58579 19.4142C2.96086 19.7893 3.46957 20 4 20H20C20.5304 20 21.0391 19.7893 21.4142 19.4142C21.7893 19.0391 22 18.5304 22 18V6C22 5.46957 21.7893 4.96086 21.4142 4.58579C21.0391 4.21071 20.5304 4 20 4ZM20 6V14H16.24C15.9305 14.0009 15.6289 14.0974 15.3765 14.2765C15.124 14.4555 14.9332 14.7082 14.83 15C14.6239 15.586 14.2409 16.0935 13.734 16.4526C13.2271 16.8116 12.6212 17.0045 12 17.0045C11.3788 17.0045 10.7729 16.8116 10.266 16.4526C9.7591 16.0935 9.37614 15.586 9.17 15C9.06684 14.7082 8.87596 14.4555 8.62353 14.2765C8.3711 14.0974 8.06947 14.0009 7.76 14H4V6H20Z" fill-rule="evenodd"/>
  </g>
</svg>
