<svg xmlns="http://www.w3.org/2000/svg" width="24" height="24" viewBox="0 0 24 24" fill="currentColor">
  <g fill-rule="nonzero">
    <path d="M12 2.00024C10.0222 2.00024 8.08879 2.58673 6.4443 3.68555C4.79981 4.78436 3.51809 6.34615 2.76121 8.17341C2.00433 10.0007 1.8063 12.0113 2.19215 13.9511C2.578 15.891 3.53041 17.6728 4.92894 19.0713C6.32746 20.4698 8.10929 21.4222 10.0491 21.8081C11.9889 22.194 13.9996 21.9959 15.8268 21.239C17.6541 20.4822 19.2159 19.2004 20.3147 17.5559C21.4135 15.9115 22 13.9781 22 12.0002C22 10.687 21.7413 9.38667 21.2388 8.17341C20.7363 6.96015 19.9997 5.85776 19.0711 4.92918C18.1425 4.00059 17.0401 3.264 15.8268 2.76145C14.6136 2.2589 13.3132 2.00024 12 2.00024ZM12 20.0002C10.4178 20.0002 8.87104 19.5311 7.55544 18.652C6.23985 17.7729 5.21447 16.5235 4.60897 15.0617C4.00347 13.5999 3.84504 11.9914 4.15372 10.4395C4.4624 8.88767 5.22433 7.46221 6.34315 6.34339C7.46197 5.22457 8.88743 4.46264 10.4393 4.15396C11.9911 3.84528 13.5997 4.00371 15.0615 4.60921C16.5233 5.21471 17.7727 6.24009 18.6518 7.55568C19.5308 8.87128 20 10.418 20 12.0002C20 14.122 19.1572 16.1568 17.6569 17.6571C16.1566 19.1574 14.1217 20.0002 12 20.0002ZM13 12.5002C13 12.3676 12.9473 12.2405 12.8536 12.1467C12.7598 12.0529 12.6326 12.0002 12.5 12.0002H11.5C11.3674 12.0002 11.2402 12.0529 11.1465 12.1467C11.0527 12.2405 11 12.3676 11 12.5002V15.5002C11 15.6329 11.0527 15.76 11.1465 15.8538C11.2402 15.9476 11.3674 16.0002 11.5 16.0002H12.5C12.6326 16.0002 12.7598 15.9476 12.8536 15.8538C12.9473 15.76 13 15.6329 13 15.5002V12.5002ZM13 8.50024C13 8.36764 12.9473 8.24046 12.8536 8.14669C12.7598 8.05292 12.6326 8.00024 12.5 8.00024H11.5C11.3674 8.00024 11.2402 8.05292 11.1465 8.14669C11.0527 8.24046 11 8.36764 11 8.50024V9.50024C11 9.63285 11.0527 9.76003 11.1465 9.8538C11.2402 9.94757 11.3674 10.0002 11.5 10.0002H12.5C12.6326 10.0002 12.7598 9.94757 12.8536 9.8538C12.9473 9.76003 13 9.63285 13 9.50024V8.50024Z" fill-rule="evenodd"/>
  </g>
</svg>
