<svg xmlns="http://www.w3.org/2000/svg" width="24" height="24" viewBox="0 0 24 24" fill="currentColor">
  <g fill-rule="nonzero">
    <path d="M20.7099 3.41L20.5899 3.29C20.3983 3.10727 20.1447 3.00368 19.8799 3H11.9299C11.666 2.99979 11.4047 3.05182 11.161 3.15308C10.9173 3.25434 10.696 3.40283 10.5099 3.59L3.28994 10.81C3.10369 10.9974 2.99915 11.2508 2.99915 11.515C2.99915 11.7792 3.10369 12.0326 3.28994 12.22L11.7799 20.71C11.9673 20.8962 12.2208 21.0008 12.4849 21.0008C12.7491 21.0008 13.0026 20.8962 13.1899 20.71L20.4099 13.49C20.5971 13.3039 20.7456 13.0827 20.8469 12.839C20.9481 12.5953 21.0001 12.3339 20.9999 12.07V4.12C20.9963 3.85523 20.8927 3.60163 20.7099 3.41ZM18.9999 12.07L12.4899 18.59L5.40994 11.51L11.9299 5H18.9999V12.07ZM14.9999 11C15.3955 11 15.7822 10.8827 16.1111 10.6629C16.44 10.4432 16.6963 10.1308 16.8477 9.76537C16.9991 9.39991 17.0387 8.99778 16.9615 8.60982C16.8843 8.22186 16.6939 7.86549 16.4142 7.58579C16.1344 7.30608 15.7781 7.1156 15.3901 7.03843C15.0022 6.96126 14.6 7.00087 14.2346 7.15224C13.8691 7.30362 13.5568 7.55996 13.337 7.88886C13.1172 8.21776 12.9999 8.60444 12.9999 9C12.9999 9.53043 13.2107 10.0391 13.5857 10.4142C13.9608 10.7893 14.4695 11 14.9999 11Z" fill-rule="evenodd"/>
  </g>
</svg>
