<svg xmlns="http://www.w3.org/2000/svg" width="24" height="24" viewBox="0 0 24 24" fill="currentColor">
  <g fill-rule="nonzero">
    <path d="M20.7098 3.71914L20.2798 3.28914C20.1664 3.17186 20.026 3.08413 19.8709 3.03358C19.7157 2.98303 19.5506 2.97121 19.3898 2.99914L13.8898 3.99914C12.9578 4.16624 12.1187 4.66757 11.5298 5.40914L9.36985 8.18914C8.75321 7.96818 8.0812 7.95511 7.45643 8.15193C6.83167 8.34874 6.28849 8.74463 5.90985 9.27914L3.08985 13.2791C3.0155 13.387 2.98642 13.5196 3.00886 13.6487C3.0313 13.7777 3.10347 13.8928 3.20985 13.9691L3.61985 14.2591C3.94282 14.4852 4.3072 14.6454 4.69213 14.7306C5.07707 14.8158 5.47502 14.8243 5.86323 14.7555C6.25144 14.6868 6.62229 14.5422 6.95459 14.3301C7.28689 14.1179 7.57412 13.8424 7.79985 13.5191L8.42985 12.6291L11.3398 15.5391L10.4498 16.1691C10.1266 16.3949 9.85105 16.6821 9.63891 17.0144C9.42676 17.3467 9.28219 17.7176 9.21346 18.1058C9.14474 18.494 9.1532 18.8919 9.23837 19.2769C9.32355 19.6618 9.48376 20.0262 9.70985 20.3491L9.99985 20.7591C10.0762 20.8655 10.1913 20.9377 10.3203 20.9601C10.4494 20.9826 10.582 20.9535 10.6898 20.8791L14.6898 18.0591C15.2244 17.6805 15.6202 17.1373 15.8171 16.5126C16.0139 15.8878 16.0008 15.2158 15.7798 14.5991L18.5298 12.4391C19.2877 11.8678 19.8105 11.0391 19.9998 10.1091L20.9998 4.60914C21.0278 4.44839 21.016 4.28325 20.9654 4.12812C20.9149 3.97298 20.8271 3.83258 20.7098 3.71914ZM16.5598 9.55914C16.3501 9.76911 16.0829 9.91215 15.7919 9.97018C15.5008 10.0282 15.1991 9.99862 14.9249 9.88514C14.6507 9.77166 14.4164 9.57941 14.2515 9.33269C14.0865 9.08598 13.9985 8.79589 13.9985 8.49914C13.9985 8.20239 14.0865 7.91231 14.2515 7.66559C14.4164 7.41888 14.6507 7.22662 14.9249 7.11314C15.1991 6.99967 15.5008 6.97007 15.7919 7.0281C16.0829 7.08613 16.3501 7.22918 16.5598 7.43914C16.7001 7.57773 16.8115 7.74279 16.8875 7.92475C16.9636 8.1067 17.0027 8.30194 17.0027 8.49914C17.0027 8.69634 16.9636 8.89158 16.8875 9.07354C16.8115 9.2555 16.7001 9.42055 16.5598 9.55914ZM7.81985 16.8791C7.86671 16.9256 7.90391 16.9809 7.92929 17.0419C7.95468 17.1028 7.96775 17.1681 7.96775 17.2341C7.96775 17.3001 7.95468 17.3655 7.92929 17.4264C7.90391 17.4874 7.86671 17.5427 7.81985 17.5891L4.55985 20.8491C4.51337 20.896 4.45807 20.9332 4.39714 20.9586C4.33621 20.984 4.27085 20.997 4.20485 20.997C4.13884 20.997 4.07349 20.984 4.01256 20.9586C3.95163 20.9332 3.89633 20.896 3.84985 20.8491L3.14985 20.1491C3.10298 20.1027 3.06579 20.0474 3.0404 19.9864C3.01502 19.9255 3.00195 19.8601 3.00195 19.7941C3.00195 19.7281 3.01502 19.6628 3.0404 19.6019C3.06579 19.5409 3.10298 19.4856 3.14985 19.4391L6.40985 16.1791C6.45633 16.1323 6.51163 16.0951 6.57256 16.0697C6.63349 16.0443 6.69884 16.0312 6.76485 16.0312C6.83085 16.0312 6.89621 16.0443 6.95714 16.0697C7.01807 16.0951 7.07337 16.1323 7.11985 16.1791L7.81985 16.8791Z" fill-rule="evenodd"/>
  </g>
</svg>
