<svg xmlns="http://www.w3.org/2000/svg" width="24" height="24" viewBox="0 0 24 24" fill="currentColor">
  <g fill-rule="nonzero">
    <path d="M12,6A6,6,0,0,0,8.8,17.07a1.5,1.5,0,0,1,.7,1.27v.16a.5.5,0,0,0,.5.5h4a.5.5,0,0,0,.5-.5v-.16a1.48,1.48,0,0,1,.7-1.27A6,6,0,0,0,12,6Zm0,10a4,4,0,1,1,4-4A4,4,0,0,1,12,16Zm-2,5.59a1,1,0,0,0,.29.7l.42.42a1,1,0,0,0,.7.29h1.18a1,1,0,0,0,.7-.29l.42-.42a1,1,0,0,0,.29-.7V21H10ZM11.5,4h1a.5.5,0,0,0,.5-.5v-2a.5.5,0,0,0-.5-.5h-1a.5.5,0,0,0-.5.5v2A.5.5,0,0,0,11.5,4Zm8.63.58-.71-.71a.48.48,0,0,0-.7,0L17.3,5.28a.51.51,0,0,0,0,.71L18,6.7a.51.51,0,0,0,.71,0l1.41-1.42A.48.48,0,0,0,20.13,4.58ZM6.7,5.28,5.28,3.87a.48.48,0,0,0-.7,0l-.71.71a.48.48,0,0,0,0,.7L5.28,6.7A.51.51,0,0,0,6,6.7L6.7,6A.51.51,0,0,0,6.7,5.28ZM22.5,11h-2a.5.5,0,0,0-.5.5v1a.5.5,0,0,0,.5.5h2a.5.5,0,0,0,.5-.5v-1A.5.5,0,0,0,22.5,11Zm-19,0h-2a.5.5,0,0,0-.5.5v1a.5.5,0,0,0,.5.5h2a.5.5,0,0,0,.5-.5v-1A.5.5,0,0,0,3.5,11Z" fill-rule="evenodd"/>
  </g>
</svg>
