<svg xmlns="http://www.w3.org/2000/svg" width="24" height="24" viewBox="0 0 24 24" fill="currentColor">
  <g fill-rule="nonzero">
    <path d="M21 4H15.89C14.4976 4.02219 13.129 4.36435 11.89 5L11.27 5.31C10.2858 5.78603 9.20301 6.02247 8.11 6H3C2.73478 6 2.48043 6.10536 2.29289 6.29289C2.10536 6.48043 2 6.73478 2 7V19C2 19.2652 2.10536 19.5196 2.29289 19.7071C2.48043 19.8946 2.73478 20 3 20H8.11C9.49843 19.9933 10.8668 19.6683 12.11 19.05L12.73 18.74C13.7099 18.2467 14.7929 17.9931 15.89 18H21C21.2652 18 21.5196 17.8946 21.7071 17.7071C21.8946 17.5196 22 17.2652 22 17V5C22 4.73478 21.8946 4.48043 21.7071 4.29289C21.5196 4.10536 21.2652 4 21 4ZM20 13C19.2044 13 18.4413 13.3161 17.8787 13.8787C17.3161 14.4413 17 15.2044 17 16H15.89C14.5017 16.0077 13.1335 16.3327 11.89 16.95L11.27 17.26C10.2884 17.7487 9.20651 18.0021 8.11 18H7C7 17.2044 6.68393 16.4413 6.12132 15.8787C5.55871 15.3161 4.79565 15 4 15V11C4.79565 11 5.55871 10.6839 6.12132 10.1213C6.68393 9.55871 7 8.79565 7 8H8.11C9.50223 7.97674 10.8706 7.63465 12.11 7L12.73 6.69C13.7157 6.21856 14.7975 5.98236 15.89 6H17C17 6.79565 17.3161 7.55871 17.8787 8.12132C18.4413 8.68393 19.2044 9 20 9V13ZM15 12C15 12.5933 14.8241 13.1734 14.4944 13.6667C14.1648 14.1601 13.6962 14.5446 13.1481 14.7716C12.5999 14.9987 11.9967 15.0581 11.4147 14.9424C10.8328 14.8266 10.2982 14.5409 9.87868 14.1213C9.45912 13.7018 9.1734 13.1672 9.05764 12.5853C8.94189 12.0033 9.0013 11.4001 9.22836 10.8519C9.45542 10.3038 9.83994 9.83524 10.3333 9.50559C10.8266 9.17595 11.4067 9 12 9C12.7956 9 13.5587 9.31607 14.1213 9.87868C14.6839 10.4413 15 11.2044 15 12Z" fill-rule="evenodd"/>
  </g>
</svg>
