<svg xmlns="http://www.w3.org/2000/svg" width="24" height="24" viewBox="0 0 24 24" fill="currentColor">
  <g fill-rule="nonzero">
    <path d="M19,4H5A2,2,0,0,0,3,6V18a2,2,0,0,0,2,2H19a2,2,0,0,0,2-2V6a2,2,0,0,0-2-2Zm0,2v9H16.24a1.47,1.47,0,0,0-.86.28,1.45,1.45,0,0,0-.55.72,3,3,0,0,1-5.66,0,1.45,1.45,0,0,0-.55-.72A1.47,1.47,0,0,0,7.76,15H5V6Z" fill-rule="evenodd"/>
    <path d="M14.83,7.94a.34.34,0,0,0-.23-.1.37.37,0,0,0-.24.1L11.2,11.1l-1-1a.25.25,0,0,0-.1-.08.43.43,0,0,0-.26,0,.25.25,0,0,0-.1.08l-.36.35a.41.41,0,0,0-.07.11.27.27,0,0,0,0,.13.25.25,0,0,0,0,.12.3.3,0,0,0,.07.11L11,12.51l.11.08a.25.25,0,0,0,.12,0,.27.27,0,0,0,.13,0l.11-.08,3.74-3.74a.28.28,0,0,0,.08-.11.43.43,0,0,0,0-.26.28.28,0,0,0-.08-.11Z" fill-rule="evenodd"/>
  </g>
</svg>
