<svg xmlns="http://www.w3.org/2000/svg" width="24" height="24" viewBox="0 0 24 24" fill="currentColor">
  <g fill-rule="nonzero">
    <path d="M11.4329 3.20928C11.7555 2.91982 12.2444 2.91982 12.567 3.20928C14.534 4.97421 17.1208 5.88672 19.7598 5.74657C20.1632 5.72515 20.5259 5.99094 20.6269 6.38209C20.8701 7.32356 20.9999 8.3096 20.9999 9.32588C20.9999 14.7871 17.9998 17.9995 12.2115 20.6736C12.0727 20.7094 11.9271 20.7094 11.7883 20.6736C5.99982 17.9995 3 14.7861 3 9.32588C2.99925 8.33278 3.12457 7.34361 3.37295 6.38208C3.47398 5.99093 3.83663 5.72515 4.24004 5.74657C6.87906 5.88672 9.4659 4.97421 11.4329 3.20928ZM4.87171 7.45828C4.75581 8.07332 4.69759 8.69834 4.6981 9.32519C4.6981 13.9155 7.49982 16.4995 11.9999 18.9722C16.4998 16.4995 19.3018 13.917 19.3018 9.32588C19.3018 8.68698 19.242 8.063 19.1281 7.45828C16.54 7.43564 14.0318 6.55309 11.9999 4.95039C9.96804 6.5531 7.45988 7.43566 4.87171 7.45828ZM15.6559 9.63116C15.9875 9.96274 15.9875 10.5003 15.6559 10.8319L12.0333 14.4545C11.7017 14.7861 11.1641 14.7861 10.8325 14.4545L9.02123 12.6432C8.68965 12.3116 8.68965 11.774 9.02123 11.4425C9.3528 11.1109 9.89039 11.1109 10.222 11.4425L11.4329 12.6534L14.4551 9.63116C14.7867 9.29959 15.3243 9.29959 15.6559 9.63116Z" fill-rule="evenodd"/>
  </g>
</svg>
