<svg xmlns="http://www.w3.org/2000/svg" width="24" height="24" viewBox="0 0 24 24" fill="currentColor">
  <g fill-rule="nonzero">
    <path d="M22,11.81v.38a.77.77,0,0,1-.22.53l-4.14,4.13a.5.5,0,0,1-.71,0l-.71-.71a.49.49,0,0,1,0-.7L19.67,12,16.22,8.56a.5.5,0,0,1,0-.71l.71-.7a.5.5,0,0,1,.71,0l4.14,4.13A.75.75,0,0,1,22,11.81ZM4.33,12,7.77,8.56a.49.49,0,0,0,0-.7l-.71-.71a.5.5,0,0,0-.71,0L2.22,11.28a.77.77,0,0,0-.22.53v.38a.75.75,0,0,0,.22.53l4.14,4.13a.5.5,0,0,0,.71,0l.71-.7a.5.5,0,0,0,0-.71Zm11-7.63L14.36,4a.52.52,0,0,0-.65.3L8.4,19a.5.5,0,0,0,.3.64l.94.34a.51.51,0,0,0,.64-.3L15.59,5A.5.5,0,0,0,15.29,4.37Z" fill-rule="evenodd"/>
  </g>
</svg>
