<svg xmlns="http://www.w3.org/2000/svg" width="24" height="24" viewBox="0 0 24 24" fill="currentColor">
  <g fill-rule="nonzero">
    <path d="M21.59,5.91A9.49,9.49,0,0,0,12,5.07a9.49,9.49,0,0,0-9.6.84,1,1,0,0,0-.4.8V18.36a1,1,0,0,0,.61.92.91.91,0,0,0,.39.08,1,1,0,0,0,.7-.29s2.75-2.66,7.88-.33l0,0,.12,0,.12,0h.24l.13,0,.12,0,.05,0c5.07-2.3,7.77.22,7.88.33a1,1,0,0,0,.71.29.84.84,0,0,0,.38-.08,1,1,0,0,0,.62-.92V6.71A1,1,0,0,0,21.59,5.91ZM4,16.53V7.23a7.53,7.53,0,0,1,7-.41v9.54A9.28,9.28,0,0,0,4,16.53Zm16,0a8.45,8.45,0,0,0-3.56-.76,11,11,0,0,0-3.44.59V6.82a7.53,7.53,0,0,1,7,.41Z" fill-rule="evenodd"/>
  </g>
</svg>
