<svg xmlns="http://www.w3.org/2000/svg" width="24" height="24" viewBox="0 0 24 24" fill="currentColor">
  <g fill-rule="nonzero">
    <path d="M20.2,9H17V6.6A2.55,2.55,0,0,0,14.6,4H4.4A2.48,2.48,0,0,0,2,6.6v5.8A2.55,2.55,0,0,0,4.4,15H7v4.2A1.79,1.79,0,0,0,8.8,21H20.2A1.79,1.79,0,0,0,22,19.2V10.9A1.82,1.82,0,0,0,20.2,9ZM7,10.8V13H4.4c-.2,0-.4-.3-.4-.6V6.6c0-.3.2-.6.4-.6H14.6c.2,0,.4.3.4.6V9H8.8A1.79,1.79,0,0,0,7,10.8ZM20,19H9V11H20Z" fill-rule="evenodd"/>
    <path d="M15,18a3,3,0,1,1,3-3A2.95,2.95,0,0,1,15,18Zm0-4a1,1,0,1,0,1,1A.94.94,0,0,0,15,14Z" fill-rule="evenodd"/>
  </g>
</svg>
