<svg xmlns="http://www.w3.org/2000/svg" width="24" height="24" viewBox="0 0 24 24" fill="currentColor">
  <g fill-rule="nonzero">
    <path d="M22.07,6.17a1,1,0,0,0-1.38-.28L18.17,7.57,13.24,5.11V2.73a1,1,0,0,0-2,0V5.11L6.31,7.57,3.8,5.89A1,1,0,0,0,2.69,7.56L5.05,9.14,3.29,14.41a1,1,0,0,0,.24,1,4.4,4.4,0,0,0,2.71,1.3A4.34,4.34,0,0,0,9,15.43a1,1,0,0,0,.24-1L7.46,9.23l3.78-1.89V18.73h-3a1,1,0,1,0,0,2h8a1,1,0,0,0,0-2h-3V7.34L17,9.23l-1.73,5.18a1,1,0,0,0,.24,1,4.4,4.4,0,0,0,2.71,1.3A4.34,4.34,0,0,0,21,15.43a1,1,0,0,0,.24-1L19.43,9.14,21.8,7.56A1,1,0,0,0,22.07,6.17ZM6.24,14.73a1.79,1.79,0,0,1-.83-.34l.83-2.5.83,2.5A1.79,1.79,0,0,1,6.24,14.73Zm12,0a1.79,1.79,0,0,1-.83-.34l.83-2.5.83,2.5A1.79,1.79,0,0,1,18.24,14.73Z" fill-rule="evenodd"/>
  </g>
</svg>
