<svg xmlns="http://www.w3.org/2000/svg" width="24" height="24" viewBox="0 0 24 24" fill="currentColor">
  <g fill-rule="nonzero">
    <path d="M9,12.27v1.46a.27.27,0,0,0,.28.27h5.56a.28.28,0,0,0,.28-.27V12.27a.28.28,0,0,0-.28-.27H9.28A.27.27,0,0,0,9,12.27Z" fill-rule="evenodd"/>
    <path d="M11.78,15H9.28a.27.27,0,0,0-.28.27v1.46a.27.27,0,0,0,.28.27h2.5a.27.27,0,0,0,.28-.27V15.27A.27.27,0,0,0,11.78,15Z" fill-rule="evenodd"/>
    <path d="M18,4H9.47a.9.9,0,0,0-.78.39L5.29,8.72A.71.71,0,0,0,5,9.31V20a1,1,0,0,0,1,1H18a1,1,0,0,0,1-1V5A1,1,0,0,0,18,4ZM17,19H7V10h3a1,1,0,0,0,1-1V6h6Z" fill-rule="evenodd"/>
  </g>
</svg>
