<svg xmlns="http://www.w3.org/2000/svg" width="24" height="24" viewBox="0 0 24 24" fill="currentColor">
  <g fill-rule="nonzero">
    <path d="M9.12,10.81H4.77A1.83,1.83,0,0,1,2.94,9V4.64A1.83,1.83,0,0,1,4.77,2.81H9.12a1.83,1.83,0,0,1,1.82,1.83V9A1.83,1.83,0,0,1,9.12,10.81Zm-4.18-2h4v-4h-4Z" fill-rule="evenodd"/>
    <path d="M9.12,20.81H4.77A1.83,1.83,0,0,1,2.94,19V14.64a1.83,1.83,0,0,1,1.83-1.83H9.12a1.83,1.83,0,0,1,1.82,1.83V19A1.83,1.83,0,0,1,9.12,20.81Zm-4.18-2h4v-4h-4Z" fill-rule="evenodd"/>
    <path d="M19.12,10.81H14.77A1.83,1.83,0,0,1,12.94,9V4.64a1.83,1.83,0,0,1,1.83-1.83h4.35a1.83,1.83,0,0,1,1.82,1.83V9A1.83,1.83,0,0,1,19.12,10.81Zm-4.18-2h4v-4h-4Z" fill-rule="evenodd"/>
    <path d="M19.12,20.81H14.77A1.83,1.83,0,0,1,12.94,19V14.64a1.83,1.83,0,0,1,1.83-1.83h4.35a1.83,1.83,0,0,1,1.82,1.83V19A1.83,1.83,0,0,1,19.12,20.81Zm-4.18-2h4v-4h-4Z" fill-rule="evenodd"/>
  </g>
</svg>
