<svg xmlns="http://www.w3.org/2000/svg" width="24" height="24" viewBox="0 0 24 24" fill="currentColor">
  <g fill-rule="nonzero">
    <path d="M18.73 6.69001L13.41 12L18.72 17.32L20.14 15.9C20.2099 15.8315 20.2984 15.785 20.3944 15.7663C20.4905 15.7475 20.5899 15.7574 20.6804 15.7947C20.7709 15.832 20.8485 15.895 20.9035 15.9759C20.9586 16.0568 20.9886 16.1521 20.99 16.25V20.5C20.9851 20.631 20.9308 20.7554 20.8381 20.8481C20.7454 20.9408 20.621 20.9951 20.49 21H16.25C16.1513 21.0006 16.0546 20.9719 15.9722 20.9177C15.8897 20.8634 15.8252 20.7859 15.7867 20.695C15.7482 20.6041 15.7374 20.5039 15.7558 20.4069C15.7742 20.3099 15.8209 20.2205 15.89 20.15L17.31 18.73L12 13.41L6.68001 18.72L8.10001 20.14C8.16853 20.2099 8.21503 20.2984 8.23375 20.3944C8.25247 20.4905 8.24259 20.5899 8.20532 20.6804C8.16806 20.7709 8.10505 20.8485 8.02412 20.9035C7.94318 20.9586 7.84787 20.9886 7.75001 20.99H3.50001C3.36898 20.9851 3.24466 20.9308 3.15194 20.8381C3.05923 20.7454 3.00496 20.621 3.00001 20.49V16.25C2.99943 16.1513 3.02808 16.0546 3.08236 15.9722C3.13663 15.8897 3.2141 15.8252 3.305 15.7867C3.3959 15.7482 3.49616 15.7374 3.59315 15.7558C3.69014 15.7742 3.77951 15.8209 3.85001 15.89L5.27001 17.31L10.59 12L5.28001 6.68001L3.86001 8.10001C3.79066 8.17196 3.70134 8.22148 3.60358 8.24219C3.50581 8.26289 3.40408 8.25382 3.31152 8.21615C3.21896 8.17848 3.13981 8.11393 3.08429 8.03085C3.02876 7.94776 2.99941 7.84994 3.00001 7.75001V3.50001C3.00496 3.36898 3.05923 3.24466 3.15194 3.15194C3.24466 3.05923 3.36898 3.00496 3.50001 3.00001H7.75001C7.84872 2.99943 7.9454 3.02808 8.02786 3.08236C8.11031 3.13663 8.17486 3.2141 8.21335 3.305C8.25185 3.3959 8.26258 3.49616 8.24419 3.59315C8.2258 3.69014 8.17911 3.77951 8.11001 3.85001L6.69001 5.27001L12 10.59L17.32 5.28001L15.9 3.86001C15.8281 3.79066 15.7785 3.70134 15.7578 3.60358C15.7371 3.50581 15.7462 3.40408 15.7839 3.31152C15.8215 3.21896 15.8861 3.13981 15.9692 3.08429C16.0523 3.02876 16.1501 2.99941 16.25 3.00001H20.5C20.631 3.00496 20.7554 3.05923 20.8481 3.15194C20.9408 3.24466 20.9951 3.36898 21 3.50001V7.75001C21.0006 7.84872 20.9719 7.9454 20.9177 8.02786C20.8634 8.11031 20.7859 8.17486 20.695 8.21335C20.6041 8.25185 20.5039 8.26258 20.4069 8.24419C20.3099 8.2258 20.2205 8.17911 20.15 8.11001L18.73 6.69001Z" fill-rule="evenodd"/>
  </g>
</svg>
