<svg xmlns="http://www.w3.org/2000/svg" width="24" height="24" viewBox="0 0 24 24" fill="currentColor">
  <g fill-rule="nonzero">
    <path d="M4.5,17h15a.5.5,0,0,0,.5-.5v-2a.5.5,0,0,0-.5-.5H18V7h1.5a.5.5,0,0,0,.5-.5V4.67a1,1,0,0,0-.62-.92L13,1.15A2,2,0,0,0,12.22,1h-.44a2,2,0,0,0-.76.15l-6.4,2.6A1,1,0,0,0,4,4.67V6.5a.5.5,0,0,0,.5.5H6v7H4.5a.5.5,0,0,0-.5.5v2A.5.5,0,0,0,4.5,17ZM13,7h3v7H13ZM8,7h3v7H8ZM20.5,19H3.5a.5.5,0,0,0-.5.5v1a.5.5,0,0,0,.5.5h17a.5.5,0,0,0,.5-.5v-1A.5.5,0,0,0,20.5,19Z" fill-rule="evenodd"/>
  </g>
</svg>
