<svg xmlns="http://www.w3.org/2000/svg" width="24" height="24" viewBox="0 0 24 24" fill="currentColor">
  <g fill-rule="nonzero">
    <path d="M19 19.93C19.034 20.022 19.0408 20.1219 19.0195 20.2177C18.9983 20.3135 18.9498 20.4011 18.88 20.47L18.5 20.85C18.4086 20.938 18.2868 20.9872 18.16 20.9872C18.0332 20.9872 17.9113 20.938 17.82 20.85C16.2549 19.371 14.1833 18.5471 12.03 18.5471C9.87667 18.5471 7.80501 19.371 6.23996 20.85C6.14864 20.938 6.02677 20.9872 5.89996 20.9872C5.77315 20.9872 5.65128 20.938 5.55996 20.85L5.17996 20.47C5.09968 20.4081 5.03968 20.3236 5.00762 20.2274C4.97556 20.1313 4.97289 20.0277 4.99996 19.93L11.38 3.32C11.4177 3.22603 11.4825 3.14541 11.5662 3.08842C11.6499 3.03144 11.7487 3.00065 11.85 3H12.15C12.2512 3.00065 12.35 3.03144 12.4337 3.08842C12.5174 3.14541 12.5822 3.22603 12.62 3.32L19 19.93Z" fill-rule="evenodd"/>
  </g>
</svg>
