<svg xmlns="http://www.w3.org/2000/svg" width="24" height="24" viewBox="0 0 24 24" fill="currentColor">
  <g fill-rule="nonzero">
    <path d="M6.82954 3.92005C6.78268 3.87357 6.74548 3.81827 6.72009 3.75734C6.69471 3.69641 6.68164 3.63106 6.68164 3.56505C6.68164 3.49905 6.69471 3.4337 6.72009 3.37277C6.74548 3.31184 6.78268 3.25654 6.82954 3.21005L7.88954 2.15005C7.93443 2.10222 7.98865 2.0641 8.04884 2.03804C8.10904 2.01198 8.17394 1.99854 8.23954 1.99854C8.30514 1.99854 8.37004 2.01198 8.43023 2.03804C8.49043 2.0641 8.54465 2.10222 8.58954 2.15005L17.7795 11.3401C17.9202 11.4806 17.9994 11.6712 17.9995 11.8701V12.1301C17.9994 12.3289 17.9202 12.5195 17.7795 12.6601L8.58954 21.8501C8.54465 21.8979 8.49043 21.936 8.43023 21.9621C8.37004 21.9881 8.30514 22.0016 8.23954 22.0016C8.17394 22.0016 8.10904 21.9881 8.04884 21.9621C7.98865 21.936 7.93443 21.8979 7.88954 21.8501L6.82954 20.7901C6.78268 20.7436 6.74548 20.6883 6.72009 20.6273C6.69471 20.5664 6.68164 20.5011 6.68164 20.4351C6.68164 20.369 6.69471 20.3037 6.72009 20.2428C6.74548 20.1818 6.78268 20.1265 6.82954 20.0801L14.9095 12.0001L6.82954 3.92005Z" fill-rule="evenodd"/>
  </g>
</svg>
