<svg xmlns="http://www.w3.org/2000/svg" width="24" height="24" viewBox="0 0 24 24" fill="currentColor">
  <g fill-rule="nonzero">
    <path d="M5 6V11H3.5C3.36739 11 3.24021 11.0527 3.14645 11.1464C3.05268 11.2402 3 11.3674 3 11.5V12.5C3 12.6326 3.05268 12.7598 3.14645 12.8536C3.24021 12.9473 3.36739 13 3.5 13H5V18H3.5C3.36739 18 3.24021 18.0527 3.14645 18.1464C3.05268 18.2402 3 18.3674 3 18.5V19.5C3 19.6326 3.05268 19.7598 3.14645 19.8536C3.24021 19.9473 3.36739 20 3.5 20H5C5 20.5304 5.21071 21.0391 5.58579 21.4142C5.96086 21.7893 6.46957 22 7 22H19C19.5304 22 20.0391 21.7893 20.4142 21.4142C20.7893 21.0391 21 20.5304 21 20V4C21 3.46957 20.7893 2.96086 20.4142 2.58579C20.0391 2.21071 19.5304 2 19 2H7C6.46957 2 5.96086 2.21071 5.58579 2.58579C5.21071 2.96086 5 3.46957 5 4H3.5C3.36739 4 3.24021 4.05268 3.14645 4.14645C3.05268 4.24021 3 4.36739 3 4.5V5.5C3 5.63261 3.05268 5.75979 3.14645 5.85355C3.24021 5.94732 3.36739 6 3.5 6H5ZM13 4.5C13 4.36739 13.0527 4.24021 13.1464 4.14645C13.2402 4.05268 13.3674 4 13.5 4H18.5C18.6326 4 18.7598 4.05268 18.8536 4.14645C18.9473 4.24021 19 4.36739 19 4.5V11.5C19.0011 11.5913 18.9771 11.6811 18.9308 11.7597C18.8844 11.8383 18.8174 11.9027 18.7371 11.946C18.6567 11.9893 18.5661 12.0097 18.4749 12.0051C18.3838 12.0006 18.2956 11.9711 18.22 11.92L16.28 10.62C16.1964 10.5666 16.0992 10.5382 16 10.5382C15.9008 10.5382 15.8036 10.5666 15.72 10.62L13.78 11.92C13.7044 11.9711 13.6162 12.0006 13.5251 12.0051C13.4339 12.0097 13.3433 11.9893 13.2629 11.946C13.1826 11.9027 13.1156 11.8383 13.0692 11.7597C13.0229 11.6811 12.9989 11.5913 13 11.5V4.5Z" fill-rule="evenodd"/>
  </g>
</svg>
