<svg xmlns="http://www.w3.org/2000/svg" width="24" height="24" viewBox="0 0 24 24" fill="currentColor">
  <g fill-rule="nonzero">
    <path d="M12 2C10.0222 2 8.08879 2.58649 6.4443 3.6853C4.79981 4.78412 3.51809 6.3459 2.76121 8.17317C2.00433 10.0004 1.8063 12.0111 2.19215 13.9509C2.578 15.8907 3.53041 17.6725 4.92894 19.0711C6.32746 20.4696 8.10929 21.422 10.0491 21.8079C11.9889 22.1937 13.9996 21.9957 15.8268 21.2388C17.6541 20.4819 19.2159 19.2002 20.3147 17.5557C21.4135 15.9112 22 13.9778 22 12C22 10.6868 21.7413 9.38642 21.2388 8.17317C20.7363 6.95991 19.9997 5.85752 19.0711 4.92893C18.1425 4.00035 17.0401 3.26375 15.8268 2.7612C14.6136 2.25866 13.3132 2 12 2ZM12 20C10.4178 20 8.87104 19.5308 7.55544 18.6518C6.23985 17.7727 5.21447 16.5233 4.60897 15.0615C4.00347 13.5997 3.84504 11.9911 4.15372 10.4393C4.4624 8.88743 5.22433 7.46197 6.34315 6.34315C7.46197 5.22433 8.88743 4.4624 10.4393 4.15372C11.9911 3.84504 13.5997 4.00346 15.0615 4.60896C16.5233 5.21447 17.7727 6.23984 18.6518 7.55544C19.5308 8.87103 20 10.4177 20 12C20 14.1217 19.1572 16.1566 17.6569 17.6569C16.1566 19.1571 14.1217 20 12 20ZM10.15 7.72C10.0369 7.64866 9.9067 7.60888 9.77301 7.60477C9.63931 7.60067 9.50696 7.63239 9.38965 7.69666C9.27234 7.76092 9.17436 7.85538 9.10585 7.97026C9.03734 8.08514 9.00079 8.21625 9 8.35V15.65C9.00079 15.7838 9.03734 15.9149 9.10585 16.0297C9.17436 16.1446 9.27234 16.2391 9.38965 16.3033C9.50696 16.3676 9.63931 16.3993 9.77301 16.3952C9.9067 16.3911 10.0369 16.3513 10.15 16.28L16 12.64C16.1074 12.5712 16.1957 12.4766 16.2569 12.3648C16.3181 12.2529 16.3501 12.1275 16.3501 12C16.3501 11.8725 16.3181 11.7471 16.2569 11.6352C16.1957 11.5234 16.1074 11.4288 16 11.36L10.15 7.72Z" fill-rule="evenodd"/>
  </g>
</svg>
