<svg xmlns="http://www.w3.org/2000/svg" width="24" height="24" viewBox="0 0 24 24" fill="currentColor">
  <g fill-rule="nonzero">
    <path d="M5.5498 22C4.82064 22 4.20089 21.7448 3.69055 21.2343C3.18005 20.7239 2.9248 20.1042 2.9248 19.375V16.25H6.0998V2L7.5948 3.5L9.08981 2L10.5848 3.5L12.0798 2L13.5748 3.5L15.0748 2L16.5748 3.5L18.0748 2L19.5748 3.5L21.0748 2V19.375C21.0748 20.1042 20.8196 20.7239 20.3093 21.2343C19.7988 21.7448 19.179 22 18.4498 22H5.5498ZM18.4498 20.5C18.7831 20.5 19.054 20.3958 19.2623 20.1875C19.4706 19.9792 19.5748 19.7083 19.5748 19.375V4.5H7.5998V16.25H17.3248V19.375C17.3248 19.7083 17.429 19.9792 17.6373 20.1875C17.8456 20.3958 18.1165 20.5 18.4498 20.5ZM8.9248 8.45V6.95H14.9248V8.45H8.9248ZM8.9248 11.8V10.3H14.9248V11.8H8.9248ZM17.2498 8.45C17.0498 8.45 16.8748 8.375 16.7248 8.225C16.5748 8.075 16.4998 7.9 16.4998 7.7C16.4998 7.5 16.5748 7.325 16.7248 7.175C16.8748 7.025 17.0498 6.95 17.2498 6.95C17.4498 6.95 17.6248 7.025 17.7748 7.175C17.9248 7.325 17.9998 7.5 17.9998 7.7C17.9998 7.9 17.9248 8.075 17.7748 8.225C17.6248 8.375 17.4498 8.45 17.2498 8.45ZM17.2498 11.675C17.0498 11.675 16.8748 11.6 16.7248 11.45C16.5748 11.3 16.4998 11.125 16.4998 10.925C16.4998 10.725 16.5748 10.55 16.7248 10.4C16.8748 10.25 17.0498 10.175 17.2498 10.175C17.4498 10.175 17.6248 10.25 17.7748 10.4C17.9248 10.55 17.9998 10.725 17.9998 10.925C17.9998 11.125 17.9248 11.3 17.7748 11.45C17.6248 11.6 17.4498 11.675 17.2498 11.675ZM5.5248 20.5H15.8248V17.75H4.4248V19.375C4.4248 19.7083 4.53022 19.9792 4.74105 20.1875C4.95189 20.3958 5.21314 20.5 5.5248 20.5Z" fill-rule="evenodd"/>
  </g>
</svg>
