<svg xmlns="http://www.w3.org/2000/svg" width="24" height="24" viewBox="0 0 24 24" fill="currentColor">
  <g fill-rule="nonzero">
    <path d="M20.4999 10.0001H15.4999C15.3673 10.0001 15.2402 9.94741 15.1464 9.85364C15.0526 9.75987 14.9999 9.6327 14.9999 9.50009V9.21009C14.999 9.14301 15.0118 9.07645 15.0376 9.01452C15.0634 8.9526 15.1016 8.89663 15.1499 8.85009L16.9299 7.07009C16.2862 6.41575 15.5189 5.89582 14.6726 5.54047C13.8263 5.18512 12.9178 5.00144 11.9999 5.00009C10.6362 5.00317 9.30301 5.40455 8.16423 6.15492C7.02545 6.90529 6.13066 7.97197 5.58979 9.2239C5.04893 10.4758 4.88554 11.8585 5.11971 13.202C5.35388 14.5455 5.9754 15.7914 6.90792 16.7865C7.84044 17.7817 9.04334 18.4827 10.3688 18.8036C11.6943 19.1244 13.0847 19.0511 14.3691 18.5926C15.6535 18.1342 16.776 17.3105 17.5986 16.2228C18.4213 15.1351 18.9084 13.8308 18.9999 12.4701C19.0076 12.3427 19.0636 12.2231 19.1566 12.1358C19.2495 12.0484 19.3724 11.9999 19.4999 12.0001H20.4999C20.6363 12.0041 20.7656 12.0616 20.8599 12.1601C20.9054 12.2098 20.9404 12.2682 20.9627 12.3318C20.9851 12.3954 20.9943 12.4628 20.9899 12.5301C20.8694 14.5862 20.0473 16.5387 18.6609 18.0618C17.2744 19.5849 15.4075 20.5864 13.3718 20.8991C11.336 21.2118 9.25462 20.8168 7.47497 19.78C5.69531 18.7433 4.3251 17.1274 3.59305 15.2023C2.86099 13.2772 2.81139 11.1592 3.45251 9.2019C4.09364 7.2446 5.3867 5.56642 7.11586 4.44746C8.84502 3.32851 10.9057 2.8365 12.9538 3.05355C15.002 3.27059 16.9137 4.18357 18.37 5.64009L19.8599 4.15009C19.9053 4.10299 19.9597 4.06546 20.0198 4.0397C20.0799 4.01394 20.1446 4.00047 20.2099 4.00009H20.4999C20.6326 4.00009 20.7597 4.05277 20.8535 4.14653C20.9473 4.2403 20.9999 4.36748 20.9999 4.50009V9.50009C20.9999 9.6327 20.9473 9.75987 20.8535 9.85364C20.7597 9.94741 20.6326 10.0001 20.4999 10.0001Z" fill-rule="evenodd"/>
  </g>
</svg>
