<svg xmlns="http://www.w3.org/2000/svg" width="24" height="24" viewBox="0 0 24 24" fill="currentColor">
  <g fill-rule="nonzero">
    <path d="M21,9.51a3,3,0,0,0-.88-2.12L16.61,3.88A3,3,0,0,0,14.49,3h-5a3,3,0,0,0-2.12.88L3.88,7.39A3,3,0,0,0,3,9.51v5a3,3,0,0,0,.88,2.12l3.51,3.51A3,3,0,0,0,9.51,21h5a3,3,0,0,0,2.12-.88l3.51-3.51A3,3,0,0,0,21,14.49Zm-8,6a.5.5,0,0,1-.5.5h-1a.5.5,0,0,1-.5-.5v-1a.5.5,0,0,1,.5-.5h1a.5.5,0,0,1,.5.5Zm-.22-3.72a.25.25,0,0,1-.25.22H11.47a.25.25,0,0,1-.25-.22l-.4-3.22a.5.5,0,0,1,.5-.56h1.36a.5.5,0,0,1,.5.56Z" fill-rule="evenodd"/>
  </g>
</svg>
