<svg xmlns="http://www.w3.org/2000/svg" width="24" height="24" viewBox="0 0 24 24" fill="currentColor">
  <g fill-rule="nonzero">
    <path d="M6.00006 11.00000C6.00006 10.46956 6.21078 9.96086 6.58584 9.58578C6.96091 9.21072 7.46963 9.00000 8.00005 9.00000H16.00005C16.53045 9.00000 17.03925 9.21072 17.41425 9.58578C17.78940 9.96086 18.00000 10.46956 18.00000 11.00000V18.00000C18.00000 18.53040 17.78940 19.03920 17.41425 19.41420C17.03925 19.78935 16.53045 19.99995 16.00005 19.99995H8.00005C7.46963 19.99995 6.96091 19.78935 6.58584 19.41420C6.21078 19.03920 6.00006 18.53040 6.00006 18.00000V11.00000ZM12.00006 1.99999C11.46963 1.99999 10.96092 2.21071 10.58584 2.58579C10.21077 2.96087 10.00006 3.46956 10.00006 4.00000C10.00217 4.34903 10.09558 4.69143 10.27101 4.99317C10.44644 5.29491 10.69779 5.54549 11.00005 5.71999V7.00000H8.00005C6.93919 7.00000 5.92178 7.42143 5.17164 8.17158C4.42149 8.92171 4.00007 9.93914 4.00007 11.00000V13.00000C3.46963 13.00000 2.96093 13.21071 2.58585 13.58579C2.21077 13.96086 2.00005 14.46957 2.00005 15.00000C2.00005 15.53040 2.21077 16.03920 2.58585 16.41420C2.96093 16.78935 3.46963 16.99995 4.00007 16.99995V18.00000C4.00007 19.06080 4.42149 20.07825 5.17164 20.82840C5.92178 21.57855 6.93919 22.00005 8.00005 22.00005H16.00005C17.06100 22.00005 18.07830 21.57855 18.82845 20.82840C19.57860 20.07825 20.00010 19.06080 20.00010 18.00000V16.99995C20.53050 16.99995 21.03915 16.78935 21.41430 16.41420C21.78930 16.03920 22.00005 15.53040 22.00005 15.00000C22.00005 14.46957 21.78930 13.96086 21.41430 13.58579C21.03915 13.21071 20.53050 13.00000 20.00010 13.00000V11.00000C20.00010 9.93914 19.57860 8.92171 18.82845 8.17158C18.07830 7.42143 17.06100 7.00000 16.00005 7.00000H13.00006V5.71999C13.34404 5.51635 13.61910 5.21432 13.78977 4.85283C13.96043 4.49136 14.01885 4.08704 13.95750 3.69203C13.89615 3.29703 13.71785 2.92947 13.44558 2.63679C13.17331 2.34409 12.81960 2.13972 12.43006 2.05001C12.28970 2.01369 12.14500 1.99686 12.00006 1.99999ZM11.00005 12.50000C11.00005 12.10218 10.84203 11.72064 10.56072 11.43934C10.27941 11.15803 9.89788 11.00000 9.50005 11.00000C9.10224 11.00000 8.72070 11.15803 8.43941 11.43934C8.15809 11.72064 8.00005 12.10218 8.00005 12.50000C8.00005 12.63261 8.05274 12.75978 8.14650 12.85356C8.24028 12.94733 8.36745 13.00000 8.50006 13.00000H10.50006C10.63267 13.00000 10.75985 12.94733 10.85361 12.85356C10.94738 12.75978 11.00005 12.63261 11.00005 12.50000ZM14.50006 11.00000C14.10224 11.00000 13.72071 11.15803 13.43940 11.43934C13.15809 11.72064 13.00006 12.10218 13.00006 12.50000C13.00006 12.63261 13.05274 12.75978 13.14651 12.85356C13.24028 12.94733 13.36745 13.00000 13.50006 13.00000H15.50010C15.63270 13.00000 15.75990 12.94733 15.85365 12.85356C15.94740 12.75978 16.00005 12.63261 16.00005 12.50000C16.00005 12.10218 15.84195 11.72064 15.56070 11.43934C15.27945 11.15803 14.89788 11.00000 14.50006 11.00000ZM14.00005 15.00000H10.00006C9.73485 15.00000 9.48050 15.10530 9.29295 15.29295C9.10542 15.48045 9.00006 15.73485 9.00006 16.00005C9.00006 16.53045 9.21078 17.03910 9.58584 17.41425C9.96091 17.78925 10.46963 18.00000 11.00005 18.00000H13.00006C13.53049 18.00000 14.03920 17.78925 14.41428 17.41425C14.78934 17.03910 15.00000 16.53045 15.00000 16.00005C15.00000 15.73485 14.89470 15.48045 14.70717 15.29295C14.51963 15.10530 14.26527 15.00000 14.00005 15.00000Z" fill-rule="evenodd"/>
  </g>
</svg>
