<svg xmlns="http://www.w3.org/2000/svg" width="24" height="24" viewBox="0 0 24 24" fill="currentColor">
  <g fill-rule="nonzero">
    <path d="M21 7.24C20.9993 6.44462 20.6828 5.68207 20.12 5.12L16.59 1.59C16.4039 1.40283 16.1827 1.25434 15.939 1.15308C15.6953 1.05182 15.4339 0.999792 15.17 1H8.83C8.56609 0.999792 8.30474 1.05182 8.06103 1.15308C7.81732 1.25434 7.59606 1.40283 7.41 1.59L3.88 5.12C3.31723 5.68207 3.0007 6.44462 3 7.24V13.09C3.00091 14.3076 3.27974 15.5089 3.81522 16.6024C4.35071 17.6959 5.12873 18.6527 6.09 19.4L10.17 22.58C10.5218 22.853 10.9547 23.0008 11.4 23H12.6C13.0453 23.0008 13.4782 22.853 13.83 22.58L17.91 19.4C18.8713 18.6527 19.6493 17.6959 20.1848 16.6024C20.7203 15.5089 20.9991 14.3076 21 13.09V7.24ZM16.35 9.24L10.73 14.86C10.6851 14.9078 10.6309 14.946 10.5707 14.972C10.5105 14.9981 10.4456 15.0115 10.38 15.0115C10.3144 15.0115 10.2495 14.9981 10.1893 14.972C10.1291 14.946 10.0749 14.9078 10.03 14.86L7.65 12.48C7.60314 12.4335 7.56594 12.3782 7.54055 12.3173C7.51517 12.2564 7.5021 12.191 7.5021 12.125C7.5021 12.059 7.51517 11.9936 7.54055 11.9327C7.56594 11.8718 7.60314 11.8165 7.65 11.77L8.18 11.24C8.22489 11.1922 8.27911 11.154 8.3393 11.128C8.3995 11.1019 8.4644 11.0885 8.53 11.0885C8.5956 11.0885 8.6605 11.1019 8.72069 11.128C8.78089 11.154 8.83511 11.1922 8.88 11.24L10.38 12.73L15.12 8C15.2135 7.90839 15.3391 7.85707 15.47 7.85707C15.6009 7.85707 15.7265 7.90839 15.82 8L16.35 8.53C16.4416 8.62346 16.4929 8.74912 16.4929 8.88C16.4929 9.01088 16.4416 9.13654 16.35 9.23V9.24Z" fill-rule="evenodd"/>
  </g>
</svg>
