<svg xmlns="http://www.w3.org/2000/svg" width="24" height="24" viewBox="0 0 24 24" fill="currentColor">
  <g fill-rule="nonzero">
    <path d="M20.12 5.12L16.59 1.59C16.4039 1.40283 16.1827 1.25434 15.939 1.15308C15.6953 1.05182 15.4339 0.999792 15.17 1H8.83C8.56609 0.999792 8.30474 1.05182 8.06103 1.15308C7.81732 1.25434 7.59606 1.40283 7.41 1.59L3.88 5.12C3.31723 5.68207 3.0007 6.44462 3 7.24V13.09C3.00091 14.3076 3.27974 15.5089 3.81522 16.6024C4.35071 17.6959 5.12873 18.6527 6.09 19.4L10.17 22.58C10.5218 22.853 10.9547 23.0008 11.4 23H12.6C13.0453 23.0008 13.4782 22.853 13.83 22.58L17.91 19.4C18.8713 18.6527 19.6493 17.6959 20.1848 16.6024C20.7203 15.5089 20.9991 14.3076 21 13.09V7.24C20.9993 6.44462 20.6828 5.68207 20.12 5.12ZM19 13.12C19.0039 14.0339 18.7966 14.9363 18.3941 15.7568C17.9917 16.5773 17.405 17.2937 16.68 17.85L12.6 21H12V12H5V7.24C5.0011 6.97766 5.10526 6.72626 5.29 6.54L8.83 3H12V12H19V13.12Z" fill-rule="evenodd"/>
  </g>
</svg>
