<svg xmlns="http://www.w3.org/2000/svg" width="24" height="24" viewBox="0 0 24 24" fill="currentColor">
  <g fill-rule="nonzero">
    <path d="M22 12C22 14.3869 21.0518 16.6761 19.3639 18.364C17.6761 20.0518 15.3869 21 13 21C11.1524 21.0061 9.3488 20.4363 7.83997 19.37C7.7804 19.3271 7.73079 19.2718 7.69455 19.2079C7.65831 19.1441 7.63628 19.0732 7.62997 19C7.62408 18.9288 7.63352 18.8571 7.65767 18.7898C7.68182 18.7225 7.72012 18.6612 7.76997 18.61L8.48997 17.88C8.57195 17.7989 8.67946 17.7486 8.79427 17.7376C8.90909 17.7267 9.02416 17.7558 9.11997 17.82C10.2662 18.5925 11.6177 19.0036 13 19C14.3844 19 15.7378 18.5895 16.889 17.8203C18.0401 17.0511 18.9373 15.9579 19.4671 14.6788C19.9969 13.3997 20.1356 11.9922 19.8655 10.6344C19.5954 9.2765 18.9287 8.02922 17.9497 7.05025C16.9708 6.07128 15.7235 5.4046 14.3656 5.1345C13.0077 4.86441 11.6003 5.00303 10.3212 5.53284C9.04211 6.06266 7.94886 6.95986 7.17969 8.11101C6.41052 9.26215 5.99997 10.6155 5.99997 12H8.35997C8.42705 11.999 8.49362 12.0118 8.55554 12.0376C8.61747 12.0634 8.67343 12.1017 8.71997 12.15L8.91997 12.35C8.96684 12.3965 9.00404 12.4518 9.02942 12.5127C9.0548 12.5736 9.06787 12.639 9.06787 12.705C9.06787 12.771 9.0548 12.8364 9.02942 12.8973C9.00404 12.9582 8.96684 13.0135 8.91997 13.06L5.38997 16.6C5.29482 16.6922 5.1675 16.7438 5.03497 16.7438C4.90245 16.7438 4.77512 16.6922 4.67997 16.6L1.14997 13.06C1.10311 13.0135 1.06591 12.9582 1.04053 12.8973C1.01514 12.8364 1.00208 12.771 1.00208 12.705C1.00208 12.639 1.01514 12.5736 1.04053 12.5127C1.06591 12.4518 1.10311 12.3965 1.14997 12.35L1.34997 12.15C1.39652 12.1017 1.45248 12.0634 1.51441 12.0376C1.57633 12.0118 1.6429 11.999 1.70997 12H3.99997C3.99997 9.61305 4.94819 7.32387 6.63601 5.63604C8.32384 3.94821 10.613 3 13 3C15.3869 3 17.6761 3.94821 19.3639 5.63604C21.0518 7.32387 22 9.61305 22 12V12ZM15 12C15 11.6044 14.8827 11.2178 14.6629 10.8889C14.4432 10.56 14.1308 10.3036 13.7653 10.1522C13.3999 10.0009 12.9978 9.96126 12.6098 10.0384C12.2218 10.1156 11.8655 10.3061 11.5858 10.5858C11.3061 10.8655 11.1156 11.2219 11.0384 11.6098C10.9612 11.9978 11.0008 12.3999 11.1522 12.7654C11.3036 13.1308 11.5599 13.4432 11.8888 13.6629C12.2177 13.8827 12.6044 14 13 14C13.5304 14 14.0391 13.7893 14.4142 13.4142C14.7893 13.0391 15 12.5304 15 12Z" fill-rule="evenodd"/>
  </g>
</svg>
