<svg xmlns="http://www.w3.org/2000/svg" width="24" height="24" viewBox="0 0 24 24" fill="currentColor">
  <g fill-rule="nonzero">
    <path d="M20.21 14.0696C19.9708 13.871 19.7812 13.6194 19.6562 13.3347C19.5312 13.05 19.4743 12.7401 19.49 12.4296C19.49 12.2896 19.49 12.1396 19.49 11.9996C19.49 11.8596 19.49 11.7096 19.49 11.5696C19.4743 11.2591 19.5312 10.9492 19.6562 10.6645C19.7812 10.3798 19.9708 10.1282 20.21 9.92961L21.01 9.26961C21.1922 9.1192 21.3152 8.90915 21.3573 8.67669C21.3994 8.44422 21.3579 8.20436 21.24 7.99961L20.08 5.99961C19.9928 5.84848 19.8675 5.7228 19.7166 5.63509C19.5657 5.54737 19.3945 5.50067 19.22 5.49961C19.0997 5.49761 18.9803 5.52148 18.87 5.56961L17.87 5.92961C17.647 6.0169 17.4095 6.06102 17.17 6.05961C16.7868 6.05862 16.4119 5.94755 16.09 5.73961C15.8549 5.57721 15.6075 5.43344 15.35 5.30961C15.0725 5.1673 14.8321 4.96207 14.6481 4.7103C14.464 4.45853 14.3414 4.16722 14.29 3.85961L14.12 2.85961C14.0817 2.62299 13.9596 2.40801 13.7761 2.25383C13.5925 2.09965 13.3597 2.01653 13.12 2.01961H10.82C10.5803 2.01653 10.3475 2.09965 10.164 2.25383C9.98041 2.40801 9.85836 2.62299 9.82002 2.85961L9.65002 3.85961C9.6029 4.16345 9.48636 4.45233 9.30946 4.7038C9.13256 4.95528 8.90006 5.16259 8.63002 5.30961C8.37252 5.43344 8.1251 5.57721 7.89002 5.73961C7.56811 5.94755 7.19324 6.05862 6.81002 6.05961C6.57056 6.06102 6.33301 6.0169 6.11002 5.92961L5.11002 5.56961C4.99972 5.52148 4.88036 5.49761 4.76002 5.49961C4.58551 5.50067 4.41431 5.54737 4.26344 5.63509C4.11257 5.7228 3.98728 5.84848 3.90002 5.99961L2.76002 7.99961C2.64328 8.20547 2.60333 8.44606 2.64728 8.6786C2.69122 8.91114 2.81621 9.12055 3.00002 9.26961L3.80002 9.92961C4.03925 10.1282 4.22888 10.3798 4.35387 10.6645C4.47885 10.9492 4.53574 11.2591 4.52002 11.5696C4.52002 11.7096 4.52002 11.8596 4.52002 11.9996C4.52002 12.1396 4.52002 12.2896 4.52002 12.4296C4.53574 12.7401 4.47885 13.05 4.35387 13.3347C4.22888 13.6194 4.03925 13.871 3.80002 14.0696L3.00002 14.7296C2.81621 14.8787 2.69122 15.0881 2.64728 15.3206C2.60333 15.5532 2.64328 15.7938 2.76002 15.9996L3.92002 17.9996C4.00728 18.1508 4.13257 18.2764 4.28344 18.3641C4.43431 18.4519 4.60551 18.4986 4.78002 18.4996C4.90036 18.5016 5.01972 18.4778 5.13002 18.4296L6.13002 18.0696C6.35301 17.9823 6.59056 17.9382 6.83002 17.9396C7.21324 17.9406 7.58811 18.0517 7.91002 18.2596C8.1451 18.422 8.39252 18.5658 8.65002 18.6896C8.92752 18.8319 9.1679 19.0372 9.35195 19.2889C9.536 19.5407 9.65862 19.832 9.71002 20.1396L9.88002 21.1396C9.91836 21.3762 10.0404 21.5912 10.224 21.7454C10.4075 21.8996 10.6403 21.9827 10.88 21.9796H13.18C13.4197 21.9827 13.6525 21.8996 13.8361 21.7454C14.0196 21.5912 14.1417 21.3762 14.18 21.1396L14.35 20.1396C14.4014 19.832 14.524 19.5407 14.7081 19.2889C14.8921 19.0372 15.1325 18.8319 15.41 18.6896C15.6675 18.5658 15.9149 18.422 16.15 18.2596C16.4719 18.0517 16.8468 17.9406 17.23 17.9396C17.4695 17.9382 17.707 17.9823 17.93 18.0696L18.93 18.4296C19.0403 18.4778 19.1597 18.5016 19.28 18.4996C19.4545 18.4986 19.6257 18.4519 19.7766 18.3641C19.9275 18.2764 20.0528 18.1508 20.14 17.9996L21.3 15.9996C21.4104 15.7871 21.4408 15.542 21.3857 15.3089C21.3307 15.0759 21.1938 14.8703 21 14.7296L20.21 14.0696ZM12 17.4996C10.9122 17.4996 9.84886 17.177 8.94439 16.5727C8.03992 15.9683 7.33497 15.1094 6.91868 14.1044C6.5024 13.0994 6.39348 11.9935 6.6057 10.9266C6.81792 9.85972 7.34175 8.87972 8.11093 8.11053C8.88012 7.34134 9.86013 6.81751 10.927 6.6053C11.9939 6.39308 13.0998 6.50199 14.1048 6.91828C15.1098 7.33456 15.9688 8.03951 16.5731 8.94398C17.1775 9.84845 17.5 10.9118 17.5 11.9996C17.5 13.4583 16.9206 14.8573 15.8891 15.8887C14.8577 16.9202 13.4587 17.4996 12 17.4996ZM12 9.99961C11.6045 9.99961 11.2178 10.1169 10.8889 10.3367C10.56 10.5564 10.3036 10.8688 10.1523 11.2342C10.0009 11.5997 9.96128 12.0018 10.0385 12.3898C10.1156 12.7778 10.3061 13.1341 10.5858 13.4138C10.8655 13.6935 11.2219 13.884 11.6098 13.9612C11.9978 14.0384 12.3999 13.9987 12.7654 13.8474C13.1308 13.696 13.4432 13.4397 13.663 13.1108C13.8827 12.7819 14 12.3952 14 11.9996C14 11.4692 13.7893 10.9605 13.4142 10.5854C13.0392 10.2103 12.5305 9.99961 12 9.99961Z" fill-rule="evenodd"/>
  </g>
</svg>
