<svg xmlns="http://www.w3.org/2000/svg" width="24" height="24" viewBox="0 0 24 24" fill="currentColor">
  <g fill-rule="nonzero">
    <path d="M4 4.5V3.5C4 3.36739 4.05268 3.24021 4.14645 3.14645C4.24021 3.05268 4.36739 3 4.5 3H19.5C19.6326 3 19.7598 3.05268 19.8536 3.14645C19.9473 3.24021 20 3.36739 20 3.5V4.5C20 4.63261 19.9473 4.75979 19.8536 4.85355C19.7598 4.94732 19.6326 5 19.5 5H4.5C4.36739 5 4.24021 4.94732 4.14645 4.85355C4.05268 4.75979 4 4.63261 4 4.5ZM21.79 10.58L20.28 7.58C20.1961 7.41356 20.0674 7.27388 19.9084 7.17669C19.7494 7.07951 19.5664 7.0287 19.38 7.03H4.62C4.43364 7.0287 4.25062 7.07951 4.09159 7.17669C3.93257 7.27388 3.80386 7.41356 3.72 7.58L2.21 10.58C2.07221 10.8565 2.00033 11.1611 2 11.47V12C2 12.2652 2.10536 12.5196 2.29289 12.7071C2.48043 12.8946 2.73478 13 3 13H4V20C4 20.2652 4.10536 20.5196 4.29289 20.7071C4.48043 20.8946 4.73478 21 5 21H9C9.26522 21 9.51957 20.8946 9.70711 20.7071C9.89464 20.5196 10 20.2652 10 20V15.25C10 15.1837 10.0263 15.1201 10.0732 15.0732C10.1201 15.0263 10.1837 15 10.25 15H13.75C13.8163 15 13.8799 15.0263 13.9268 15.0732C13.9737 15.1201 14 15.1837 14 15.25V20C14 20.2652 14.1054 20.5196 14.2929 20.7071C14.4804 20.8946 14.7348 21 15 21H19C19.2652 21 19.5196 20.8946 19.7071 20.7071C19.8946 20.5196 20 20.2652 20 20V13H21C21.2652 13 21.5196 12.8946 21.7071 12.7071C21.8946 12.5196 22 12.2652 22 12V11.47C21.9997 11.1611 21.9278 10.8565 21.79 10.58Z" fill-rule="evenodd"/>
  </g>
</svg>
