<svg xmlns="http://www.w3.org/2000/svg" width="24" height="24" viewBox="0 0 24 24" fill="currentColor">
  <g fill-rule="nonzero">
    <path d="M18,2H6A4,4,0,0,0,2,6V21.5a.5.5,0,0,0,.5.5.49.49,0,0,0,.35-.15l3-3A3,3,0,0,1,8,18H18a4,4,0,0,0,4-4V6A4,4,0,0,0,18,2Zm0,14H8a5,5,0,0,0-3.54,1.46L4,17.88V6A2,2,0,0,1,6,4H18a2,2,0,0,1,2,2v8A2,2,0,0,1,18,16ZM7.5,11h1a.5.5,0,0,0,.5-.5v-1A.5.5,0,0,0,8.5,9h-1a.5.5,0,0,0-.5.5v1A.5.5,0,0,0,7.5,11Zm4,0h1a.5.5,0,0,0,.5-.5v-1a.5.5,0,0,0-.5-.5h-1a.5.5,0,0,0-.5.5v1A.5.5,0,0,0,11.5,11Zm4,0h1a.5.5,0,0,0,.5-.5v-1a.5.5,0,0,0-.5-.5h-1a.5.5,0,0,0-.5.5v1A.5.5,0,0,0,15.5,11Z" fill-rule="evenodd"/>
  </g>
</svg>
