<svg xmlns="http://www.w3.org/2000/svg" width="24" height="24" viewBox="0 0 24 24" fill="currentColor">
  <g fill-rule="nonzero">
    <path d="M2.18 9.86A.49.49 0 0 1 2 9.32l.08-.25a.49.49 0 0 1 .44-.35l6.39-.51 2.45-5.89a.51.51 0 0 1 .51-.32h.26a.49.49 0 0 1 .47.32l2.46 5.89 6.39.51a.49.49 0 0 1 .44.35l.08.25a.49.49 0 0 1-.15.54L17 14l1.48 6.21a.51.51 0 0 1-.19.53l-.29.16a.5.5 0 0 1-.56 0L12 17.6l-5.47 3.33a.5.5 0 0 1-.56 0l-.22-.15a.51.51 0 0 1-.19-.53L7 14 2.18 9.86Z" fill-rule="evenodd"/>
  </g>
</svg>
