<svg xmlns="http://www.w3.org/2000/svg" width="24" height="24" viewBox="0 0 24 24" fill="currentColor">
  <g fill-rule="nonzero">
    <path d="m13.86 9.87 4.81.38L15 13.38l1.12 4.68L12 15.55l-4.13 2.51L9 13.38l-3.67-3.13 4.81-.38L12 5.41l1.86 4.46ZM11.87 2a.51.51 0 0 0-.48.32L8.94 8.21l-6.39.51a.49.49 0 0 0-.44.35L2 9.32a.49.49 0 0 0 .15.54L7 14l-1.44 6.22a.51.51 0 0 0 .19.53l.25.15a.47.47 0 0 0 .3.1.48.48 0 0 0 .26-.07L12 17.6l5.47 3.33a.48.48 0 0 0 .26.07.47.47 0 0 0 .3-.1l.22-.15a.51.51 0 0 0 .19-.53L17 14l4.86-4.15a.49.49 0 0 0 .14-.53l-.08-.25a.49.49 0 0 0-.44-.35l-6.39-.51-2.49-5.89a.49.49 0 0 0-.47-.32h-.26Z" fill-rule="evenodd"/>
  </g>
</svg>
