<svg xmlns="http://www.w3.org/2000/svg" width="24" height="24" viewBox="0 0 24 24" fill="currentColor">
  <g fill-rule="nonzero">
    <path d="M18.73,24H5.27c-1.6,0-2.48,0-3.26-.4-.69-.35-1.25-.91-1.6-1.6-.4-.78-.4-1.67-.4-3.27V5.27c0-1.6,0-2.48.4-3.26.35-.69.91-1.25,1.6-1.6.79-.4,1.67-.4,3.27-.4h13.47c1.6,0,2.48,0,3.26.4.7.36,1.25.91,1.6,1.6.4.78.4,1.66.4,3.26v13.47c0,1.6,0,2.48-.4,3.26-.36.7-.91,1.25-1.6,1.6-.78.4-1.66.4-3.26.4ZM5.27,2c-1.29,0-2,0-2.36.18-.32.16-.57.41-.73.73-.18.36-.18,1.07-.18,2.36v13.47c0,1.29,0,2,.18,2.36.16.32.41.57.73.73.36.18,1.07.18,2.36.18h13.47c1.29,0,2,0,2.36-.18.32-.16.57-.41.73-.73.18-.36.18-1.07.18-2.36V5.27c0-1.29,0-2-.18-2.36-.16-.32-.41-.57-.73-.73-.36-.18-1.07-.18-2.36-.18H5.27Z" fill-rule="evenodd"/>
  </g>
</svg>
