<svg xmlns="http://www.w3.org/2000/svg" width="24" height="24" viewBox="0 0 24 24" fill="currentColor">
  <g fill-rule="nonzero">
    <path d="M21 11.025V19.5C21 19.9 20.85 20.25 20.55 20.55C20.25 20.85 19.9 21 19.5 21H4.47498C4.07498 21 3.72498 20.85 3.42498 20.55C3.12498 20.25 2.97498 19.9 2.97498 19.5V11.025C2.50831 10.625 2.19998 10.1333 2.04998 9.55C1.89998 8.96667 1.91665 8.38333 2.09998 7.8L3.17498 4.425C3.30831 3.975 3.54165 3.625 3.87498 3.375C4.20831 3.125 4.59165 3 5.02498 3H18.85C19.3166 3 19.725 3.12917 20.075 3.3875C20.425 3.64583 20.6666 3.99167 20.8 4.425L21.9 7.8C22.0833 8.38333 22.0958 8.96667 21.9375 9.55C21.7791 10.1333 21.4666 10.625 21 11.025ZM14.25 10.25C14.7333 10.25 15.1416 10.0917 15.475 9.775C15.8083 9.45833 15.9416 9.075 15.875 8.625L15.25 4.5H12.75V8.625C12.75 9.05833 12.8916 9.4375 13.175 9.7625C13.4583 10.0875 13.8166 10.25 14.25 10.25ZM9.57498 10.25C10.0416 10.25 10.4375 10.0917 10.7625 9.775C11.0875 9.45833 11.25 9.075 11.25 8.625V4.5H8.74998L8.12498 8.625C8.05831 9.05833 8.17498 9.4375 8.47498 9.7625C8.77498 10.0875 9.14165 10.25 9.57498 10.25ZM5.02498 10.25C5.42498 10.25 5.77081 10.1125 6.06248 9.8375C6.35415 9.5625 6.52498 9.225 6.57498 8.825L7.22498 4.5H4.72498L3.57498 8.15C3.40831 8.66667 3.47498 9.14583 3.77498 9.5875C4.07498 10.0292 4.49165 10.25 5.02498 10.25ZM18.95 10.25C19.4833 10.25 19.9041 10.0333 20.2125 9.6C20.5208 9.16667 20.5916 8.68333 20.425 8.15L19.275 4.5H16.775L17.425 8.825C17.475 9.225 17.6458 9.5625 17.9375 9.8375C18.2291 10.1125 18.5666 10.25 18.95 10.25ZM4.47498 19.5H19.5V11.725C19.5166 11.7417 19.4625 11.75 19.3375 11.75H18.95C18.5333 11.75 18.1375 11.6625 17.7625 11.4875C17.3875 11.3125 17.0166 11.0417 16.65 10.675C16.3833 11.0083 16.05 11.2708 15.65 11.4625C15.25 11.6542 14.8083 11.75 14.325 11.75C13.825 11.75 13.3958 11.6792 13.0375 11.5375C12.6791 11.3958 12.3333 11.1583 12 10.825C11.75 11.125 11.4333 11.3542 11.05 11.5125C10.6666 11.6708 10.2333 11.75 9.74998 11.75C9.23331 11.75 8.77498 11.6583 8.37498 11.475C7.97498 11.2917 7.63331 11.025 7.34998 10.675C6.94998 11.025 6.55831 11.2917 6.17498 11.475C5.79165 11.6583 5.40831 11.75 5.02498 11.75H4.68748C4.57915 11.75 4.50831 11.7417 4.47498 11.725V19.5Z" fill-rule="evenodd"/>
  </g>
</svg>
