<svg xmlns="http://www.w3.org/2000/svg" width="24" height="24" viewBox="0 0 24 24" fill="currentColor">
  <g fill-rule="nonzero">
    <path d="M6.99994 19C5.93907 19 4.92166 18.5786 4.17151 17.8284C3.42137 17.0783 2.99994 16.0609 2.99994 15C2.99994 13.9391 3.42137 12.9217 4.17151 12.1716C4.92166 11.4214 5.93907 11 6.99994 11H16.9999C17.5304 11 18.0391 10.7893 18.4142 10.4142C18.7892 10.0391 18.9999 9.53044 18.9999 9.00001C18.9999 8.46957 18.7892 7.96087 18.4142 7.58579C18.0391 7.21072 17.5304 7.00001 16.9999 7.00001H5.99994V9.00001C5.99857 9.09787 5.9685 9.19318 5.91347 9.27412C5.85844 9.35505 5.78087 9.41806 5.69037 9.45532C5.59986 9.49259 5.50042 9.50247 5.40435 9.48375C5.30829 9.46503 5.21983 9.41853 5.14994 9.35001L2.14994 6.35001C2.05769 6.25486 2.0061 6.12753 2.0061 5.99501C2.0061 5.86248 2.05769 5.73516 2.14994 5.64001L5.14994 2.64001C5.22044 2.5709 5.30981 2.52422 5.4068 2.50582C5.50379 2.48743 5.60405 2.49816 5.69495 2.53666C5.78585 2.57516 5.86332 2.6397 5.91759 2.72216C5.97187 2.80462 6.00052 2.90129 5.99994 3.00001V5.00001H16.9999C18.0608 5.00001 19.0782 5.42143 19.8284 6.17158C20.5785 6.92173 20.9999 7.93914 20.9999 9.00001C20.9999 10.0609 20.5785 11.0783 19.8284 11.8284C19.0782 12.5786 18.0608 13 16.9999 13H6.99994C6.46951 13 5.9608 13.2107 5.58573 13.5858C5.21065 13.9609 4.99994 14.4696 4.99994 15C4.99994 15.5304 5.21065 16.0391 5.58573 16.4142C5.9608 16.7893 6.46951 17 6.99994 17H17.9999V15C17.9994 14.9013 18.028 14.8046 18.0823 14.7222C18.1366 14.6397 18.214 14.5752 18.3049 14.5367C18.3958 14.4982 18.4961 14.4874 18.5931 14.5058C18.6901 14.5242 18.7794 14.5709 18.8499 14.64L21.8499 17.64C21.9422 17.7352 21.9938 17.8625 21.9938 17.995C21.9938 18.1275 21.9422 18.2549 21.8499 18.35L18.8499 21.35C18.7801 21.4185 18.6916 21.465 18.5955 21.4838C18.4995 21.5025 18.4 21.4926 18.3095 21.4553C18.219 21.4181 18.1414 21.3551 18.0864 21.2741C18.0314 21.1932 18.0013 21.0979 17.9999 21V19H6.99994Z" fill-rule="evenodd"/>
  </g>
</svg>
