<svg xmlns="http://www.w3.org/2000/svg" width="24" height="24" viewBox="0 0 24 24" fill="currentColor">
  <g fill-rule="nonzero">
    <path d="M11.8501 1.34985C11.8984 1.39639 11.9367 1.45236 11.9625 1.51429C11.9883 1.57621 12.0011 1.64277 12.0001 1.70985V3.99985C13.4037 4.00129 14.7822 4.37199 15.9972 5.07472C17.2122 5.77746 18.221 6.78749 18.9222 8.0034C19.6233 9.21931 19.9923 10.5983 19.9919 12.0019C19.9915 13.4055 19.6219 14.7843 18.9201 15.9999C18.8798 16.0645 18.8257 16.1195 18.7618 16.161C18.6979 16.2025 18.6256 16.2294 18.5501 16.2399C18.474 16.2503 18.3966 16.2431 18.3238 16.2189C18.2509 16.1946 18.1847 16.1539 18.1301 16.0999L17.4001 15.3699C17.3237 15.2943 17.2736 15.196 17.2574 15.0898C17.2412 14.9835 17.2597 14.8748 17.3101 14.7799C17.7634 13.9233 18.0003 12.9689 18.0001 11.9999C18.0001 10.4086 17.368 8.88243 16.2427 7.75721C15.1175 6.63199 13.5914 5.99985 12.0001 5.99985V8.35985C12.0011 8.42693 11.9883 8.49349 11.9625 8.55542C11.9367 8.61734 11.8984 8.67331 11.8501 8.71985L11.6501 8.91985C11.6036 8.96672 11.5483 9.00391 11.4874 9.0293C11.4265 9.05468 11.3611 9.06775 11.2951 9.06775C11.2291 9.06775 11.1637 9.05468 11.1028 9.0293C11.0419 9.00391 10.9866 8.96672 10.9401 8.91985L7.4001 5.38985C7.30785 5.2947 7.25626 5.16738 7.25626 5.03485C7.25626 4.90232 7.30785 4.775 7.4001 4.67985L10.9401 1.14985C10.9866 1.10299 11.0419 1.06579 11.1028 1.04041C11.1637 1.01502 11.2291 1.00195 11.2951 1.00195C11.3611 1.00195 11.4265 1.01502 11.4874 1.04041C11.5483 1.06579 11.6036 1.10299 11.6501 1.14985L11.8501 1.34985ZM13.0601 15.0799C13.0136 15.033 12.9583 14.9958 12.8974 14.9704C12.8365 14.945 12.7711 14.932 12.7051 14.932C12.6391 14.932 12.5737 14.945 12.5128 14.9704C12.4519 14.9958 12.3966 15.033 12.3501 15.0799L12.1501 15.2799C12.1018 15.3264 12.0635 15.3824 12.0377 15.4443C12.0119 15.5062 11.9991 15.5728 12.0001 15.6399V17.9999C10.4088 17.9999 8.88268 17.3677 7.75746 16.2425C6.63224 15.1173 6.0001 13.5912 6.0001 11.9999C5.99674 11.026 6.2374 10.0668 6.7001 9.20985C6.74897 9.11452 6.76657 9.00622 6.75042 8.90031C6.73426 8.79441 6.68517 8.69628 6.6101 8.61985L5.8701 7.87985C5.81554 7.82584 5.74927 7.78511 5.67644 7.76083C5.6036 7.73656 5.52616 7.72938 5.4501 7.73985C5.37283 7.75254 5.29942 7.78251 5.23536 7.82753C5.17129 7.87255 5.11822 7.93145 5.0801 7.99985C4.3783 9.2154 4.00866 10.5942 4.0083 11.9978C4.00794 13.4014 4.37687 14.7804 5.07805 15.9963C5.77922 17.2122 6.78796 18.2222 8.00297 18.925C9.21799 19.6277 10.5965 19.9984 12.0001 19.9999V22.2899C11.9991 22.3569 12.0119 22.4235 12.0377 22.4854C12.0635 22.5473 12.1018 22.6033 12.1501 22.6499L12.3501 22.8499C12.3966 22.8967 12.4519 22.9339 12.5128 22.9593C12.5737 22.9847 12.6391 22.9978 12.7051 22.9978C12.7711 22.9978 12.8365 22.9847 12.8974 22.9593C12.9583 22.9339 13.0136 22.8967 13.0601 22.8499L16.6001 19.3199C16.6924 19.2247 16.7439 19.0974 16.7439 18.9649C16.7439 18.8323 16.6924 18.705 16.6001 18.6099L13.0601 15.0799Z" fill-rule="evenodd"/>
  </g>
</svg>
