<svg xmlns="http://www.w3.org/2000/svg" width="24" height="24" viewBox="0 0 24 24" fill="currentColor">
  <g fill-rule="nonzero">
    <path d="M18.5,23.39H2.1c-1.16,0-2.1-.94-2.1-2.1v-9c0-1.16.94-2.1,2.1-2.1h3.2L9.66,1.74c.36-.7,1.08-1.14,1.87-1.14.97,0,1.88.42,2.51,1.16.63.73.9,1.7.75,2.65l-.53,3.39h5.24c1.31,0,2.56.57,3.41,1.57.86,1,1.23,2.31,1.04,3.61l-1,6.6c-.34,2.21-2.21,3.82-4.45,3.82ZM6.6,21.6h11.9c1.34,0,2.47-.96,2.67-2.29l1-6.6c.12-.78-.11-1.57-.62-2.16-.51-.6-1.26-.94-2.05-.94h-6.29c-.26,0-.51-.11-.68-.31s-.25-.46-.21-.72l.69-4.43c.07-.43-.06-.87-.34-1.2-.29-.33-.7-.53-1.14-.53-.11,0-.22.06-.27.16l-4.66,9.05v9.98ZM2.1,12c-.17,0-.3.13-.3.3v9c0,.17.13.3.3.3h2.7v-9.6h-2.7Z" fill-rule="evenodd"/>
  </g>
</svg>
