<svg xmlns="http://www.w3.org/2000/svg" width="24" height="24" viewBox="0 0 24 24" fill="currentColor">
  <g fill-rule="nonzero">
    <path d="M12.47,23.4c-.97,0-1.88-.42-2.51-1.15-.63-.73-.9-1.7-.75-2.65l.53-3.39h-5.24c-1.31,0-2.56-.57-3.41-1.57C.23,13.64-.15,12.32.05,11.02l1-6.6C1.39,2.21,3.26.6,5.5.6h16.4c1.16,0,2.1.94,2.1,2.1v9c0,1.16-.94,2.1-2.1,2.1h-3.2l-4.36,8.46c-.36.7-1.08,1.14-1.87,1.14ZM5.5,2.4c-1.34,0-2.47.97-2.67,2.29l-1,6.6c-.12.78.11,1.57.62,2.17.51.6,1.26.94,2.05.94h6.29c.26,0,.51.11.68.32.17.2.25.46.21.72l-.69,4.43c-.07.43.06.87.34,1.21.29.33.7.52,1.14.52.12,0,.22-.06.27-.16l4.66-9.06V2.4H5.5ZM19.2,12h2.7c.17,0,.3-.13.3-.3V2.7c0-.17-.13-.3-.3-.3h-2.7v9.6Z" fill-rule="evenodd"/>
  </g>
</svg>
