<svg xmlns="http://www.w3.org/2000/svg" width="24" height="24" viewBox="0 0 24 24" fill="currentColor">
  <g fill-rule="nonzero">
    <path d="M3.3 18.6C3.1 18.8 3 19 3 19.3V19.5C3 19.8 3.1 20 3.3 20.2L3.8 20.7C4 20.9 4.3 21 4.5 21H4.7C5 21 5.2 20.9 5.4 20.7L11.1 15L9 12.9L3.3 18.6ZM17 11C19.2 11 21 9.2 21 7V6.7C21 6.6 20.9 6.4 20.9 6.3L20.7 6.1C20.5 6 20.2 6 20 6.1L18.4 7.7C18.2 7.9 17.9 7.9 17.7 7.7L16.3 6.3C16.1 6.1 16.1 5.8 16.3 5.6L17.9 4C18.1 3.8 18.1 3.5 17.9 3.3L17.7 3.1C17.6 3 17.5 3 17.3 3H17C14.8 3 13 4.8 13 7C13 7.5 13.1 8.1 13.3 8.6L11.6 10.3L8.2 6.8L7.3 5.2C7.2 4.9 7 4.6 6.7 4.4L4.6 3.1C4.4 3 4.2 3 4 3.1L3.2 4C3 4.2 3 4.4 3.1 4.6L4.5 6.6C4.6 7 4.9 7.2 5.2 7.3L6.8 8.2L13.6 15L13.1 15.5C12.9 15.7 12.9 16 13.1 16.2L17.6 20.7C17.8 20.9 18 21 18.3 21H19.5C19.8 21 20 20.9 20.2 20.7L20.7 20.2C20.9 20 21 19.8 21 19.5V18.3C21 18 20.9 17.8 20.7 17.6L16.2 13.1C16 12.9 15.7 12.9 15.5 13.1L15 13.6L13.8 12.4L15.5 10.7C15.9 10.9 16.5 11 17 11Z" fill-rule="evenodd"/>
  </g>
</svg>
