<svg xmlns="http://www.w3.org/2000/svg" width="24" height="24" viewBox="0 0 24 24" fill="currentColor">
  <g fill-rule="nonzero">
    <path d="M16.3156 4.99636L13.57 2.42909C13.2777 2.15415 12.8801 1.99969 12.4656 2H7.53444C7.11985 1.99969 6.72229 2.15415 6.43 2.42909L3.68444 4.99636C3.24673 5.40514 3.00054 5.95972 3 6.53818V10.7927C3.00144 12.5871 3.88828 14.2805 5.40333 15.3818L8.57667 17.6945C8.85029 17.8931 9.65364 18.0006 10 18C10.3464 18.0006 11.1497 17.8931 11.4233 17.6945L14.5967 15.3818C16.1117 14.2805 16.9986 12.5871 17 10.7927V6.53818C16.9995 5.95972 16.7533 5.40514 16.3156 4.99636ZM13.3989 8.63273L11.8433 9.86909L12.3333 11.7309C12.3708 11.8731 12.3134 12.0224 12.1877 12.1098C12.062 12.1971 11.8926 12.2055 11.7578 12.1309L10 11.1345L8.25 12.1309C8.11491 12.2104 7.94158 12.2047 7.81286 12.1164C7.68413 12.0281 7.62617 11.8753 7.66667 11.7309L8.14111 9.88364L6.58556 8.64727C6.47221 8.54859 6.43065 8.39726 6.47912 8.25972C6.52759 8.12219 6.65723 8.02361 6.81111 8.00727L8.83333 7.86182L9.61111 6.09455C9.6722 5.96045 9.81302 5.87342 9.96889 5.87342C10.1248 5.87342 10.2656 5.96045 10.3267 6.09455L11.1044 7.86182L13.1267 8.00727C13.2889 8.00757 13.4345 8.10017 13.4945 8.2411C13.5544 8.38203 13.5166 8.54289 13.3989 8.64727V8.63273Z" fill-rule="evenodd"/>
  </g>
</svg>
