<svg xmlns="http://www.w3.org/2000/svg" width="24" height="24" viewBox="0 0 24 24" fill="currentColor">
  <g fill-rule="nonzero">
    <path d="M20.4996 5.00001H8.81964C8.58374 4.33279 8.11957 3.77045 7.50916 3.41237C6.89875 3.0543 6.1814 2.92354 5.4839 3.04321C4.78641 3.16288 4.15367 3.52528 3.69753 4.06635C3.24139 4.60741 2.99121 5.29232 2.99121 6.00001C2.99121 6.70769 3.24139 7.3926 3.69753 7.93367C4.15367 8.47474 4.78641 8.83713 5.4839 8.9568C6.1814 9.07647 6.89875 8.94571 7.50916 8.58764C8.11957 8.22956 8.58374 7.66722 8.81964 7.00001H20.4996C20.6322 7.00001 20.7594 6.94733 20.8532 6.85356C20.947 6.75979 20.9996 6.63261 20.9996 6.50001V5.50001C20.9996 5.3674 20.947 5.24022 20.8532 5.14645C20.7594 5.05268 20.6322 5.00001 20.4996 5.00001ZM5.99964 7.00001C5.80186 7.00001 5.60852 6.94136 5.44407 6.83148C5.27962 6.72159 5.15145 6.56542 5.07576 6.38269C5.00007 6.19996 4.98027 5.9989 5.01885 5.80492C5.05744 5.61093 5.15268 5.43275 5.29253 5.2929C5.43238 5.15305 5.61057 5.05781 5.80455 5.01922C5.99853 4.98064 6.1996 5.00044 6.38232 5.07613C6.56505 5.15181 6.72123 5.27999 6.83111 5.44444C6.94099 5.60889 6.99964 5.80222 6.99964 6.00001C6.99964 6.26522 6.89428 6.51958 6.70674 6.70711C6.51921 6.89465 6.26485 7.00001 5.99964 7.00001ZM20.4996 11H14.8196C14.6094 10.4209 14.226 9.92047 13.7215 9.56685C13.2169 9.21323 12.6158 9.02353 11.9996 9.02353C11.3835 9.02353 10.7823 9.21323 10.2778 9.56685C9.77327 9.92047 9.38984 10.4209 9.17964 11H3.49964C3.36703 11 3.23985 11.0527 3.14608 11.1465C3.05232 11.2402 2.99964 11.3674 2.99964 11.5V12.5C2.99964 12.6326 3.05232 12.7598 3.14608 12.8536C3.23985 12.9473 3.36703 13 3.49964 13H9.17964C9.38984 13.5792 9.77327 14.0795 10.2778 14.4332C10.7823 14.7868 11.3835 14.9765 11.9996 14.9765C12.6158 14.9765 13.2169 14.7868 13.7215 14.4332C14.226 14.0795 14.6094 13.5792 14.8196 13H20.4996C20.6322 13 20.7594 12.9473 20.8532 12.8536C20.947 12.7598 20.9996 12.6326 20.9996 12.5V11.5C20.9996 11.3674 20.947 11.2402 20.8532 11.1465C20.7594 11.0527 20.6322 11 20.4996 11ZM11.9996 13C11.8019 13 11.6085 12.9414 11.4441 12.8315C11.2796 12.7216 11.1514 12.5654 11.0758 12.3827C11.0001 12.2 10.9803 11.9989 11.0189 11.8049C11.0574 11.6109 11.1527 11.4328 11.2925 11.2929C11.4324 11.153 11.6106 11.0578 11.8045 11.0192C11.9985 10.9806 12.1996 11.0004 12.3823 11.0761C12.565 11.1518 12.7212 11.28 12.8311 11.4444C12.941 11.6089 12.9996 11.8022 12.9996 12C12.9996 12.2652 12.8943 12.5196 12.7067 12.7071C12.5192 12.8946 12.2649 13 11.9996 13ZM17.9996 15C17.3807 15.0017 16.7774 15.1949 16.2726 15.5529C15.7677 15.911 15.386 16.4165 15.1796 17H3.49964C3.36703 17 3.23985 17.0527 3.14608 17.1465C3.05232 17.2402 2.99964 17.3674 2.99964 17.5V18.5C2.99964 18.6326 3.05232 18.7598 3.14608 18.8536C3.23985 18.9473 3.36703 19 3.49964 19H15.1796C15.3631 19.5189 15.6857 19.9773 16.1123 20.3251C16.5388 20.6729 17.0528 20.8966 17.598 20.9718C18.1432 21.0471 18.6986 20.9709 19.2033 20.7516C19.7081 20.5323 20.1429 20.1784 20.46 19.7286C20.7771 19.2788 20.9644 18.7504 21.0013 18.2013C21.0382 17.6522 20.9234 17.1035 20.6694 16.6153C20.4153 16.1271 20.0319 15.7181 19.561 15.4332C19.0902 15.1483 18.55 14.9985 17.9996 15ZM17.9996 19C17.8019 19 17.6085 18.9414 17.4441 18.8315C17.2796 18.7216 17.1514 18.5654 17.0758 18.3827C17.0001 18.2 16.9803 17.9989 17.0189 17.8049C17.0574 17.6109 17.1527 17.4328 17.2925 17.2929C17.4324 17.153 17.6106 17.0578 17.8045 17.0192C17.9985 16.9806 18.1996 17.0004 18.3823 17.0761C18.565 17.1518 18.7212 17.28 18.8311 17.4444C18.941 17.6089 18.9996 17.8022 18.9996 18C18.9996 18.2652 18.8943 18.5196 18.7067 18.7071C18.5192 18.8947 18.2649 19 17.9996 19Z" fill-rule="evenodd"/>
  </g>
</svg>
