<svg xmlns="http://www.w3.org/2000/svg" width="24" height="24" viewBox="0 0 24 24" fill="currentColor">
  <g fill-rule="nonzero">
    <path d="M22.0002 15.4594C22.0058 15.5283 21.9969 15.5976 21.9743 15.663C21.9517 15.7284 21.9157 15.7883 21.8687 15.8391C21.8217 15.8898 21.7647 15.9303 21.7013 15.9579C21.6379 15.9855 21.5694 15.9996 21.5002 15.9994H20.0002C19.8769 15.9998 19.758 15.9537 19.6672 15.8703C19.5763 15.7869 19.5203 15.6723 19.5102 15.5494C19.2202 12.7294 16.2002 10.4994 12.5102 10.4994C10.6168 10.4676 8.77499 11.117 7.32023 12.3294L9.84023 14.8494C9.88855 14.8959 9.92679 14.9519 9.95259 15.0138C9.9784 15.0757 9.99121 15.1423 9.99023 15.2094V15.4994C9.99023 15.632 9.93756 15.7591 9.84379 15.8529C9.75002 15.9467 9.62284 15.9994 9.49023 15.9994H2.49023C2.35763 15.9994 2.23045 15.9467 2.13668 15.8529C2.04291 15.7591 1.99023 15.632 1.99023 15.4994V8.49936C1.99022 8.43285 2.00348 8.367 2.02923 8.30568C2.05498 8.24436 2.09271 8.18879 2.1402 8.14222C2.18769 8.09566 2.244 8.05904 2.30582 8.03451C2.36764 8.00998 2.43374 7.99803 2.50023 7.99936H2.79023C2.85731 7.99839 2.92388 8.0112 2.9858 8.037C3.04773 8.0628 3.10369 8.10105 3.15023 8.14936L5.57023 10.5694C7.50419 8.87438 9.99895 7.95845 12.5702 7.99936C17.5502 7.99936 21.6702 11.2894 22.0002 15.4594Z" fill-rule="evenodd"/>
  </g>
</svg>
