<svg xmlns="http://www.w3.org/2000/svg" width="24" height="24" viewBox="0 0 24 24" fill="currentColor">
  <g fill-rule="nonzero">
    <path d="M7.9999 8C7.9999 7.20888 8.2345 6.43552 8.67403 5.77772C9.11355 5.11992 9.73827 4.60723 10.4692 4.30448C11.2001 4.00173 12.0043 3.92252 12.7803 4.07686C13.5562 4.2312 14.2689 4.61216 14.8283 5.17157C15.3877 5.73098 15.7687 6.44372 15.923 7.21964C16.0774 7.99556 15.9982 8.79983 15.6954 9.53074C15.3927 10.2616 14.88 10.8864 14.2222 11.3259C13.5644 11.7654 12.791 12 11.9999 12C10.939 12 9.92162 11.5786 9.17148 10.8284C8.42133 10.0783 7.9999 9.06087 7.9999 8ZM19.8899 18.55L18.4499 15.66C18.2005 15.1604 17.8165 14.7403 17.3413 14.447C16.866 14.1537 16.3184 13.9989 15.7599 14H8.2399C7.68145 13.9989 7.13378 14.1537 6.65854 14.447C6.1833 14.7403 5.79934 15.1604 5.5499 15.66L4.1099 18.55C4.03319 18.7022 3.99667 18.8715 4.00381 19.0419C4.01094 19.2122 4.06149 19.3778 4.15067 19.5231C4.23984 19.6684 4.36467 19.7885 4.5133 19.8719C4.66194 19.9554 4.82944 19.9995 4.9999 20H18.9999C19.1704 19.9995 19.3379 19.9554 19.4865 19.8719C19.6351 19.7885 19.76 19.6684 19.8491 19.5231C19.9383 19.3778 19.9889 19.2122 19.996 19.0419C20.0031 18.8715 19.9666 18.7022 19.8899 18.55Z" fill-rule="evenodd"/>
  </g>
</svg>
