<svg xmlns="http://www.w3.org/2000/svg" width="24" height="24" viewBox="0 0 24 24" fill="currentColor">
  <g fill-rule="nonzero">
    <path d="M11.9999 12C12.791 12 13.5644 11.7654 14.2222 11.3259C14.88 10.8864 15.3927 10.2616 15.6954 9.53074C15.9982 8.79983 16.0774 7.99556 15.923 7.21964C15.7687 6.44372 15.3877 5.73098 14.8283 5.17157C14.2689 4.61216 13.5562 4.2312 12.7803 4.07686C12.0043 3.92252 11.2001 4.00173 10.4692 4.30448C9.73827 4.60723 9.11355 5.11992 8.67403 5.77772C8.2345 6.43552 7.9999 7.20888 7.9999 8C7.9999 9.06087 8.42133 10.0783 9.17148 10.8284C9.92162 11.5786 10.939 12 11.9999 12ZM11.9999 6C12.3955 6 12.7821 6.1173 13.111 6.33706C13.4399 6.55683 13.6963 6.86918 13.8477 7.23463C13.999 7.60009 14.0386 8.00222 13.9615 8.39018C13.8843 8.77814 13.6938 9.13451 13.4141 9.41422C13.1344 9.69392 12.778 9.8844 12.3901 9.96157C12.0021 10.0387 11.6 9.99914 11.2345 9.84776C10.8691 9.69639 10.5567 9.44004 10.337 9.11114C10.1172 8.78224 9.9999 8.39556 9.9999 8C9.9999 7.46957 10.2106 6.96086 10.5857 6.58579C10.9608 6.21072 11.4695 6 11.9999 6ZM19.8899 18.55L17.9999 14.66C17.7467 14.1527 17.355 13.7274 16.87 13.4336C16.3851 13.1398 15.8268 12.9895 15.2599 13H8.7399C8.18145 12.9989 7.63378 13.1537 7.15854 13.447C6.6833 13.7403 6.29934 14.1604 6.0499 14.66L4.1099 18.55C4.03319 18.7022 3.99667 18.8715 4.00381 19.0419C4.01094 19.2122 4.06149 19.3778 4.15067 19.5231C4.23984 19.6684 4.36467 19.7885 4.5133 19.8719C4.66194 19.9554 4.82944 19.9995 4.9999 20H18.9999C19.1704 19.9995 19.3379 19.9554 19.4865 19.8719C19.6351 19.7885 19.76 19.6684 19.8491 19.5231C19.9383 19.3778 19.9889 19.2122 19.996 19.0419C20.0031 18.8715 19.9666 18.7022 19.8899 18.55ZM6.6199 18L7.8399 15.55C7.92377 15.3836 8.05247 15.2439 8.21149 15.1467C8.37052 15.0495 8.55354 14.9987 8.7399 15H15.2599C15.4463 14.9987 15.6293 15.0495 15.7883 15.1467C15.9473 15.2439 16.076 15.3836 16.1599 15.55L17.3799 18H6.6199Z" fill-rule="evenodd"/>
  </g>
</svg>
