<svg xmlns="http://www.w3.org/2000/svg" width="24" height="24" viewBox="0 0 24 24" fill="currentColor">
  <g fill-rule="nonzero">
    <path d="M4.99942 5C4.99942 4.0111 5.29266 3.0444 5.84207 2.22215C6.39147 1.39991 7.17237 0.759043 8.086 0.380605C8.99963 0.00216642 10.005 -0.0968503 10.9749 0.0960759C11.9448 0.289002 12.8357 0.765206 13.5349 1.46447C14.2342 2.16373 14.7104 3.05465 14.9033 4.02455C15.0963 4.99446 14.9973 5.99979 14.6188 6.91342C14.2404 7.82705 13.5995 8.60794 12.7773 9.15735C11.955 9.70676 10.9883 10 9.99942 10C8.67333 10 7.40156 9.47322 6.46388 8.53554C5.5262 7.59785 4.99942 6.32609 4.99942 5ZM19.8894 18.55L17.9994 14.76C17.5838 13.9305 16.9455 13.2331 16.1561 12.7456C15.3667 12.2582 14.4572 12 13.5294 12H6.46942C5.54163 12 4.63215 12.2582 3.84273 12.7456C3.0533 13.2331 2.41506 13.9305 1.99942 14.76L0.109415 18.55C0.0327053 18.7022 -0.00381663 18.8715 0.00331774 19.0419C0.0104521 19.2122 0.0610059 19.3778 0.150178 19.5231C0.239351 19.6684 0.364181 19.7885 0.512815 19.8719C0.661449 19.9554 0.828951 19.9995 0.999415 20H18.9994C19.1699 19.9995 19.3374 19.9554 19.486 19.8719C19.6346 19.7885 19.7595 19.6684 19.8487 19.5231C19.9378 19.3778 19.9884 19.2122 19.9955 19.0419C20.0026 18.8715 19.9661 18.7022 19.8894 18.55Z" fill-rule="evenodd"/>
  </g>
</svg>
