<svg xmlns="http://www.w3.org/2000/svg" width="24" height="24" viewBox="0 0 24 24" fill="currentColor">
  <g fill-rule="nonzero">
    <path d="M1.5 21.5V15.9H7.1V21.5H1.5ZM8.7 21.5V15.9H14.3V21.5H8.7ZM15.9 21.5V15.9H21.5V21.5H15.9ZM1.5 14.3V8.7H7.1V14.3H1.5ZM8.7 14.3V8.7H14.3V14.3H8.7ZM15.9 14.3V8.7H21.5V14.3H15.9ZM1.5 7.1V1.5H14.3V7.1H1.5ZM15.9 7.1V1.5H21.5V7.1H15.9ZM3 20H5.6V17.4H3V20ZM10.2 20H12.8V17.4H10.2V20ZM17.4 20H20V17.4H17.4V20ZM3 12.8H5.6V10.2H3V12.8ZM10.2 12.8H12.8V10.2H10.2V12.8ZM17.4 12.8H20V10.2H17.4V12.8ZM17.4 5.6H20V3H17.4V5.6Z" fill-rule="evenodd"/>
  </g>
</svg>
