<svg width="64" height="64" viewBox="0 0 64 64" fill="none" xmlns="http://www.w3.org/2000/svg">
<rect width="64" height="64" fill="#7F5774"/>
<g clip-path="url(#clip0_419_467)">
<rect width="32" height="32" transform="translate(16 16)" fill="#7F5774"/>
<path d="M32 26.25L48 21V16H16V21L32 26.25Z" fill="white"/>
<path d="M16 25.75V48H23.5V28.25L16 25.75Z" fill="white"/>
<path d="M48 25.75V48H40.5V28.25L48 25.75Z" fill="white"/>
<path d="M35.75 29.75L34.0239 30.3254C33.2729 30.5757 32.8975 30.7008 32.5134 30.7505C32.1725 30.7947 31.8275 30.7947 31.4866 30.7505C31.1025 30.7008 30.7271 30.5757 29.9761 30.3254L28.25 29.75V48H35.75V29.75Z" fill="white"/>
</g>
<defs>
<clipPath id="clip0_419_467">
<rect width="32" height="32" fill="white" transform="translate(16 16)"/>
</clipPath>
</defs>
</svg>
